%TF.GenerationSoftware,KiCad,Pcbnew,8.0.2*%
%TF.CreationDate,2024-06-04T18:26:38-07:00*%
%TF.ProjectId,keyboard_pcb,6b657962-6f61-4726-945f-7063622e6b69,1.0*%
%TF.SameCoordinates,Original*%
%TF.FileFunction,Copper,L2,Bot*%
%TF.FilePolarity,Positive*%
%FSLAX46Y46*%
G04 Gerber Fmt 4.6, Leading zero omitted, Abs format (unit mm)*
G04 Created by KiCad (PCBNEW 8.0.2) date 2024-06-04 18:26:38*
%MOMM*%
%LPD*%
G01*
G04 APERTURE LIST*
G04 Aperture macros list*
%AMRoundRect*
0 Rectangle with rounded corners*
0 $1 Rounding radius*
0 $2 $3 $4 $5 $6 $7 $8 $9 X,Y pos of 4 corners*
0 Add a 4 corners polygon primitive as box body*
4,1,4,$2,$3,$4,$5,$6,$7,$8,$9,$2,$3,0*
0 Add four circle primitives for the rounded corners*
1,1,$1+$1,$2,$3*
1,1,$1+$1,$4,$5*
1,1,$1+$1,$6,$7*
1,1,$1+$1,$8,$9*
0 Add four rect primitives between the rounded corners*
20,1,$1+$1,$2,$3,$4,$5,0*
20,1,$1+$1,$4,$5,$6,$7,0*
20,1,$1+$1,$6,$7,$8,$9,0*
20,1,$1+$1,$8,$9,$2,$3,0*%
G04 Aperture macros list end*
%TA.AperFunction,ComponentPad*%
%ADD10C,2.300000*%
%TD*%
%TA.AperFunction,ComponentPad*%
%ADD11C,4.000000*%
%TD*%
%TA.AperFunction,SMDPad,CuDef*%
%ADD12RoundRect,0.140000X0.140000X0.170000X-0.140000X0.170000X-0.140000X-0.170000X0.140000X-0.170000X0*%
%TD*%
%TA.AperFunction,SMDPad,CuDef*%
%ADD13RoundRect,0.225000X0.375000X-0.225000X0.375000X0.225000X-0.375000X0.225000X-0.375000X-0.225000X0*%
%TD*%
%TA.AperFunction,SMDPad,CuDef*%
%ADD14RoundRect,0.140000X-0.140000X-0.170000X0.140000X-0.170000X0.140000X0.170000X-0.140000X0.170000X0*%
%TD*%
%TA.AperFunction,SMDPad,CuDef*%
%ADD15RoundRect,0.075000X0.125000X0.075000X-0.125000X0.075000X-0.125000X-0.075000X0.125000X-0.075000X0*%
%TD*%
%TA.AperFunction,SMDPad,CuDef*%
%ADD16RoundRect,0.075000X0.075000X-0.125000X0.075000X0.125000X-0.075000X0.125000X-0.075000X-0.125000X0*%
%TD*%
%TA.AperFunction,SMDPad,CuDef*%
%ADD17R,1.400000X1.200000*%
%TD*%
%TA.AperFunction,SMDPad,CuDef*%
%ADD18RoundRect,0.140000X0.170000X-0.140000X0.170000X0.140000X-0.170000X0.140000X-0.170000X-0.140000X0*%
%TD*%
%TA.AperFunction,SMDPad,CuDef*%
%ADD19RoundRect,0.050000X-0.387500X-0.050000X0.387500X-0.050000X0.387500X0.050000X-0.387500X0.050000X0*%
%TD*%
%TA.AperFunction,SMDPad,CuDef*%
%ADD20RoundRect,0.050000X-0.050000X-0.387500X0.050000X-0.387500X0.050000X0.387500X-0.050000X0.387500X0*%
%TD*%
%TA.AperFunction,ComponentPad*%
%ADD21C,0.600000*%
%TD*%
%TA.AperFunction,SMDPad,CuDef*%
%ADD22RoundRect,0.144000X-1.456000X-1.456000X1.456000X-1.456000X1.456000X1.456000X-1.456000X1.456000X0*%
%TD*%
%TA.AperFunction,SMDPad,CuDef*%
%ADD23RoundRect,0.075000X-0.125000X-0.075000X0.125000X-0.075000X0.125000X0.075000X-0.125000X0.075000X0*%
%TD*%
%TA.AperFunction,ComponentPad*%
%ADD24C,2.000000*%
%TD*%
%TA.AperFunction,SMDPad,CuDef*%
%ADD25RoundRect,0.140000X-0.170000X0.140000X-0.170000X-0.140000X0.170000X-0.140000X0.170000X0.140000X0*%
%TD*%
%TA.AperFunction,SMDPad,CuDef*%
%ADD26RoundRect,0.375000X-0.375000X0.625000X-0.375000X-0.625000X0.375000X-0.625000X0.375000X0.625000X0*%
%TD*%
%TA.AperFunction,SMDPad,CuDef*%
%ADD27RoundRect,0.500000X-1.400000X0.500000X-1.400000X-0.500000X1.400000X-0.500000X1.400000X0.500000X0*%
%TD*%
%TA.AperFunction,SMDPad,CuDef*%
%ADD28RoundRect,0.150000X-0.150000X0.650000X-0.150000X-0.650000X0.150000X-0.650000X0.150000X0.650000X0*%
%TD*%
%TA.AperFunction,SMDPad,CuDef*%
%ADD29R,0.600000X1.450000*%
%TD*%
%TA.AperFunction,SMDPad,CuDef*%
%ADD30R,0.300000X1.450000*%
%TD*%
%TA.AperFunction,ComponentPad*%
%ADD31O,1.000000X1.600000*%
%TD*%
%TA.AperFunction,ComponentPad*%
%ADD32O,1.000000X2.100000*%
%TD*%
%TA.AperFunction,ViaPad*%
%ADD33C,0.600000*%
%TD*%
%TA.AperFunction,Conductor*%
%ADD34C,0.200000*%
%TD*%
G04 APERTURE END LIST*
D10*
%TO.P,MX11,1,1*%
%TO.N,COL_11*%
X247477500Y-102816250D03*
%TO.P,MX11,2,2*%
%TO.N,Net-(D11-A)*%
X253827500Y-100276250D03*
%TD*%
%TO.P,MX18,1,1*%
%TO.N,COL_3*%
X104602500Y-121866250D03*
%TO.P,MX18,2,2*%
%TO.N,Net-(D18-A)*%
X110952500Y-119326250D03*
%TD*%
%TO.P,MX8,1,1*%
%TO.N,COL_8*%
X190327500Y-102816250D03*
%TO.P,MX8,2,2*%
%TO.N,Net-(D8-A)*%
X196677500Y-100276250D03*
%TD*%
%TO.P,MX65,1,1*%
%TO.N,COL_14*%
X333202500Y-179016250D03*
%TO.P,MX65,2,2*%
%TO.N,Net-(D65-A)*%
X339552500Y-176476250D03*
%TD*%
%TO.P,MX29,1,1*%
%TO.N,COL_14*%
X318915000Y-121866250D03*
%TO.P,MX29,2,2*%
%TO.N,Net-(D29-A)*%
X325265000Y-119326250D03*
%TD*%
%TO.P,MX14,1,1*%
%TO.N,COL_14*%
X314152500Y-102816250D03*
%TO.P,MX14,2,2*%
%TO.N,Net-(D14-A)*%
X320502500Y-100276250D03*
%TD*%
%TO.P,MX43,1,1*%
%TO.N,COL_13*%
X311771250Y-140916250D03*
%TO.P,MX43,2,2*%
%TO.N,Net-(D43-A)*%
X318121250Y-138376250D03*
%TD*%
%TO.P,MX48,1,1*%
%TO.N,COL_5*%
X156990000Y-159966250D03*
%TO.P,MX48,2,2*%
%TO.N,Net-(D48-A)*%
X163340000Y-157426250D03*
%TD*%
%TO.P,MX15,1,1*%
%TO.N,COL_15*%
X361777500Y-102816250D03*
%TO.P,MX15,2,2*%
%TO.N,Net-(D15-A)*%
X368127500Y-100276250D03*
%TD*%
%TO.P,MX49,1,1*%
%TO.N,COL_6*%
X176040000Y-159966250D03*
%TO.P,MX49,2,2*%
%TO.N,Net-(D49-A)*%
X182390000Y-157426250D03*
%TD*%
%TO.P,MX59,1,1*%
%TO.N,COL_3*%
X102221250Y-179016250D03*
%TO.P,MX59,2,2*%
%TO.N,Net-(D59-A)*%
X108571250Y-176476250D03*
%TD*%
%TO.P,MX3,1,1*%
%TO.N,COL_3*%
X95077500Y-102816250D03*
%TO.P,MX3,2,2*%
%TO.N,Net-(D3-A)*%
X101427500Y-100276250D03*
%TD*%
D11*
%TO.P,S5,*%
%TO.N,*%
X127462500Y-174571250D03*
X227475000Y-174571250D03*
%TD*%
D10*
%TO.P,MX55,1,1*%
%TO.N,COL_12*%
X302246250Y-159966250D03*
%TO.P,MX55,2,2*%
%TO.N,Net-(D55-A)*%
X308596250Y-157426250D03*
%TD*%
%TO.P,MX27,1,1*%
%TO.N,COL_12*%
X276052500Y-121866250D03*
%TO.P,MX27,2,2*%
%TO.N,Net-(D27-A)*%
X282402500Y-119326250D03*
%TD*%
%TO.P,MX50,1,1*%
%TO.N,COL_7*%
X195090000Y-159966250D03*
%TO.P,MX50,2,2*%
%TO.N,Net-(D50-A)*%
X201440000Y-157426250D03*
%TD*%
%TO.P,MX25,1,1*%
%TO.N,COL_10*%
X237952500Y-121866250D03*
%TO.P,MX25,2,2*%
%TO.N,Net-(D25-A)*%
X244302500Y-119326250D03*
%TD*%
%TO.P,MX7,1,1*%
%TO.N,COL_7*%
X171277500Y-102816250D03*
%TO.P,MX7,2,2*%
%TO.N,Net-(D7-A)*%
X177627500Y-100276250D03*
%TD*%
%TO.P,MX61,1,1*%
%TO.N,COL_9*%
X245096250Y-179016250D03*
%TO.P,MX61,2,2*%
%TO.N,Net-(D61-A)*%
X251446250Y-176476250D03*
%TD*%
%TO.P,MX36,1,1*%
%TO.N,COL_6*%
X166515000Y-140916250D03*
%TO.P,MX36,2,2*%
%TO.N,Net-(D36-A)*%
X172865000Y-138376250D03*
%TD*%
%TO.P,MX1,1,1*%
%TO.N,COL_1*%
X56977500Y-102816250D03*
%TO.P,MX1,2,2*%
%TO.N,Net-(D1-A)*%
X63327500Y-100276250D03*
%TD*%
%TO.P,MX35,1,1*%
%TO.N,COL_5*%
X147465000Y-140916250D03*
%TO.P,MX35,2,2*%
%TO.N,Net-(D35-A)*%
X153815000Y-138376250D03*
%TD*%
%TO.P,MX52,1,1*%
%TO.N,COL_9*%
X233190000Y-159966250D03*
%TO.P,MX52,2,2*%
%TO.N,Net-(D52-A)*%
X239540000Y-157426250D03*
%TD*%
%TO.P,MX20,1,1*%
%TO.N,COL_5*%
X142702500Y-121866250D03*
%TO.P,MX20,2,2*%
%TO.N,Net-(D20-A)*%
X149052500Y-119326250D03*
%TD*%
%TO.P,MX31,1,1*%
%TO.N,COL_1*%
X64121250Y-140916250D03*
%TO.P,MX31,2,2*%
%TO.N,Net-(D31-A)*%
X70471250Y-138376250D03*
%TD*%
%TO.P,MX4,1,1*%
%TO.N,COL_4*%
X114127500Y-102816250D03*
%TO.P,MX4,2,2*%
%TO.N,Net-(D4-A)*%
X120477500Y-100276250D03*
%TD*%
%TO.P,MX19,1,1*%
%TO.N,COL_4*%
X123652500Y-121866250D03*
%TO.P,MX19,2,2*%
%TO.N,Net-(D19-A)*%
X130002500Y-119326250D03*
%TD*%
%TO.P,MX34,1,1*%
%TO.N,COL_4*%
X128415000Y-140916250D03*
%TO.P,MX34,2,2*%
%TO.N,Net-(D34-A)*%
X134765000Y-138376250D03*
%TD*%
%TO.P,MX46,1,1*%
%TO.N,COL_3*%
X118890000Y-159966250D03*
%TO.P,MX46,2,2*%
%TO.N,Net-(D46-A)*%
X125240000Y-157426250D03*
%TD*%
%TO.P,MX53,1,1*%
%TO.N,COL_10*%
X252240000Y-159966250D03*
%TO.P,MX53,2,2*%
%TO.N,Net-(D53-A)*%
X258590000Y-157426250D03*
%TD*%
%TO.P,MX16,1,1*%
%TO.N,COL_1*%
X61740000Y-121866250D03*
%TO.P,MX16,2,2*%
%TO.N,Net-(D16-A)*%
X68090000Y-119326250D03*
%TD*%
%TO.P,MX38,1,1*%
%TO.N,COL_8*%
X204615000Y-140916250D03*
%TO.P,MX38,2,2*%
%TO.N,Net-(D38-A)*%
X210965000Y-138376250D03*
%TD*%
%TO.P,MX64,1,1*%
%TO.N,COL_12*%
X314152500Y-179016250D03*
%TO.P,MX64,2,2*%
%TO.N,Net-(D64-A)*%
X320502500Y-176476250D03*
%TD*%
%TO.P,MX41,1,1*%
%TO.N,COL_11*%
X261765000Y-140916250D03*
%TO.P,MX41,2,2*%
%TO.N,Net-(D41-A)*%
X268115000Y-138376250D03*
%TD*%
%TO.P,MX21,1,1*%
%TO.N,COL_6*%
X161752500Y-121866250D03*
%TO.P,MX21,2,2*%
%TO.N,Net-(D21-A)*%
X168102500Y-119326250D03*
%TD*%
%TO.P,MX56,1,1*%
%TO.N,COL_14*%
X333202500Y-159966250D03*
%TO.P,MX56,2,2*%
%TO.N,Net-(D56-A)*%
X339552500Y-157426250D03*
%TD*%
%TO.P,MX23,1,1*%
%TO.N,COL_8*%
X199852500Y-121866250D03*
%TO.P,MX23,2,2*%
%TO.N,Net-(D23-A)*%
X206202500Y-119326250D03*
%TD*%
%TO.P,MX51,1,1*%
%TO.N,COL_8*%
X214140000Y-159966250D03*
%TO.P,MX51,2,2*%
%TO.N,Net-(D51-A)*%
X220490000Y-157426250D03*
%TD*%
%TO.P,MX58,1,1*%
%TO.N,COL_2*%
X80790000Y-179016250D03*
%TO.P,MX58,2,2*%
%TO.N,Net-(D58-A)*%
X87140000Y-176476250D03*
%TD*%
%TO.P,MX40,1,1*%
%TO.N,COL_10*%
X242715000Y-140916250D03*
%TO.P,MX40,2,2*%
%TO.N,Net-(D40-A)*%
X249065000Y-138376250D03*
%TD*%
%TO.P,MX32,1,1*%
%TO.N,COL_2*%
X90315000Y-140916250D03*
%TO.P,MX32,2,2*%
%TO.N,Net-(D32-A)*%
X96665000Y-138376250D03*
%TD*%
%TO.P,MX5,1,1*%
%TO.N,COL_5*%
X133177500Y-102816250D03*
%TO.P,MX5,2,2*%
%TO.N,Net-(D5-A)*%
X139527500Y-100276250D03*
%TD*%
%TO.P,MX10,1,1*%
%TO.N,COL_10*%
X228427500Y-102816250D03*
%TO.P,MX10,2,2*%
%TO.N,Net-(D10-A)*%
X234777500Y-100276250D03*
%TD*%
%TO.P,MX66,1,1*%
%TO.N,COL_15*%
X352252500Y-179016250D03*
%TO.P,MX66,2,2*%
%TO.N,Net-(D66-A)*%
X358602500Y-176476250D03*
%TD*%
%TO.P,MX33,1,1*%
%TO.N,COL_3*%
X109365000Y-140916250D03*
%TO.P,MX33,2,2*%
%TO.N,Net-(D33-A)*%
X115715000Y-138376250D03*
%TD*%
%TO.P,MX44,1,1*%
%TO.N,COL_1*%
X68883750Y-159966250D03*
%TO.P,MX44,2,2*%
%TO.N,Net-(D44-A)*%
X75233750Y-157426250D03*
%TD*%
%TO.P,MX30,1,1*%
%TO.N,COL_15*%
X361777500Y-121866250D03*
%TO.P,MX30,2,2*%
%TO.N,Net-(D30-A)*%
X368127500Y-119326250D03*
%TD*%
%TO.P,MX12,1,1*%
%TO.N,COL_12*%
X266527500Y-102816250D03*
%TO.P,MX12,2,2*%
%TO.N,Net-(D12-A)*%
X272877500Y-100276250D03*
%TD*%
%TO.P,MX63,1,1*%
%TO.N,COL_11*%
X292721250Y-179016250D03*
%TO.P,MX63,2,2*%
%TO.N,Net-(D63-A)*%
X299071250Y-176476250D03*
%TD*%
%TO.P,MX6,1,1*%
%TO.N,COL_6*%
X152227500Y-102816250D03*
%TO.P,MX6,2,2*%
%TO.N,Net-(D6-A)*%
X158577500Y-100276250D03*
%TD*%
%TO.P,MX17,1,1*%
%TO.N,COL_2*%
X85552500Y-121866250D03*
%TO.P,MX17,2,2*%
%TO.N,Net-(D17-A)*%
X91902500Y-119326250D03*
%TD*%
%TO.P,MX54,1,1*%
%TO.N,COL_11*%
X271290000Y-159966250D03*
%TO.P,MX54,2,2*%
%TO.N,Net-(D54-A)*%
X277640000Y-157426250D03*
%TD*%
%TO.P,MX26,1,1*%
%TO.N,COL_11*%
X257002500Y-121866250D03*
%TO.P,MX26,2,2*%
%TO.N,Net-(D26-A)*%
X263352500Y-119326250D03*
%TD*%
%TO.P,MX22,1,1*%
%TO.N,COL_7*%
X180802500Y-121866250D03*
%TO.P,MX22,2,2*%
%TO.N,Net-(D22-A)*%
X187152500Y-119326250D03*
%TD*%
%TO.P,MX47,1,1*%
%TO.N,COL_4*%
X137940000Y-159966250D03*
%TO.P,MX47,2,2*%
%TO.N,Net-(D47-A)*%
X144290000Y-157426250D03*
%TD*%
%TO.P,MX13,1,1*%
%TO.N,COL_13*%
X285577500Y-102816250D03*
%TO.P,MX13,2,2*%
%TO.N,Net-(D13-A)*%
X291927500Y-100276250D03*
%TD*%
%TO.P,MX62,1,1*%
%TO.N,COL_10*%
X268908750Y-179016250D03*
%TO.P,MX62,2,2*%
%TO.N,Net-(D62-A)*%
X275258750Y-176476250D03*
%TD*%
%TO.P,MX60,1,1*%
%TO.N,COL_4*%
X173658750Y-179016250D03*
%TO.P,MX60,2,2*%
%TO.N,Net-(D60-A)*%
X180008750Y-176476250D03*
%TD*%
%TO.P,MX28,1,1*%
%TO.N,COL_13*%
X295102500Y-121866250D03*
%TO.P,MX28,2,2*%
%TO.N,Net-(D28-A)*%
X301452500Y-119326250D03*
%TD*%
%TO.P,MX45,1,1*%
%TO.N,COL_2*%
X99840000Y-159966250D03*
%TO.P,MX45,2,2*%
%TO.N,Net-(D45-A)*%
X106190000Y-157426250D03*
%TD*%
%TO.P,MX2,1,1*%
%TO.N,COL_2*%
X76027500Y-102816250D03*
%TO.P,MX2,2,2*%
%TO.N,Net-(D2-A)*%
X82377500Y-100276250D03*
%TD*%
%TO.P,MX24,1,1*%
%TO.N,COL_9*%
X218902500Y-121866250D03*
%TO.P,MX24,2,2*%
%TO.N,Net-(D24-A)*%
X225252500Y-119326250D03*
%TD*%
%TO.P,MX9,1,1*%
%TO.N,COL_9*%
X209377500Y-102816250D03*
%TO.P,MX9,2,2*%
%TO.N,Net-(D9-A)*%
X215727500Y-100276250D03*
%TD*%
%TO.P,MX57,1,1*%
%TO.N,COL_1*%
X59358750Y-179016250D03*
%TO.P,MX57,2,2*%
%TO.N,Net-(D57-A)*%
X65708750Y-176476250D03*
%TD*%
%TO.P,MX42,1,1*%
%TO.N,COL_12*%
X280815000Y-140916250D03*
%TO.P,MX42,2,2*%
%TO.N,Net-(D42-A)*%
X287165000Y-138376250D03*
%TD*%
%TO.P,MX37,1,1*%
%TO.N,COL_7*%
X185565000Y-140916250D03*
%TO.P,MX37,2,2*%
%TO.N,Net-(D37-A)*%
X191915000Y-138376250D03*
%TD*%
%TO.P,MX39,1,1*%
%TO.N,COL_9*%
X223665000Y-140916250D03*
%TO.P,MX39,2,2*%
%TO.N,Net-(D39-A)*%
X230015000Y-138376250D03*
%TD*%
D12*
%TO.P,C3,1*%
%TO.N,Net-(U3-VREG_VOUT)*%
X356530000Y-119618750D03*
%TO.P,C3,2*%
%TO.N,GND*%
X355570000Y-119618750D03*
%TD*%
D13*
%TO.P,D38,1,K*%
%TO.N,ROW_3*%
X216362500Y-145900000D03*
%TO.P,D38,2,A*%
%TO.N,Net-(D38-A)*%
X216362500Y-142600000D03*
%TD*%
D14*
%TO.P,C11,1*%
%TO.N,3v3*%
X352590000Y-119998750D03*
%TO.P,C11,2*%
%TO.N,GND*%
X353550000Y-119998750D03*
%TD*%
D13*
%TO.P,D48,1,K*%
%TO.N,ROW_4*%
X168737500Y-164950000D03*
%TO.P,D48,2,A*%
%TO.N,Net-(D48-A)*%
X168737500Y-161650000D03*
%TD*%
D15*
%TO.P,R4,1*%
%TO.N,Net-(R4-Pad1)*%
X357860714Y-147468750D03*
%TO.P,R4,2*%
%TO.N,Net-(U2-~{CS})*%
X357360714Y-147468750D03*
%TD*%
D13*
%TO.P,D52,1,K*%
%TO.N,ROW_4*%
X244937500Y-164950000D03*
%TO.P,D52,2,A*%
%TO.N,Net-(D52-A)*%
X244937500Y-161650000D03*
%TD*%
D14*
%TO.P,C14,1*%
%TO.N,3v3*%
X344720000Y-141768750D03*
%TO.P,C14,2*%
%TO.N,GND*%
X345680000Y-141768750D03*
%TD*%
D13*
%TO.P,D30,1,K*%
%TO.N,ROW_2*%
X357650000Y-126850000D03*
%TO.P,D30,2,A*%
%TO.N,Net-(D30-A)*%
X357650000Y-123550000D03*
%TD*%
D14*
%TO.P,C5,1*%
%TO.N,3v3*%
X351450000Y-118618750D03*
%TO.P,C5,2*%
%TO.N,GND*%
X352410000Y-118618750D03*
%TD*%
D13*
%TO.P,D2,1,K*%
%TO.N,ROW_1*%
X86981250Y-107800000D03*
%TO.P,D2,2,A*%
%TO.N,Net-(D2-A)*%
X86981250Y-104500000D03*
%TD*%
%TO.P,D64,1,K*%
%TO.N,ROW_5*%
X325900000Y-184000000D03*
%TO.P,D64,2,A*%
%TO.N,Net-(D64-A)*%
X325900000Y-180700000D03*
%TD*%
%TO.P,D59,1,K*%
%TO.N,ROW_5*%
X113968750Y-184000000D03*
%TO.P,D59,2,A*%
%TO.N,Net-(D59-A)*%
X113968750Y-180700000D03*
%TD*%
%TO.P,D31,1,K*%
%TO.N,ROW_3*%
X75868750Y-145900000D03*
%TO.P,D31,2,A*%
%TO.N,Net-(D31-A)*%
X75868750Y-142600000D03*
%TD*%
%TO.P,D20,1,K*%
%TO.N,ROW_2*%
X154450000Y-126850000D03*
%TO.P,D20,2,A*%
%TO.N,Net-(D20-A)*%
X154450000Y-123550000D03*
%TD*%
%TO.P,D57,1,K*%
%TO.N,ROW_5*%
X71106250Y-184000000D03*
%TO.P,D57,2,A*%
%TO.N,Net-(D57-A)*%
X71106250Y-180700000D03*
%TD*%
D16*
%TO.P,R3,1*%
%TO.N,Net-(U3-USB_DP)*%
X347950000Y-105899701D03*
%TO.P,R3,2*%
%TO.N,USB_D+*%
X347950000Y-105399701D03*
%TD*%
D13*
%TO.P,D41,1,K*%
%TO.N,ROW_3*%
X273512500Y-145900000D03*
%TO.P,D41,2,A*%
%TO.N,Net-(D41-A)*%
X273512500Y-142600000D03*
%TD*%
%TO.P,D8,1,K*%
%TO.N,ROW_1*%
X202075000Y-107800000D03*
%TO.P,D8,2,A*%
%TO.N,Net-(D8-A)*%
X202075000Y-104500000D03*
%TD*%
%TO.P,D16,1,K*%
%TO.N,ROW_2*%
X73487500Y-126850000D03*
%TO.P,D16,2,A*%
%TO.N,Net-(D16-A)*%
X73487500Y-123550000D03*
%TD*%
%TO.P,D14,1,K*%
%TO.N,ROW_1*%
X325900000Y-107800000D03*
%TO.P,D14,2,A*%
%TO.N,Net-(D14-A)*%
X325900000Y-104500000D03*
%TD*%
%TO.P,D6,1,K*%
%TO.N,ROW_1*%
X163975000Y-107800000D03*
%TO.P,D6,2,A*%
%TO.N,Net-(D6-A)*%
X163975000Y-104500000D03*
%TD*%
D14*
%TO.P,C7,1*%
%TO.N,3v3*%
X352590000Y-123218750D03*
%TO.P,C7,2*%
%TO.N,GND*%
X353550000Y-123218750D03*
%TD*%
D13*
%TO.P,D1,1,K*%
%TO.N,ROW_1*%
X68725000Y-107800000D03*
%TO.P,D1,2,A*%
%TO.N,Net-(D1-A)*%
X68725000Y-104500000D03*
%TD*%
%TO.P,D4,1,K*%
%TO.N,ROW_1*%
X125875000Y-107800000D03*
%TO.P,D4,2,A*%
%TO.N,Net-(D4-A)*%
X125875000Y-104500000D03*
%TD*%
%TO.P,D39,1,K*%
%TO.N,ROW_3*%
X236206250Y-145900000D03*
%TO.P,D39,2,A*%
%TO.N,Net-(D39-A)*%
X236206250Y-142600000D03*
%TD*%
%TO.P,D35,1,K*%
%TO.N,ROW_3*%
X159212500Y-145900000D03*
%TO.P,D35,2,A*%
%TO.N,Net-(D35-A)*%
X159212500Y-142600000D03*
%TD*%
D17*
%TO.P,Y1,1,1*%
%TO.N,Net-(C16-Pad2)*%
X349050000Y-111618750D03*
%TO.P,Y1,2,2*%
%TO.N,GND*%
X346850000Y-111618750D03*
%TO.P,Y1,3,3*%
%TO.N,Net-(U3-XIN)*%
X346850000Y-109918750D03*
%TO.P,Y1,4,4*%
%TO.N,GND*%
X349050000Y-109918750D03*
%TD*%
D14*
%TO.P,C12,1*%
%TO.N,Net-(U3-VREG_VOUT)*%
X349570000Y-124218750D03*
%TO.P,C12,2*%
%TO.N,GND*%
X350530000Y-124218750D03*
%TD*%
D13*
%TO.P,D17,1,K*%
%TO.N,ROW_2*%
X97300000Y-126850000D03*
%TO.P,D17,2,A*%
%TO.N,Net-(D17-A)*%
X97300000Y-123550000D03*
%TD*%
%TO.P,D37,1,K*%
%TO.N,ROW_3*%
X197312500Y-145900000D03*
%TO.P,D37,2,A*%
%TO.N,Net-(D37-A)*%
X197312500Y-142600000D03*
%TD*%
%TO.P,D22,1,K*%
%TO.N,ROW_2*%
X192550000Y-126850000D03*
%TO.P,D22,2,A*%
%TO.N,Net-(D22-A)*%
X192550000Y-123550000D03*
%TD*%
%TO.P,D43,1,K*%
%TO.N,ROW_3*%
X333837500Y-145900000D03*
%TO.P,D43,2,A*%
%TO.N,Net-(D43-A)*%
X333837500Y-142600000D03*
%TD*%
D14*
%TO.P,C8,1*%
%TO.N,3v3*%
X352590000Y-124418750D03*
%TO.P,C8,2*%
%TO.N,GND*%
X353550000Y-124418750D03*
%TD*%
D13*
%TO.P,D29,1,K*%
%TO.N,ROW_2*%
X330662500Y-126850000D03*
%TO.P,D29,2,A*%
%TO.N,Net-(D29-A)*%
X330662500Y-123550000D03*
%TD*%
%TO.P,D63,1,K*%
%TO.N,ROW_5*%
X304468750Y-184000000D03*
%TO.P,D63,2,A*%
%TO.N,Net-(D63-A)*%
X304468750Y-180700000D03*
%TD*%
D15*
%TO.P,R1,1*%
%TO.N,Net-(J1-CC1)*%
X344950000Y-105768750D03*
%TO.P,R1,2*%
%TO.N,GND*%
X344450000Y-105768750D03*
%TD*%
D13*
%TO.P,D60,1,K*%
%TO.N,ROW_5*%
X185406250Y-184000000D03*
%TO.P,D60,2,A*%
%TO.N,Net-(D60-A)*%
X185406250Y-180700000D03*
%TD*%
%TO.P,D51,1,K*%
%TO.N,ROW_4*%
X225887500Y-164950000D03*
%TO.P,D51,2,A*%
%TO.N,Net-(D51-A)*%
X225887500Y-161650000D03*
%TD*%
%TO.P,D3,1,K*%
%TO.N,ROW_1*%
X106825000Y-107800000D03*
%TO.P,D3,2,A*%
%TO.N,Net-(D3-A)*%
X106825000Y-104500000D03*
%TD*%
%TO.P,D44,1,K*%
%TO.N,ROW_4*%
X90950000Y-164950000D03*
%TO.P,D44,2,A*%
%TO.N,Net-(D44-A)*%
X90950000Y-161650000D03*
%TD*%
%TO.P,D47,1,K*%
%TO.N,ROW_4*%
X149687500Y-164950000D03*
%TO.P,D47,2,A*%
%TO.N,Net-(D47-A)*%
X149687500Y-161650000D03*
%TD*%
D12*
%TO.P,C4,1*%
%TO.N,Net-(U3-VREG_VOUT)*%
X356530000Y-120868750D03*
%TO.P,C4,2*%
%TO.N,GND*%
X355570000Y-120868750D03*
%TD*%
D13*
%TO.P,D40,1,K*%
%TO.N,ROW_3*%
X254462500Y-145900000D03*
%TO.P,D40,2,A*%
%TO.N,Net-(D40-A)*%
X254462500Y-142600000D03*
%TD*%
%TO.P,D56,1,K*%
%TO.N,ROW_4*%
X344950000Y-164950000D03*
%TO.P,D56,2,A*%
%TO.N,Net-(D56-A)*%
X344950000Y-161650000D03*
%TD*%
D12*
%TO.P,C15,1*%
%TO.N,GND*%
X345200000Y-111018750D03*
%TO.P,C15,2*%
%TO.N,Net-(U3-XIN)*%
X344240000Y-111018750D03*
%TD*%
D14*
%TO.P,C9,1*%
%TO.N,3v3*%
X352590000Y-125618750D03*
%TO.P,C9,2*%
%TO.N,GND*%
X353550000Y-125618750D03*
%TD*%
D13*
%TO.P,D54,1,K*%
%TO.N,ROW_4*%
X283037500Y-164950000D03*
%TO.P,D54,2,A*%
%TO.N,Net-(D54-A)*%
X283037500Y-161650000D03*
%TD*%
%TO.P,D49,1,K*%
%TO.N,ROW_4*%
X187787500Y-164950000D03*
%TO.P,D49,2,A*%
%TO.N,Net-(D49-A)*%
X187787500Y-161650000D03*
%TD*%
%TO.P,D25,1,K*%
%TO.N,ROW_2*%
X249700000Y-126850000D03*
%TO.P,D25,2,A*%
%TO.N,Net-(D25-A)*%
X249700000Y-123550000D03*
%TD*%
%TO.P,D21,1,K*%
%TO.N,ROW_2*%
X173500000Y-126850000D03*
%TO.P,D21,2,A*%
%TO.N,Net-(D21-A)*%
X173500000Y-123550000D03*
%TD*%
D12*
%TO.P,C1,1*%
%TO.N,Net-(U1-VI)*%
X338930000Y-97518750D03*
%TO.P,C1,2*%
%TO.N,GND*%
X337970000Y-97518750D03*
%TD*%
D14*
%TO.P,C10,1*%
%TO.N,3v3*%
X352590000Y-121098750D03*
%TO.P,C10,2*%
%TO.N,GND*%
X353550000Y-121098750D03*
%TD*%
D13*
%TO.P,D28,1,K*%
%TO.N,ROW_2*%
X306850000Y-126850000D03*
%TO.P,D28,2,A*%
%TO.N,Net-(D28-A)*%
X306850000Y-123550000D03*
%TD*%
%TO.P,D24,1,K*%
%TO.N,ROW_2*%
X230650000Y-126850000D03*
%TO.P,D24,2,A*%
%TO.N,Net-(D24-A)*%
X230650000Y-123550000D03*
%TD*%
D18*
%TO.P,C2,1*%
%TO.N,3v3*%
X331850000Y-103498750D03*
%TO.P,C2,2*%
%TO.N,GND*%
X331850000Y-102538750D03*
%TD*%
D19*
%TO.P,U3,1,IOVDD*%
%TO.N,3v3*%
X343175000Y-121618750D03*
%TO.P,U3,2,GPIO0*%
%TO.N,COL_7*%
X343175000Y-121218750D03*
%TO.P,U3,3,GPIO1*%
%TO.N,COL_6*%
X343175000Y-120818750D03*
%TO.P,U3,4,GPIO2*%
%TO.N,COL_5*%
X343175000Y-120418750D03*
%TO.P,U3,5,GPIO3*%
%TO.N,COL_4*%
X343175000Y-120018750D03*
%TO.P,U3,6,GPIO4*%
%TO.N,COL_3*%
X343175000Y-119618750D03*
%TO.P,U3,7,GPIO5*%
%TO.N,COL_2*%
X343175000Y-119218750D03*
%TO.P,U3,8,GPIO6*%
%TO.N,COL_1*%
X343175000Y-118818750D03*
%TO.P,U3,9,GPIO7*%
%TO.N,ROW_5*%
X343175000Y-118418750D03*
%TO.P,U3,10,IOVDD*%
%TO.N,3v3*%
X343175000Y-118018750D03*
%TO.P,U3,11,GPIO8*%
%TO.N,COL_15*%
X343175000Y-117618750D03*
%TO.P,U3,12,GPIO9*%
%TO.N,COL_14*%
X343175000Y-117218750D03*
%TO.P,U3,13,GPIO10*%
%TO.N,COL_12*%
X343175000Y-116818750D03*
%TO.P,U3,14,GPIO11*%
%TO.N,COL_11*%
X343175000Y-116418750D03*
D20*
%TO.P,U3,15,GPIO12*%
%TO.N,COL_10*%
X344012500Y-115581250D03*
%TO.P,U3,16,GPIO13*%
%TO.N,COL_9*%
X344412500Y-115581250D03*
%TO.P,U3,17,GPIO14*%
%TO.N,ROW_4*%
X344812500Y-115581250D03*
%TO.P,U3,18,GPIO15*%
%TO.N,COL_8*%
X345212500Y-115581250D03*
%TO.P,U3,19,TESTEN*%
%TO.N,GND*%
X345612500Y-115581250D03*
%TO.P,U3,20,XIN*%
%TO.N,Net-(U3-XIN)*%
X346012500Y-115581250D03*
%TO.P,U3,21,XOUT*%
%TO.N,Net-(U3-XOUT)*%
X346412500Y-115581250D03*
%TO.P,U3,22,IOVDD*%
%TO.N,3v3*%
X346812500Y-115581250D03*
%TO.P,U3,23,DVDD*%
%TO.N,Net-(U3-VREG_VOUT)*%
X347212500Y-115581250D03*
%TO.P,U3,24,SWCLK*%
%TO.N,unconnected-(U3-SWCLK-Pad24)*%
X347612500Y-115581250D03*
%TO.P,U3,25,SWD*%
%TO.N,unconnected-(U3-SWD-Pad25)*%
X348012500Y-115581250D03*
%TO.P,U3,26,RUN*%
%TO.N,Net-(U3-RUN)*%
X348412500Y-115581250D03*
%TO.P,U3,27,GPIO16*%
%TO.N,ROW_3*%
X348812500Y-115581250D03*
%TO.P,U3,28,GPIO17*%
%TO.N,COL_13*%
X349212500Y-115581250D03*
D19*
%TO.P,U3,29,GPIO18*%
%TO.N,ROW_2*%
X350050000Y-116418750D03*
%TO.P,U3,30,GPIO19*%
%TO.N,ROW_1*%
X350050000Y-116818750D03*
%TO.P,U3,31,GPIO20*%
%TO.N,unconnected-(U3-GPIO20-Pad31)*%
X350050000Y-117218750D03*
%TO.P,U3,32,GPIO21*%
%TO.N,unconnected-(U3-GPIO21-Pad32)*%
X350050000Y-117618750D03*
%TO.P,U3,33,IOVDD*%
%TO.N,3v3*%
X350050000Y-118018750D03*
%TO.P,U3,34,GPIO22*%
%TO.N,unconnected-(U3-GPIO22-Pad34)*%
X350050000Y-118418750D03*
%TO.P,U3,35,GPIO23*%
%TO.N,unconnected-(U3-GPIO23-Pad35)*%
X350050000Y-118818750D03*
%TO.P,U3,36,GPIO24*%
%TO.N,unconnected-(U3-GPIO24-Pad36)*%
X350050000Y-119218750D03*
%TO.P,U3,37,GPIO25*%
%TO.N,unconnected-(U3-GPIO25-Pad37)*%
X350050000Y-119618750D03*
%TO.P,U3,38,GPIO26_ADC0*%
%TO.N,unconnected-(U3-GPIO26_ADC0-Pad38)*%
X350050000Y-120018750D03*
%TO.P,U3,39,GPIO27_ADC1*%
%TO.N,unconnected-(U3-GPIO27_ADC1-Pad39)*%
X350050000Y-120418750D03*
%TO.P,U3,40,GPIO28_ADC2*%
%TO.N,unconnected-(U3-GPIO28_ADC2-Pad40)*%
X350050000Y-120818750D03*
%TO.P,U3,41,GPIO29_ADC3*%
%TO.N,unconnected-(U3-GPIO29_ADC3-Pad41)*%
X350050000Y-121218750D03*
%TO.P,U3,42,IOVDD*%
%TO.N,3v3*%
X350050000Y-121618750D03*
D20*
%TO.P,U3,43,ADC_AVDD*%
X349212500Y-122456250D03*
%TO.P,U3,44,VREG_IN*%
X348812500Y-122456250D03*
%TO.P,U3,45,VREG_VOUT*%
%TO.N,Net-(U3-VREG_VOUT)*%
X348412500Y-122456250D03*
%TO.P,U3,46,USB_DM*%
%TO.N,Net-(U3-USB_DM)*%
X348012500Y-122456250D03*
%TO.P,U3,47,USB_DP*%
%TO.N,Net-(U3-USB_DP)*%
X347612500Y-122456250D03*
%TO.P,U3,48,USB_VDD*%
%TO.N,3v3*%
X347212500Y-122456250D03*
%TO.P,U3,49,IOVDD*%
X346812500Y-122456250D03*
%TO.P,U3,50,DVDD*%
%TO.N,Net-(U3-VREG_VOUT)*%
X346412500Y-122456250D03*
%TO.P,U3,51,QSPI_SD3*%
%TO.N,Net-(U2-IO3)*%
X346012500Y-122456250D03*
%TO.P,U3,52,QSPI_SCLK*%
%TO.N,Net-(U2-CLK)*%
X345612500Y-122456250D03*
%TO.P,U3,53,QSPI_SD0*%
%TO.N,Net-(U2-DI(IO0))*%
X345212500Y-122456250D03*
%TO.P,U3,54,QSPI_SD2*%
%TO.N,Net-(U2-IO2)*%
X344812500Y-122456250D03*
%TO.P,U3,55,QSPI_SD1*%
%TO.N,Net-(U2-DO(IO1))*%
X344412500Y-122456250D03*
%TO.P,U3,56,QSPI_SS*%
%TO.N,Net-(U2-~{CS})*%
X344012500Y-122456250D03*
D21*
%TO.P,U3,57,GND*%
%TO.N,GND*%
X345337500Y-117743750D03*
X345337500Y-119018750D03*
X345337500Y-120293750D03*
X346612500Y-117743750D03*
X346612500Y-119018750D03*
D22*
X346612500Y-119018750D03*
D21*
X346612500Y-120293750D03*
X347887500Y-117743750D03*
X347887500Y-119018750D03*
X347887500Y-120293750D03*
%TD*%
D13*
%TO.P,D53,1,K*%
%TO.N,ROW_4*%
X263987500Y-164950000D03*
%TO.P,D53,2,A*%
%TO.N,Net-(D53-A)*%
X263987500Y-161650000D03*
%TD*%
D16*
%TO.P,R5,1*%
%TO.N,Net-(U3-USB_DM)*%
X346700000Y-105903074D03*
%TO.P,R5,2*%
%TO.N,USB_D-*%
X346700000Y-105403074D03*
%TD*%
D23*
%TO.P,R2,1*%
%TO.N,Net-(J1-CC2)*%
X349200000Y-105518750D03*
%TO.P,R2,2*%
%TO.N,GND*%
X349700000Y-105518750D03*
%TD*%
D13*
%TO.P,D26,1,K*%
%TO.N,ROW_2*%
X268750000Y-126850000D03*
%TO.P,D26,2,A*%
%TO.N,Net-(D26-A)*%
X268750000Y-123550000D03*
%TD*%
%TO.P,D45,1,K*%
%TO.N,ROW_4*%
X111587500Y-164950000D03*
%TO.P,D45,2,A*%
%TO.N,Net-(D45-A)*%
X111587500Y-161650000D03*
%TD*%
%TO.P,D55,1,K*%
%TO.N,ROW_4*%
X324312500Y-164950000D03*
%TO.P,D55,2,A*%
%TO.N,Net-(D55-A)*%
X324312500Y-161650000D03*
%TD*%
%TO.P,D33,1,K*%
%TO.N,ROW_3*%
X121112500Y-145900000D03*
%TO.P,D33,2,A*%
%TO.N,Net-(D33-A)*%
X121112500Y-142600000D03*
%TD*%
D24*
%TO.P,SW2,1,1*%
%TO.N,GND*%
X368450000Y-140468750D03*
X361950000Y-140468750D03*
%TO.P,SW2,2,2*%
%TO.N,Net-(U3-RUN)*%
X368450000Y-144968750D03*
X361950000Y-144968750D03*
%TD*%
D25*
%TO.P,C13,1*%
%TO.N,3v3*%
X351450000Y-122338750D03*
%TO.P,C13,2*%
%TO.N,GND*%
X351450000Y-123298750D03*
%TD*%
D13*
%TO.P,D9,1,K*%
%TO.N,ROW_1*%
X221125000Y-107800000D03*
%TO.P,D9,2,A*%
%TO.N,Net-(D9-A)*%
X221125000Y-104500000D03*
%TD*%
D15*
%TO.P,R8,1*%
%TO.N,3v3*%
X343700000Y-141118750D03*
%TO.P,R8,2*%
%TO.N,Net-(U3-RUN)*%
X343200000Y-141118750D03*
%TD*%
D13*
%TO.P,D65,1,K*%
%TO.N,ROW_5*%
X344950000Y-184000000D03*
%TO.P,D65,2,A*%
%TO.N,Net-(D65-A)*%
X344950000Y-180700000D03*
%TD*%
%TO.P,D32,1,K*%
%TO.N,ROW_3*%
X102062500Y-145900000D03*
%TO.P,D32,2,A*%
%TO.N,Net-(D32-A)*%
X102062500Y-142600000D03*
%TD*%
%TO.P,D50,1,K*%
%TO.N,ROW_4*%
X206837500Y-164950000D03*
%TO.P,D50,2,A*%
%TO.N,Net-(D50-A)*%
X206837500Y-161650000D03*
%TD*%
%TO.P,D66,1,K*%
%TO.N,ROW_5*%
X364000000Y-184000000D03*
%TO.P,D66,2,A*%
%TO.N,Net-(D66-A)*%
X364000000Y-180700000D03*
%TD*%
%TO.P,D15,1,K*%
%TO.N,ROW_1*%
X357650000Y-107800000D03*
%TO.P,D15,2,A*%
%TO.N,Net-(D15-A)*%
X357650000Y-104500000D03*
%TD*%
%TO.P,D27,1,K*%
%TO.N,ROW_2*%
X287800000Y-126850000D03*
%TO.P,D27,2,A*%
%TO.N,Net-(D27-A)*%
X287800000Y-123550000D03*
%TD*%
%TO.P,D7,1,K*%
%TO.N,ROW_1*%
X183025000Y-107800000D03*
%TO.P,D7,2,A*%
%TO.N,Net-(D7-A)*%
X183025000Y-104500000D03*
%TD*%
D24*
%TO.P,SW1,1,1*%
%TO.N,GND*%
X354450000Y-140518750D03*
X347950000Y-140518750D03*
%TO.P,SW1,2,2*%
%TO.N,Net-(R4-Pad1)*%
X354450000Y-145018750D03*
X347950000Y-145018750D03*
%TD*%
D13*
%TO.P,D10,1,K*%
%TO.N,ROW_1*%
X240175000Y-107800000D03*
%TO.P,D10,2,A*%
%TO.N,Net-(D10-A)*%
X240175000Y-104500000D03*
%TD*%
D25*
%TO.P,C16,1*%
%TO.N,GND*%
X352050000Y-110938750D03*
%TO.P,C16,2*%
%TO.N,Net-(C16-Pad2)*%
X352050000Y-111898750D03*
%TD*%
D13*
%TO.P,D18,1,K*%
%TO.N,ROW_2*%
X116350000Y-126850000D03*
%TO.P,D18,2,A*%
%TO.N,Net-(D18-A)*%
X116350000Y-123550000D03*
%TD*%
%TO.P,D61,1,K*%
%TO.N,ROW_5*%
X256843750Y-184000000D03*
%TO.P,D61,2,A*%
%TO.N,Net-(D61-A)*%
X256843750Y-180700000D03*
%TD*%
%TO.P,D34,1,K*%
%TO.N,ROW_3*%
X140162500Y-145900000D03*
%TO.P,D34,2,A*%
%TO.N,Net-(D34-A)*%
X140162500Y-142600000D03*
%TD*%
D26*
%TO.P,U1,1,GND*%
%TO.N,GND*%
X334650000Y-99618750D03*
%TO.P,U1,2,VO*%
%TO.N,3v3*%
X336950000Y-99618750D03*
D27*
X336950000Y-105918750D03*
D26*
%TO.P,U1,3,VI*%
%TO.N,Net-(U1-VI)*%
X339250000Y-99618750D03*
%TD*%
D13*
%TO.P,D23,1,K*%
%TO.N,ROW_2*%
X211600000Y-126850000D03*
%TO.P,D23,2,A*%
%TO.N,Net-(D23-A)*%
X211600000Y-123550000D03*
%TD*%
%TO.P,D58,1,K*%
%TO.N,ROW_5*%
X92537500Y-184000000D03*
%TO.P,D58,2,A*%
%TO.N,Net-(D58-A)*%
X92537500Y-180700000D03*
%TD*%
%TO.P,D36,1,K*%
%TO.N,ROW_3*%
X178262500Y-145900000D03*
%TO.P,D36,2,A*%
%TO.N,Net-(D36-A)*%
X178262500Y-142600000D03*
%TD*%
%TO.P,D62,1,K*%
%TO.N,ROW_5*%
X280656250Y-184000000D03*
%TO.P,D62,2,A*%
%TO.N,Net-(D62-A)*%
X280656250Y-180700000D03*
%TD*%
%TO.P,D46,1,K*%
%TO.N,ROW_4*%
X130637500Y-164950000D03*
%TO.P,D46,2,A*%
%TO.N,Net-(D46-A)*%
X130637500Y-161650000D03*
%TD*%
D28*
%TO.P,U2,1,~{CS}*%
%TO.N,Net-(U2-~{CS})*%
X342345000Y-127168750D03*
%TO.P,U2,2,DO(IO1)*%
%TO.N,Net-(U2-DO(IO1))*%
X343615000Y-127168750D03*
%TO.P,U2,3,IO2*%
%TO.N,Net-(U2-IO2)*%
X344885000Y-127168750D03*
%TO.P,U2,4,GND*%
%TO.N,GND*%
X346155000Y-127168750D03*
%TO.P,U2,5,DI(IO0)*%
%TO.N,Net-(U2-DI(IO0))*%
X346155000Y-134368750D03*
%TO.P,U2,6,CLK*%
%TO.N,Net-(U2-CLK)*%
X344885000Y-134368750D03*
%TO.P,U2,7,IO3*%
%TO.N,Net-(U2-IO3)*%
X343615000Y-134368750D03*
%TO.P,U2,8,VCC*%
%TO.N,3v3*%
X342345000Y-134368750D03*
%TD*%
D13*
%TO.P,D11,1,K*%
%TO.N,ROW_1*%
X259225000Y-107800000D03*
%TO.P,D11,2,A*%
%TO.N,Net-(D11-A)*%
X259225000Y-104500000D03*
%TD*%
%TO.P,D19,1,K*%
%TO.N,ROW_2*%
X135400000Y-126850000D03*
%TO.P,D19,2,A*%
%TO.N,Net-(D19-A)*%
X135400000Y-123550000D03*
%TD*%
%TO.P,D5,1,K*%
%TO.N,ROW_1*%
X144925000Y-107800000D03*
%TO.P,D5,2,A*%
%TO.N,Net-(D5-A)*%
X144925000Y-104500000D03*
%TD*%
D15*
%TO.P,R6,1*%
%TO.N,3v3*%
X344925000Y-138518750D03*
%TO.P,R6,2*%
%TO.N,Net-(U2-~{CS})*%
X344425000Y-138518750D03*
%TD*%
D13*
%TO.P,D13,1,K*%
%TO.N,ROW_1*%
X297325000Y-107800000D03*
%TO.P,D13,2,A*%
%TO.N,Net-(D13-A)*%
X297325000Y-104500000D03*
%TD*%
D15*
%TO.P,R7,1*%
%TO.N,Net-(C16-Pad2)*%
X346950000Y-113018750D03*
%TO.P,R7,2*%
%TO.N,Net-(U3-XOUT)*%
X346450000Y-113018750D03*
%TD*%
D13*
%TO.P,D42,1,K*%
%TO.N,ROW_3*%
X292562500Y-145900000D03*
%TO.P,D42,2,A*%
%TO.N,Net-(D42-A)*%
X292562500Y-142600000D03*
%TD*%
D29*
%TO.P,J1,A1,GND*%
%TO.N,GND*%
X343638750Y-103307500D03*
%TO.P,J1,A4,VBUS*%
%TO.N,Net-(U1-VI)*%
X344438750Y-103307500D03*
D30*
%TO.P,J1,A5,CC1*%
%TO.N,Net-(J1-CC1)*%
X345638750Y-103307500D03*
%TO.P,J1,A6,D+*%
%TO.N,USB_D+*%
X346638750Y-103307500D03*
%TO.P,J1,A7,D-*%
%TO.N,USB_D-*%
X347138750Y-103307500D03*
%TO.P,J1,A8*%
%TO.N,N/C*%
X348138750Y-103307500D03*
D29*
%TO.P,J1,A9,VBUS*%
%TO.N,Net-(U1-VI)*%
X349338750Y-103307500D03*
%TO.P,J1,A12,GND*%
%TO.N,GND*%
X350138750Y-103307500D03*
%TO.P,J1,B1,GND*%
X350138750Y-103307500D03*
%TO.P,J1,B4,VBUS*%
%TO.N,Net-(U1-VI)*%
X349338750Y-103307500D03*
D30*
%TO.P,J1,B5,CC2*%
%TO.N,Net-(J1-CC2)*%
X348638750Y-103307500D03*
%TO.P,J1,B6,D+*%
%TO.N,USB_D+*%
X347638750Y-103307500D03*
%TO.P,J1,B7,D-*%
%TO.N,USB_D-*%
X346138750Y-103307500D03*
%TO.P,J1,B8*%
%TO.N,N/C*%
X345138750Y-103307500D03*
D29*
%TO.P,J1,B9,VBUS*%
%TO.N,Net-(U1-VI)*%
X344438750Y-103307500D03*
%TO.P,J1,B12,GND*%
%TO.N,GND*%
X343638750Y-103307500D03*
D31*
%TO.P,J1,S1,SHIELD*%
X342568750Y-98212500D03*
D32*
X342568750Y-102392500D03*
D31*
X351208750Y-98212500D03*
D32*
X351208750Y-102392500D03*
%TD*%
D13*
%TO.P,D12,1,K*%
%TO.N,ROW_1*%
X278275000Y-107800000D03*
%TO.P,D12,2,A*%
%TO.N,Net-(D12-A)*%
X278275000Y-104500000D03*
%TD*%
D14*
%TO.P,C6,1*%
%TO.N,3v3*%
X352590000Y-122018750D03*
%TO.P,C6,2*%
%TO.N,GND*%
X353550000Y-122018750D03*
%TD*%
D33*
%TO.N,GND*%
X344950000Y-98268750D03*
X344200000Y-104768750D03*
X344950000Y-110018750D03*
X352450000Y-117518750D03*
X351450000Y-138518750D03*
X347650000Y-129618750D03*
X350749289Y-110004030D03*
X349200000Y-107268750D03*
X344250000Y-112868750D03*
X344700000Y-107018750D03*
%TO.N,Net-(U1-VI)*%
X345700000Y-101018750D03*
X348450000Y-101018750D03*
%TO.N,Net-(U3-VREG_VOUT)*%
X352450000Y-127518750D03*
X351158795Y-112709955D03*
X346700000Y-124268750D03*
%TO.N,ROW_1*%
X357200000Y-116268750D03*
X357650000Y-109418750D03*
%TO.N,COL_1*%
X57200000Y-113018750D03*
%TO.N,COL_2*%
X76325000Y-113643750D03*
%TO.N,COL_3*%
X96200000Y-114018750D03*
%TO.N,COL_4*%
X115450000Y-114518750D03*
%TO.N,COL_5*%
X133950000Y-115018750D03*
%TO.N,COL_6*%
X155700000Y-115268750D03*
%TO.N,COL_7*%
X174950000Y-115668750D03*
%TO.N,COL_8*%
X193493750Y-109475000D03*
X340950000Y-109568750D03*
X342050000Y-112268750D03*
%TO.N,COL_9*%
X340700000Y-110518750D03*
X210450000Y-110118750D03*
X341450000Y-113518750D03*
%TO.N,COL_10*%
X334450000Y-115268750D03*
X239200000Y-133018750D03*
X333700000Y-133018750D03*
%TO.N,COL_11*%
X334450000Y-133518750D03*
X334950000Y-117018750D03*
X258200000Y-133618750D03*
%TO.N,COL_12*%
X335950000Y-117268750D03*
X277200000Y-134018750D03*
X335450000Y-133768750D03*
%TO.N,COL_13*%
X332950000Y-132519670D03*
X305818750Y-132418750D03*
X334700000Y-112768750D03*
%TO.N,COL_14*%
X332200000Y-116018750D03*
X332350000Y-131953463D03*
X323200000Y-132018750D03*
%TO.N,COL_15*%
X340850000Y-137418750D03*
X339250000Y-117818750D03*
%TO.N,Net-(U3-USB_DP)*%
X347450000Y-106668750D03*
X354950000Y-128094053D03*
%TO.N,Net-(U2-~{CS})*%
X341050000Y-127218750D03*
X341925000Y-143518750D03*
%TO.N,Net-(U3-USB_DM)*%
X354150000Y-128018750D03*
X345958060Y-106660690D03*
%TO.N,Net-(U3-RUN)*%
X343450000Y-139218750D03*
X343950000Y-148268750D03*
X348351471Y-114367279D03*
X343950000Y-143268750D03*
%TO.N,ROW_5*%
X338350000Y-118018750D03*
X347950000Y-183768750D03*
%TO.N,ROW_3*%
X339384313Y-113203063D03*
X338200000Y-145518750D03*
%TO.N,ROW_4*%
X339950000Y-113768750D03*
X347950000Y-164518750D03*
%TO.N,3v3*%
X341350000Y-122118750D03*
X349450000Y-131018750D03*
X352500000Y-135518750D03*
X347200000Y-113768750D03*
X341605619Y-117763131D03*
X341200000Y-107018750D03*
X351450000Y-120418750D03*
X349634506Y-127611246D03*
%TO.N,ROW_2*%
X355450000Y-128718750D03*
X355200000Y-116018750D03*
%TD*%
D34*
%TO.N,GND*%
X344700000Y-107018750D02*
X345083795Y-106634955D01*
X350138750Y-105080000D02*
X349700000Y-105518750D01*
X351684009Y-110938750D02*
X350749289Y-110004030D01*
X344250000Y-112868750D02*
X344800000Y-112868750D01*
X345680000Y-141768750D02*
X346700000Y-141768750D01*
X349050000Y-109918750D02*
X350600000Y-109918750D01*
X352450000Y-117518750D02*
X352450000Y-118578750D01*
X351350000Y-123218750D02*
X351250000Y-123318750D01*
X351190000Y-124218750D02*
X351450000Y-124478750D01*
X331850000Y-102418750D02*
X334650000Y-99618750D01*
X334650000Y-99618750D02*
X334650000Y-98318750D01*
X354800000Y-138518750D02*
X361700000Y-138518750D01*
X345006250Y-98212500D02*
X351208750Y-98212500D01*
X352050000Y-110938750D02*
X351684009Y-110938750D01*
X344893750Y-98212500D02*
X342568750Y-98212500D01*
X345612500Y-113681250D02*
X345612500Y-115581250D01*
X351850000Y-124878750D02*
X351850000Y-126518750D01*
X337950000Y-97518750D02*
X337200000Y-96768750D01*
X349700000Y-105751160D02*
X349700000Y-105518750D01*
X345337500Y-117743750D02*
X345612500Y-117468750D01*
X351400000Y-138568750D02*
X351450000Y-138518750D01*
X344200000Y-104768750D02*
X344200000Y-104793750D01*
X350530000Y-124218750D02*
X351190000Y-124218750D01*
X351450000Y-124478750D02*
X351450000Y-123298750D01*
X347650000Y-129618750D02*
X347850000Y-129418750D01*
X368450000Y-138768750D02*
X368450000Y-140468750D01*
X354500000Y-138818750D02*
X354500000Y-140468750D01*
X347850000Y-129418750D02*
X347850000Y-128618750D01*
X345200000Y-111018750D02*
X345800000Y-111618750D01*
X344450000Y-105043750D02*
X344450000Y-105768750D01*
X350138750Y-103307500D02*
X350138750Y-105080000D01*
X344450000Y-105768750D02*
X344450000Y-106001160D01*
X345083795Y-106634955D02*
X345717590Y-107268750D01*
X361950000Y-138768750D02*
X361950000Y-140468750D01*
X352410000Y-117558750D02*
X352450000Y-117518750D01*
X334650000Y-98318750D02*
X336200000Y-96768750D01*
X352450000Y-118578750D02*
X352410000Y-118618750D01*
X351850000Y-124878750D02*
X351450000Y-124478750D01*
X344950000Y-98268750D02*
X345006250Y-98212500D01*
X361700000Y-138518750D02*
X361950000Y-138768750D01*
X353550000Y-126718750D02*
X353550000Y-125618750D01*
X351500000Y-138568750D02*
X354250000Y-138568750D01*
X354250000Y-138568750D02*
X354500000Y-138818750D01*
X344950000Y-98268750D02*
X344893750Y-98212500D01*
X354550000Y-119618750D02*
X355570000Y-119618750D01*
X350138750Y-103307500D02*
X350293750Y-103307500D01*
X355570000Y-120868750D02*
X355570000Y-119618750D01*
X353550000Y-121098750D02*
X353550000Y-119998750D01*
X352450000Y-117518750D02*
X354550000Y-119618750D01*
X350293750Y-103307500D02*
X351208750Y-102392500D01*
X343483750Y-103307500D02*
X342568750Y-102392500D01*
X354170000Y-119998750D02*
X354550000Y-119618750D01*
X337200000Y-96768750D02*
X341125000Y-96768750D01*
X353550000Y-125618750D02*
X353550000Y-121098750D01*
X350600000Y-109918750D02*
X350700000Y-110018750D01*
X336200000Y-96768750D02*
X337200000Y-96768750D01*
X344175000Y-104768750D02*
X344200000Y-104768750D01*
X344450000Y-106001160D02*
X345083795Y-106634955D01*
X341125000Y-96768750D02*
X342568750Y-98212500D01*
X353550000Y-119998750D02*
X354170000Y-119998750D01*
X361950000Y-138768750D02*
X362200000Y-138518750D01*
X345717590Y-107268750D02*
X348182410Y-107268750D01*
X354500000Y-138818750D02*
X354800000Y-138518750D01*
X337970000Y-97518750D02*
X337950000Y-97518750D01*
X344800000Y-112868750D02*
X345612500Y-113681250D01*
X347850000Y-128618750D02*
X346400000Y-127168750D01*
X343638750Y-104232500D02*
X344175000Y-104768750D01*
X345200000Y-110268750D02*
X344950000Y-110018750D01*
X331850000Y-102538750D02*
X331850000Y-102418750D01*
X349200000Y-107268750D02*
X348182410Y-107268750D01*
X345612500Y-117468750D02*
X345612500Y-115581250D01*
X348000000Y-140468750D02*
X348000000Y-139068750D01*
X346700000Y-141768750D02*
X347950000Y-140518750D01*
X343638750Y-104232500D02*
X343638750Y-103307500D01*
X351450000Y-138518750D02*
X351500000Y-138568750D01*
X352250000Y-126918750D02*
X353350000Y-126918750D01*
X362200000Y-138518750D02*
X368200000Y-138518750D01*
X351850000Y-126518750D02*
X352250000Y-126918750D01*
X348500000Y-138568750D02*
X351400000Y-138568750D01*
X353350000Y-126918750D02*
X353550000Y-126718750D01*
X345200000Y-111018750D02*
X345200000Y-110268750D01*
X368200000Y-138518750D02*
X368450000Y-138768750D01*
X345800000Y-111618750D02*
X346850000Y-111618750D01*
X348000000Y-139068750D02*
X348500000Y-138568750D01*
X343638750Y-103307500D02*
X343483750Y-103307500D01*
X348182410Y-107268750D02*
X349700000Y-105751160D01*
X346400000Y-127168750D02*
X346155000Y-127168750D01*
X344200000Y-104793750D02*
X344450000Y-105043750D01*
%TO.N,Net-(U1-VI)*%
X344300000Y-99618750D02*
X345700000Y-101018750D01*
X344438750Y-102382500D02*
X344438750Y-103307500D01*
X345700000Y-101121250D02*
X344438750Y-102382500D01*
X339250000Y-99618750D02*
X344300000Y-99618750D01*
X345700000Y-101018750D02*
X345700000Y-101121250D01*
X348450000Y-101018750D02*
X348450000Y-101488344D01*
X349338750Y-102377094D02*
X349338750Y-103307500D01*
X348450000Y-101488344D02*
X349338750Y-102377094D01*
X338930000Y-97518750D02*
X338930000Y-99298750D01*
X338930000Y-99298750D02*
X339250000Y-99618750D01*
%TO.N,Net-(U3-VREG_VOUT)*%
X352450000Y-127518750D02*
X353450000Y-127518750D01*
X351158795Y-112709955D02*
X349154365Y-112709955D01*
X349570000Y-124218750D02*
X349570000Y-125241692D01*
X348412500Y-122456250D02*
X348412500Y-123349880D01*
X347212500Y-114651820D02*
X347212500Y-115581250D01*
X349154365Y-112709955D02*
X347212500Y-114651820D01*
X349281370Y-124218750D02*
X349570000Y-124218750D01*
X356530000Y-119618750D02*
X356530000Y-120868750D01*
X354450000Y-126518750D02*
X354450000Y-122948750D01*
X349570000Y-125241692D02*
X351450000Y-127121692D01*
X346412500Y-124056250D02*
X346625000Y-124268750D01*
X352450000Y-127518750D02*
X351550000Y-127518750D01*
X346625000Y-124268750D02*
X346700000Y-124268750D01*
X351450000Y-127418750D02*
X351450000Y-127121692D01*
X348412500Y-123349880D02*
X349281370Y-124218750D01*
X351550000Y-127518750D02*
X351450000Y-127418750D01*
X353450000Y-127518750D02*
X354450000Y-126518750D01*
X346412500Y-122456250D02*
X346412500Y-124056250D01*
X354450000Y-122948750D02*
X356530000Y-120868750D01*
%TO.N,Net-(U3-XIN)*%
X346012500Y-113515564D02*
X346012500Y-115581250D01*
X344240000Y-111018750D02*
X344200000Y-111018750D01*
X343200000Y-110018750D02*
X343200000Y-112018750D01*
X344765686Y-112268750D02*
X346012500Y-113515564D01*
X343200000Y-112018750D02*
X343450000Y-112268750D01*
X343450000Y-112268750D02*
X344765686Y-112268750D01*
X346950000Y-109250000D02*
X346700000Y-109000000D01*
X344218750Y-109000000D02*
X343200000Y-110018750D01*
X344200000Y-111018750D02*
X343200000Y-110018750D01*
X346950000Y-109818750D02*
X346950000Y-109250000D01*
X346850000Y-109918750D02*
X346950000Y-109818750D01*
X346700000Y-109000000D02*
X344218750Y-109000000D01*
%TO.N,Net-(C16-Pad2)*%
X347650000Y-113018750D02*
X349050000Y-111618750D01*
X346950000Y-113018750D02*
X347650000Y-113018750D01*
X349330000Y-111898750D02*
X349050000Y-111618750D01*
X352050000Y-111898750D02*
X349330000Y-111898750D01*
%TO.N,ROW_1*%
X343701593Y-107800000D02*
X343482843Y-108018750D01*
X325900000Y-107800000D02*
X326118750Y-108018750D01*
X357650000Y-107800000D02*
X357650000Y-109418750D01*
X356650000Y-116818750D02*
X350050000Y-116818750D01*
X357650000Y-107800000D02*
X357581250Y-107868750D01*
X326118750Y-108018750D02*
X343482843Y-108018750D01*
X347197056Y-107800000D02*
X343701593Y-107800000D01*
X68725000Y-107800000D02*
X325900000Y-107800000D01*
X347265804Y-107868750D02*
X347197056Y-107800000D01*
X357200000Y-116268750D02*
X356650000Y-116818750D01*
X357581250Y-107868750D02*
X347265804Y-107868750D01*
%TO.N,Net-(D1-A)*%
X63327500Y-100276250D02*
X67551250Y-104500000D01*
X67551250Y-104500000D02*
X68725000Y-104500000D01*
%TO.N,Net-(D2-A)*%
X86601250Y-104500000D02*
X86981250Y-104500000D01*
X82377500Y-100276250D02*
X86601250Y-104500000D01*
%TO.N,Net-(D3-A)*%
X105651250Y-104500000D02*
X106825000Y-104500000D01*
X101427500Y-100276250D02*
X105651250Y-104500000D01*
%TO.N,Net-(D4-A)*%
X120477500Y-100276250D02*
X124701250Y-104500000D01*
X124701250Y-104500000D02*
X125875000Y-104500000D01*
%TO.N,Net-(D5-A)*%
X139527500Y-100276250D02*
X143751250Y-104500000D01*
X143751250Y-104500000D02*
X144925000Y-104500000D01*
%TO.N,Net-(D6-A)*%
X162801250Y-104500000D02*
X163975000Y-104500000D01*
X158577500Y-100276250D02*
X162801250Y-104500000D01*
%TO.N,Net-(D7-A)*%
X181851250Y-104500000D02*
X183025000Y-104500000D01*
X177627500Y-100276250D02*
X181851250Y-104500000D01*
%TO.N,Net-(D8-A)*%
X200901250Y-104500000D02*
X202075000Y-104500000D01*
X196677500Y-100276250D02*
X200901250Y-104500000D01*
%TO.N,Net-(D9-A)*%
X215727500Y-100276250D02*
X219951250Y-104500000D01*
X219951250Y-104500000D02*
X221125000Y-104500000D01*
%TO.N,Net-(D10-A)*%
X234777500Y-100276250D02*
X239001250Y-104500000D01*
X239001250Y-104500000D02*
X240175000Y-104500000D01*
%TO.N,Net-(D11-A)*%
X258051250Y-104500000D02*
X259225000Y-104500000D01*
X253827500Y-100276250D02*
X258051250Y-104500000D01*
%TO.N,Net-(D12-A)*%
X272877500Y-100276250D02*
X277101250Y-104500000D01*
X277101250Y-104500000D02*
X278275000Y-104500000D01*
%TO.N,Net-(D13-A)*%
X291927500Y-100276250D02*
X296151250Y-104500000D01*
X296151250Y-104500000D02*
X297325000Y-104500000D01*
%TO.N,Net-(D14-A)*%
X320502500Y-100276250D02*
X324726250Y-104500000D01*
X324726250Y-104500000D02*
X325900000Y-104500000D01*
%TO.N,Net-(D15-A)*%
X361873750Y-100276250D02*
X357650000Y-104500000D01*
X368127500Y-100276250D02*
X361873750Y-100276250D01*
%TO.N,Net-(D16-A)*%
X68090000Y-119326250D02*
X72313750Y-123550000D01*
X72313750Y-123550000D02*
X73487500Y-123550000D01*
%TO.N,Net-(D17-A)*%
X91902500Y-119326250D02*
X96126250Y-123550000D01*
X96126250Y-123550000D02*
X97300000Y-123550000D01*
%TO.N,Net-(D18-A)*%
X110952500Y-119326250D02*
X115176250Y-123550000D01*
X115176250Y-123550000D02*
X116350000Y-123550000D01*
%TO.N,Net-(D19-A)*%
X134226250Y-123550000D02*
X135400000Y-123550000D01*
X130002500Y-119326250D02*
X134226250Y-123550000D01*
%TO.N,Net-(D20-A)*%
X153276250Y-123550000D02*
X154450000Y-123550000D01*
X149052500Y-119326250D02*
X153276250Y-123550000D01*
%TO.N,Net-(D21-A)*%
X168102500Y-119326250D02*
X172326250Y-123550000D01*
X172326250Y-123550000D02*
X173500000Y-123550000D01*
%TO.N,Net-(D22-A)*%
X191376250Y-123550000D02*
X192550000Y-123550000D01*
X187152500Y-119326250D02*
X191376250Y-123550000D01*
%TO.N,Net-(D23-A)*%
X210426250Y-123550000D02*
X211600000Y-123550000D01*
X206202500Y-119326250D02*
X210426250Y-123550000D01*
%TO.N,Net-(D24-A)*%
X229476250Y-123550000D02*
X230650000Y-123550000D01*
X225252500Y-119326250D02*
X229476250Y-123550000D01*
%TO.N,Net-(D25-A)*%
X248526250Y-123550000D02*
X249700000Y-123550000D01*
X244302500Y-119326250D02*
X248526250Y-123550000D01*
%TO.N,Net-(D26-A)*%
X267576250Y-123550000D02*
X268750000Y-123550000D01*
X263352500Y-119326250D02*
X267576250Y-123550000D01*
%TO.N,Net-(D27-A)*%
X282402500Y-119326250D02*
X286626250Y-123550000D01*
X286626250Y-123550000D02*
X287800000Y-123550000D01*
%TO.N,Net-(D28-A)*%
X301452500Y-119326250D02*
X305676250Y-123550000D01*
X305676250Y-123550000D02*
X306850000Y-123550000D01*
%TO.N,Net-(D29-A)*%
X329488750Y-123550000D02*
X330662500Y-123550000D01*
X325265000Y-119326250D02*
X329488750Y-123550000D01*
%TO.N,Net-(D31-A)*%
X70471250Y-138376250D02*
X74695000Y-142600000D01*
X74695000Y-142600000D02*
X75868750Y-142600000D01*
%TO.N,Net-(D32-A)*%
X96665000Y-138376250D02*
X100888750Y-142600000D01*
X100888750Y-142600000D02*
X102062500Y-142600000D01*
%TO.N,Net-(D33-A)*%
X115715000Y-138376250D02*
X119938750Y-142600000D01*
X119938750Y-142600000D02*
X121112500Y-142600000D01*
%TO.N,Net-(D34-A)*%
X134765000Y-138376250D02*
X138988750Y-142600000D01*
X138988750Y-142600000D02*
X140162500Y-142600000D01*
%TO.N,Net-(D35-A)*%
X153815000Y-138376250D02*
X158038750Y-142600000D01*
X158038750Y-142600000D02*
X159212500Y-142600000D01*
%TO.N,Net-(D36-A)*%
X172865000Y-138376250D02*
X177088750Y-142600000D01*
X177088750Y-142600000D02*
X178262500Y-142600000D01*
%TO.N,Net-(D37-A)*%
X196138750Y-142600000D02*
X197312500Y-142600000D01*
X191915000Y-138376250D02*
X196138750Y-142600000D01*
%TO.N,Net-(D38-A)*%
X210965000Y-138376250D02*
X215188750Y-142600000D01*
X215188750Y-142600000D02*
X216362500Y-142600000D01*
%TO.N,Net-(D39-A)*%
X234238750Y-142600000D02*
X236206250Y-142600000D01*
X230015000Y-138376250D02*
X234238750Y-142600000D01*
%TO.N,Net-(D40-A)*%
X249065000Y-138376250D02*
X253288750Y-142600000D01*
X253288750Y-142600000D02*
X254462500Y-142600000D01*
%TO.N,Net-(D41-A)*%
X268115000Y-138376250D02*
X272338750Y-142600000D01*
X272338750Y-142600000D02*
X273512500Y-142600000D01*
%TO.N,Net-(D42-A)*%
X291388750Y-142600000D02*
X292562500Y-142600000D01*
X287165000Y-138376250D02*
X291388750Y-142600000D01*
%TO.N,Net-(D43-A)*%
X318121250Y-138376250D02*
X322345000Y-142600000D01*
X322345000Y-142600000D02*
X333837500Y-142600000D01*
%TO.N,Net-(D44-A)*%
X79457500Y-161650000D02*
X90950000Y-161650000D01*
X75233750Y-157426250D02*
X79457500Y-161650000D01*
%TO.N,Net-(D45-A)*%
X106190000Y-157426250D02*
X110413750Y-161650000D01*
X110413750Y-161650000D02*
X111587500Y-161650000D01*
%TO.N,Net-(D46-A)*%
X125240000Y-157426250D02*
X129463750Y-161650000D01*
X129463750Y-161650000D02*
X130637500Y-161650000D01*
%TO.N,Net-(D47-A)*%
X144290000Y-157426250D02*
X148513750Y-161650000D01*
X148513750Y-161650000D02*
X149687500Y-161650000D01*
%TO.N,Net-(D48-A)*%
X163340000Y-157426250D02*
X167563750Y-161650000D01*
X167563750Y-161650000D02*
X168737500Y-161650000D01*
%TO.N,Net-(D49-A)*%
X186613750Y-161650000D02*
X187787500Y-161650000D01*
X182390000Y-157426250D02*
X186613750Y-161650000D01*
%TO.N,Net-(D50-A)*%
X201440000Y-157426250D02*
X205663750Y-161650000D01*
X205663750Y-161650000D02*
X206837500Y-161650000D01*
%TO.N,Net-(D51-A)*%
X220490000Y-157426250D02*
X224713750Y-161650000D01*
X224713750Y-161650000D02*
X225887500Y-161650000D01*
%TO.N,Net-(D52-A)*%
X239540000Y-157426250D02*
X243763750Y-161650000D01*
X243763750Y-161650000D02*
X244937500Y-161650000D01*
%TO.N,Net-(D53-A)*%
X258590000Y-157426250D02*
X262813750Y-161650000D01*
X262813750Y-161650000D02*
X263987500Y-161650000D01*
%TO.N,Net-(D54-A)*%
X277640000Y-157426250D02*
X281863750Y-161650000D01*
X281863750Y-161650000D02*
X283037500Y-161650000D01*
%TO.N,Net-(D55-A)*%
X312820000Y-161650000D02*
X324312500Y-161650000D01*
X308596250Y-157426250D02*
X312820000Y-161650000D01*
%TO.N,Net-(D56-A)*%
X343776250Y-161650000D02*
X344950000Y-161650000D01*
X339552500Y-157426250D02*
X343776250Y-161650000D01*
%TO.N,Net-(D57-A)*%
X69932500Y-180700000D02*
X71106250Y-180700000D01*
X65708750Y-176476250D02*
X69932500Y-180700000D01*
%TO.N,Net-(D58-A)*%
X91363750Y-180700000D02*
X92537500Y-180700000D01*
X87140000Y-176476250D02*
X91363750Y-180700000D01*
%TO.N,Net-(D59-A)*%
X112795000Y-180700000D02*
X113968750Y-180700000D01*
X108571250Y-176476250D02*
X112795000Y-180700000D01*
%TO.N,Net-(D60-A)*%
X184232500Y-180700000D02*
X185406250Y-180700000D01*
X180008750Y-176476250D02*
X184232500Y-180700000D01*
%TO.N,Net-(D61-A)*%
X251446250Y-176476250D02*
X255670000Y-180700000D01*
X255670000Y-180700000D02*
X256843750Y-180700000D01*
%TO.N,Net-(D62-A)*%
X275258750Y-176476250D02*
X279482500Y-180700000D01*
X279482500Y-180700000D02*
X280656250Y-180700000D01*
%TO.N,Net-(D63-A)*%
X299071250Y-176476250D02*
X303295000Y-180700000D01*
X303295000Y-180700000D02*
X304468750Y-180700000D01*
%TO.N,Net-(D64-A)*%
X320502500Y-176476250D02*
X324726250Y-180700000D01*
X324726250Y-180700000D02*
X325900000Y-180700000D01*
%TO.N,Net-(D65-A)*%
X343776250Y-180700000D02*
X344950000Y-180700000D01*
X339552500Y-176476250D02*
X343776250Y-180700000D01*
%TO.N,Net-(D66-A)*%
X358602500Y-176476250D02*
X362826250Y-180700000D01*
X362826250Y-180700000D02*
X364000000Y-180700000D01*
%TO.N,USB_D-*%
X347138750Y-102332500D02*
X347138750Y-103307500D01*
X346188750Y-102282500D02*
X347088750Y-102282500D01*
X347088750Y-102282500D02*
X347138750Y-102332500D01*
X346138750Y-102332500D02*
X346188750Y-102282500D01*
X346138750Y-103307500D02*
X346138750Y-104841824D01*
X346138750Y-104841824D02*
X346700000Y-105403074D01*
X346138750Y-103307500D02*
X346138750Y-102332500D01*
%TO.N,USB_D+*%
X346638750Y-104282500D02*
X346875000Y-104518750D01*
X346875000Y-104518750D02*
X347450000Y-104518750D01*
X347950000Y-105018750D02*
X347450000Y-104518750D01*
X347638750Y-104330000D02*
X347450000Y-104518750D01*
X346638750Y-103307500D02*
X346638750Y-104282500D01*
X346653221Y-103321971D02*
X346638750Y-103307500D01*
X347950000Y-105399701D02*
X347950000Y-105018750D01*
X347638750Y-103307500D02*
X347638750Y-104330000D01*
%TO.N,Net-(J1-CC1)*%
X345638750Y-105080000D02*
X344950000Y-105768750D01*
X345638750Y-103307500D02*
X345638750Y-105080000D01*
%TO.N,Net-(J1-CC2)*%
X348638750Y-104957500D02*
X349200000Y-105518750D01*
X348638750Y-103307500D02*
X348638750Y-104957500D01*
%TO.N,COL_1*%
X332694113Y-116868750D02*
X328252225Y-116868750D01*
X328252225Y-116868750D02*
X326859725Y-115476250D01*
X323027775Y-116118750D02*
X303700000Y-116118750D01*
X323435960Y-115710565D02*
X323027775Y-116118750D01*
X334644113Y-118818750D02*
X332694113Y-116868750D01*
X343175000Y-118818750D02*
X334644113Y-118818750D01*
X303700000Y-116118750D02*
X303057500Y-115476250D01*
X323670274Y-115476250D02*
X323435960Y-115710565D01*
X302801615Y-115476250D02*
X297694115Y-110368750D01*
X211048529Y-110368750D02*
X210698529Y-110718750D01*
X326859725Y-115476250D02*
X323670274Y-115476250D01*
X303057500Y-115476250D02*
X302801615Y-115476250D01*
X297694115Y-110368750D02*
X211048529Y-110368750D01*
X210698529Y-110718750D02*
X59500000Y-110718750D01*
X59500000Y-110718750D02*
X57200000Y-113018750D01*
%TO.N,COL_2*%
X76325000Y-113643750D02*
X78850000Y-111118750D01*
X303524040Y-116518750D02*
X323193460Y-116518750D01*
X76325000Y-113643750D02*
X76450000Y-113518750D01*
X326694040Y-115876250D02*
X326928354Y-116110565D01*
X302881540Y-115876250D02*
X303524040Y-116518750D01*
X302635929Y-115876250D02*
X302881540Y-115876250D01*
X334478427Y-119218750D02*
X343175000Y-119218750D01*
X297528429Y-110768750D02*
X302635929Y-115876250D01*
X332762742Y-117503065D02*
X334478427Y-119218750D01*
X332528428Y-117268750D02*
X332762742Y-117503065D01*
X326928354Y-116110565D02*
X328086539Y-117268750D01*
X323193460Y-116518750D02*
X323835960Y-115876250D01*
X211214215Y-110768750D02*
X297528429Y-110768750D01*
X323835960Y-115876250D02*
X326694040Y-115876250D01*
X210864215Y-111118750D02*
X211214215Y-110768750D01*
X328086539Y-117268750D02*
X332528428Y-117268750D01*
X78850000Y-111118750D02*
X210864215Y-111118750D01*
%TO.N,COL_3*%
X334312742Y-119618750D02*
X343175000Y-119618750D01*
X96200000Y-114018750D02*
X98700000Y-111518750D01*
X297362743Y-111168750D02*
X302470243Y-116276250D01*
X324001646Y-116276250D02*
X326528354Y-116276250D01*
X211379901Y-111168750D02*
X297362743Y-111168750D01*
X332362742Y-117668750D02*
X334312742Y-119618750D01*
X326528354Y-116276250D02*
X327920854Y-117668750D01*
X323359146Y-116918750D02*
X324001646Y-116276250D01*
X98700000Y-111518750D02*
X211029901Y-111518750D01*
X211029901Y-111518750D02*
X211379901Y-111168750D01*
X302470243Y-116276250D02*
X302715854Y-116276250D01*
X302715854Y-116276250D02*
X303358354Y-116918750D01*
X303358354Y-116918750D02*
X323359146Y-116918750D01*
X327920854Y-117668750D02*
X332362742Y-117668750D01*
%TO.N,COL_4*%
X324167332Y-116676250D02*
X326362668Y-116676250D01*
X323524832Y-117318750D02*
X324167332Y-116676250D01*
X334147057Y-120018750D02*
X343175000Y-120018750D01*
X303192668Y-117318750D02*
X323524832Y-117318750D01*
X302550168Y-116676250D02*
X303192668Y-117318750D01*
X297197058Y-111568750D02*
X302304558Y-116676250D01*
X327755168Y-118068750D02*
X332197057Y-118068750D01*
X118050000Y-111918750D02*
X211195586Y-111918750D01*
X115450000Y-114518750D02*
X118050000Y-111918750D01*
X211545586Y-111568750D02*
X297197058Y-111568750D01*
X326362668Y-116676250D02*
X327755168Y-118068750D01*
X302304558Y-116676250D02*
X302550168Y-116676250D01*
X211195586Y-111918750D02*
X211545586Y-111568750D01*
X332197057Y-118068750D02*
X334147057Y-120018750D01*
%TO.N,COL_5*%
X333981371Y-120418750D02*
X343175000Y-120418750D01*
X211361271Y-112318750D02*
X211711271Y-111968750D01*
X302384482Y-117076250D02*
X303026982Y-117718750D01*
X133950000Y-115018750D02*
X136650000Y-112318750D01*
X297031372Y-111968750D02*
X302138872Y-117076250D01*
X324333018Y-117076250D02*
X326196982Y-117076250D01*
X302138872Y-117076250D02*
X302384482Y-117076250D01*
X136650000Y-112318750D02*
X211361271Y-112318750D01*
X326196982Y-117076250D02*
X327589482Y-118468750D01*
X211711271Y-111968750D02*
X297031372Y-111968750D01*
X332031371Y-118468750D02*
X333981371Y-120418750D01*
X303026982Y-117718750D02*
X323690518Y-117718750D01*
X323690518Y-117718750D02*
X324333018Y-117076250D01*
X327589482Y-118468750D02*
X332031371Y-118468750D01*
%TO.N,COL_6*%
X302218796Y-117476250D02*
X302861296Y-118118750D01*
X331865686Y-118868750D02*
X333815686Y-120818750D01*
X333815686Y-120818750D02*
X343175000Y-120818750D01*
X296865685Y-112368750D02*
X297015686Y-112518750D01*
X301973186Y-117476250D02*
X302218796Y-117476250D01*
X155700000Y-115268750D02*
X158250000Y-112718750D01*
X211876956Y-112368750D02*
X296865685Y-112368750D01*
X324498704Y-117476250D02*
X326031296Y-117476250D01*
X327423796Y-118868750D02*
X331865686Y-118868750D01*
X302861296Y-118118750D02*
X323856204Y-118118750D01*
X323856204Y-118118750D02*
X324498704Y-117476250D01*
X326031296Y-117476250D02*
X327423796Y-118868750D01*
X158250000Y-112718750D02*
X211526956Y-112718750D01*
X297015686Y-112518750D02*
X301973186Y-117476250D01*
X211526956Y-112718750D02*
X211876956Y-112368750D01*
%TO.N,COL_7*%
X331700000Y-119268750D02*
X333650000Y-121218750D01*
X212042641Y-112768750D02*
X296700000Y-112768750D01*
X324021890Y-118518750D02*
X324664390Y-117876250D01*
X324664390Y-117876250D02*
X325865610Y-117876250D01*
X174950000Y-115668750D02*
X177500000Y-113118750D01*
X296700000Y-112768750D02*
X301807500Y-117876250D01*
X177500000Y-113118750D02*
X211692641Y-113118750D01*
X325865610Y-117876250D02*
X327258110Y-119268750D01*
X302695610Y-118518750D02*
X324021890Y-118518750D01*
X301807500Y-117876250D02*
X302053110Y-117876250D01*
X327258110Y-119268750D02*
X331700000Y-119268750D01*
X211692641Y-113118750D02*
X212042641Y-112768750D01*
X302053110Y-117876250D02*
X302695610Y-118518750D01*
X333650000Y-121218750D02*
X343175000Y-121218750D01*
%TO.N,COL_8*%
X345212500Y-114334193D02*
X345212500Y-115581250D01*
X340950000Y-109568750D02*
X210748529Y-109568750D01*
X342050000Y-112268750D02*
X342050000Y-112704535D01*
X210654779Y-109475000D02*
X193493750Y-109475000D01*
X342050000Y-112704535D02*
X342914215Y-113568750D01*
X342914215Y-113568750D02*
X344447057Y-113568750D01*
X344447057Y-113568750D02*
X345212500Y-114334193D01*
X210748529Y-109568750D02*
X210654779Y-109475000D01*
%TO.N,COL_9*%
X344412500Y-114665564D02*
X344412500Y-115581250D01*
X340700000Y-110518750D02*
X340150000Y-109968750D01*
X344115686Y-114368750D02*
X344412500Y-114665564D01*
X342300000Y-114368750D02*
X344115686Y-114368750D01*
X341450000Y-113518750D02*
X342300000Y-114368750D01*
X340150000Y-109968750D02*
X210600000Y-109968750D01*
X210600000Y-109968750D02*
X210450000Y-110118750D01*
%TO.N,COL_10*%
X341700000Y-114768750D02*
X343200000Y-114768750D01*
X239200000Y-133018750D02*
X332600551Y-133018750D01*
X332701471Y-133119670D02*
X333599080Y-133119670D01*
X343200000Y-114768750D02*
X344012500Y-115581250D01*
X341450000Y-114518750D02*
X341700000Y-114768750D01*
X333599080Y-133119670D02*
X333700000Y-133018750D01*
X334450000Y-115268750D02*
X335200000Y-114518750D01*
X335200000Y-114518750D02*
X341450000Y-114518750D01*
X332600551Y-133018750D02*
X332701471Y-133119670D01*
%TO.N,COL_11*%
X334350000Y-133618750D02*
X334450000Y-133518750D01*
X332300000Y-133618750D02*
X334350000Y-133618750D01*
X342806826Y-116418750D02*
X343175000Y-116418750D01*
X258400000Y-133418750D02*
X332100000Y-133418750D01*
X258200000Y-133618750D02*
X258400000Y-133418750D01*
X336005619Y-115963131D02*
X342351207Y-115963131D01*
X334950000Y-117018750D02*
X336005619Y-115963131D01*
X342351207Y-115963131D02*
X342806826Y-116418750D01*
X332100000Y-133418750D02*
X332300000Y-133618750D01*
%TO.N,COL_12*%
X331700000Y-133818750D02*
X332000000Y-134118750D01*
X332000000Y-134118750D02*
X335100000Y-134118750D01*
X342641140Y-116818750D02*
X343175000Y-116818750D01*
X277450000Y-134018750D02*
X277650000Y-133818750D01*
X335100000Y-134118750D02*
X335450000Y-133768750D01*
X277650000Y-133818750D02*
X331700000Y-133818750D01*
X335950000Y-117268750D02*
X336855619Y-116363131D01*
X336855619Y-116363131D02*
X342185521Y-116363131D01*
X342185521Y-116363131D02*
X342641140Y-116818750D01*
X277200000Y-134018750D02*
X277450000Y-134018750D01*
%TO.N,COL_13*%
X332850920Y-132618750D02*
X306018750Y-132618750D01*
X343867279Y-108200000D02*
X347031371Y-108200000D01*
X306018750Y-132618750D02*
X305818750Y-132418750D01*
X350487500Y-115581250D02*
X349212500Y-115581250D01*
X347200120Y-108368750D02*
X351800000Y-108368750D01*
X347031371Y-108200000D02*
X347200120Y-108368750D01*
X334700000Y-112768750D02*
X336350000Y-111118750D01*
X353850000Y-112218750D02*
X350487500Y-115581250D01*
X332950000Y-132519670D02*
X333049080Y-132618750D01*
X332950000Y-132519670D02*
X332850920Y-132618750D01*
X351800000Y-108368750D02*
X353850000Y-110418750D01*
X336350000Y-111118750D02*
X340948529Y-111118750D01*
X353850000Y-110418750D02*
X353850000Y-112218750D01*
X340948529Y-111118750D02*
X343867279Y-108200000D01*
%TO.N,COL_14*%
X342019835Y-116763131D02*
X342475454Y-117218750D01*
X332200000Y-116018750D02*
X332409799Y-116018750D01*
X332084713Y-132218750D02*
X323400000Y-132218750D01*
X323400000Y-132218750D02*
X323200000Y-132018750D01*
X342475454Y-117218750D02*
X343175000Y-117218750D01*
X334809799Y-118418750D02*
X335648529Y-118418750D01*
X337304148Y-116763131D02*
X342019835Y-116763131D01*
X335648529Y-118418750D02*
X337304148Y-116763131D01*
X332409799Y-116018750D02*
X334809799Y-118418750D01*
X332350000Y-131953463D02*
X332084713Y-132218750D01*
%TO.N,COL_15*%
X341854149Y-117163131D02*
X342309768Y-117618750D01*
X348877412Y-137768750D02*
X361777500Y-124868662D01*
X339250000Y-117818750D02*
X339905619Y-117163131D01*
X361777500Y-124868662D02*
X361777500Y-121866250D01*
X341200000Y-137768750D02*
X348877412Y-137768750D01*
X342309768Y-117618750D02*
X343175000Y-117618750D01*
X340850000Y-137418750D02*
X341200000Y-137768750D01*
X339905619Y-117163131D02*
X341854149Y-117163131D01*
%TO.N,Net-(U3-USB_DP)*%
X347612500Y-123681250D02*
X347612500Y-122456250D01*
X350650000Y-127750122D02*
X350650000Y-127453064D01*
X354950000Y-128094053D02*
X354425303Y-128618750D01*
X351518628Y-128618750D02*
X350650000Y-127750122D01*
X347450000Y-106668750D02*
X347450000Y-106399701D01*
X350650000Y-127453064D02*
X347846815Y-124649879D01*
X347846815Y-123915565D02*
X347612500Y-123681250D01*
X347846815Y-124649879D02*
X347846815Y-123915565D01*
X354425303Y-128618750D02*
X351518628Y-128618750D01*
X347450000Y-106399701D02*
X347950000Y-105899701D01*
%TO.N,Net-(R4-Pad1)*%
X348450000Y-147018750D02*
X347950000Y-146518750D01*
X357860714Y-147015251D02*
X357860714Y-147468750D01*
X354450000Y-145018750D02*
X355864213Y-145018750D01*
X354450000Y-145018750D02*
X354450000Y-146768750D01*
X354450000Y-146768750D02*
X354200000Y-147018750D01*
X347950000Y-146518750D02*
X347950000Y-145368750D01*
X354200000Y-147018750D02*
X348450000Y-147018750D01*
X355864213Y-145018750D02*
X357860714Y-147015251D01*
%TO.N,Net-(U2-~{CS})*%
X343301471Y-138518750D02*
X342450000Y-139370221D01*
X341925000Y-143518750D02*
X345875000Y-147468750D01*
X342295000Y-127218750D02*
X342345000Y-127168750D01*
X341050000Y-127218750D02*
X342295000Y-127218750D01*
X342345000Y-127168750D02*
X342345000Y-124123750D01*
X344425000Y-138518750D02*
X343301471Y-138518750D01*
X342450000Y-139370221D02*
X342450000Y-142993750D01*
X345875000Y-147468750D02*
X357360714Y-147468750D01*
X342345000Y-124123750D02*
X344012500Y-122456250D01*
X342450000Y-142993750D02*
X341925000Y-143518750D01*
%TO.N,Net-(U3-USB_DM)*%
X351050000Y-127287378D02*
X348246815Y-124484193D01*
X348012500Y-123515565D02*
X348012500Y-122456250D01*
X348246815Y-123749880D02*
X348012500Y-123515565D01*
X351050000Y-127584436D02*
X351050000Y-127287378D01*
X348246815Y-124484193D02*
X348246815Y-123749880D01*
X354050000Y-128118750D02*
X351584314Y-128118750D01*
X354150000Y-128018750D02*
X354050000Y-128118750D01*
X351584314Y-128118750D02*
X351050000Y-127584436D01*
X345958060Y-106645014D02*
X346700000Y-105903074D01*
X345958060Y-106660690D02*
X345958060Y-106645014D01*
%TO.N,Net-(U3-XOUT)*%
X346450000Y-113018750D02*
X346412500Y-113056250D01*
X346412500Y-113056250D02*
X346412500Y-115581250D01*
%TO.N,Net-(U3-RUN)*%
X343000000Y-141118750D02*
X343200000Y-141118750D01*
X348412500Y-114428308D02*
X348412500Y-115581250D01*
X343950000Y-148268750D02*
X360700000Y-148268750D01*
X348351471Y-114367279D02*
X348412500Y-114428308D01*
X342850000Y-140968750D02*
X342850000Y-139818750D01*
X360700000Y-148268750D02*
X362200000Y-146768750D01*
X343200000Y-142768750D02*
X343950000Y-143268750D01*
X366650000Y-146768750D02*
X368450000Y-144968750D01*
X362200000Y-146768750D02*
X366650000Y-146768750D01*
X361950000Y-146518750D02*
X361950000Y-144968750D01*
X342850000Y-141268750D02*
X343000000Y-141118750D01*
X343000000Y-141118750D02*
X342850000Y-140968750D01*
X342850000Y-139818750D02*
X343450000Y-139218750D01*
X361950000Y-146518750D02*
X362200000Y-146768750D01*
X342850000Y-142418750D02*
X342850000Y-141268750D01*
X343200000Y-142768750D02*
X342850000Y-142418750D01*
%TO.N,Net-(U2-IO2)*%
X344100000Y-123868296D02*
X344812500Y-123155796D01*
X344100000Y-125583751D02*
X344885000Y-126368751D01*
X344885000Y-126368751D02*
X344885000Y-127168750D01*
X344812500Y-123155796D02*
X344812500Y-122456250D01*
X344100000Y-123868296D02*
X344100000Y-125583751D01*
%TO.N,Net-(U2-DI(IO0))*%
X347450000Y-131018750D02*
X348250000Y-130218750D01*
X344500000Y-124818750D02*
X344500000Y-124033982D01*
X348250000Y-128218750D02*
X346755000Y-126723750D01*
X346155000Y-134368750D02*
X346155000Y-135323750D01*
X348250000Y-130218750D02*
X348250000Y-128218750D01*
X347200000Y-135668750D02*
X347450000Y-135418750D01*
X346755000Y-126723750D02*
X346755000Y-126328198D01*
X344500000Y-124033982D02*
X345212500Y-123321482D01*
X346195552Y-125768750D02*
X345450000Y-125768750D01*
X345450000Y-125768750D02*
X344500000Y-124818750D01*
X345212500Y-123321482D02*
X345212500Y-122456250D01*
X346500000Y-135668750D02*
X347200000Y-135668750D01*
X347450000Y-135418750D02*
X347450000Y-131018750D01*
X346755000Y-126328198D02*
X346195552Y-125768750D01*
X346155000Y-135323750D02*
X346500000Y-135668750D01*
%TO.N,Net-(U2-IO3)*%
X349050000Y-130550122D02*
X349050000Y-127887378D01*
X343615000Y-135983750D02*
X344100000Y-136468750D01*
X345350000Y-124315354D02*
X346012500Y-123652854D01*
X347600000Y-136468750D02*
X348250000Y-135818750D01*
X344100000Y-136468750D02*
X347600000Y-136468750D01*
X349050000Y-127887378D02*
X347555000Y-126392378D01*
X345781372Y-124968750D02*
X345350000Y-124537378D01*
X346526924Y-124968750D02*
X345781372Y-124968750D01*
X348250000Y-135818750D02*
X348250000Y-131350122D01*
X348250000Y-131350122D02*
X349050000Y-130550122D01*
X346012500Y-123652854D02*
X346012500Y-122456250D01*
X347555000Y-125996826D02*
X346526924Y-124968750D01*
X345350000Y-124537378D02*
X345350000Y-124315354D01*
X343615000Y-134368750D02*
X343615000Y-135983750D01*
X347555000Y-126392378D02*
X347555000Y-125996826D01*
%TO.N,Net-(U2-DO(IO1))*%
X343615000Y-126488750D02*
X342745000Y-125618750D01*
X343615000Y-127168750D02*
X343615000Y-126488750D01*
X342745000Y-124657610D02*
X344412500Y-122990110D01*
X344412500Y-122990110D02*
X344412500Y-122456250D01*
X342745000Y-125618750D02*
X342745000Y-124657610D01*
%TO.N,Net-(U2-CLK)*%
X347365686Y-136068750D02*
X347850000Y-135584436D01*
X345300000Y-136068750D02*
X347365686Y-136068750D01*
X346361238Y-125368750D02*
X345615686Y-125368750D01*
X347155000Y-126558064D02*
X347155000Y-126162512D01*
X344950000Y-124703064D02*
X344950000Y-124149668D01*
X344885000Y-135653750D02*
X345300000Y-136068750D01*
X345615686Y-125368750D02*
X344950000Y-124703064D01*
X344950000Y-124149668D02*
X345612500Y-123487168D01*
X345612500Y-123487168D02*
X345612500Y-122456250D01*
X348650000Y-128053064D02*
X347155000Y-126558064D01*
X347850000Y-131184436D02*
X348650000Y-130384436D01*
X347155000Y-126162512D02*
X346361238Y-125368750D01*
X344885000Y-134368750D02*
X344885000Y-135653750D01*
X348650000Y-130384436D02*
X348650000Y-128053064D01*
X347850000Y-135584436D02*
X347850000Y-131184436D01*
%TO.N,ROW_5*%
X347950000Y-183768750D02*
X347718750Y-184000000D01*
X348181250Y-184000000D02*
X364000000Y-184000000D01*
X338750000Y-118418750D02*
X343175000Y-118418750D01*
X338350000Y-118018750D02*
X338750000Y-118418750D01*
X347950000Y-183768750D02*
X348181250Y-184000000D01*
X347718750Y-184000000D02*
X71106250Y-184000000D01*
%TO.N,ROW_3*%
X350625000Y-114843750D02*
X349016140Y-114843750D01*
X344032965Y-108600000D02*
X346865685Y-108600000D01*
X346865685Y-108600000D02*
X347034435Y-108768750D01*
X347034435Y-108768750D02*
X351200000Y-108768750D01*
X351200000Y-108768750D02*
X353450000Y-111018750D01*
X348812500Y-115047390D02*
X348812500Y-115581250D01*
X337818750Y-145900000D02*
X333837500Y-145900000D01*
X75868750Y-145900000D02*
X333837500Y-145900000D01*
X338200000Y-145518750D02*
X337818750Y-145900000D01*
X353450000Y-112018750D02*
X350625000Y-114843750D01*
X353450000Y-111018750D02*
X353450000Y-112018750D01*
X339429902Y-113203063D02*
X344032965Y-108600000D01*
X349016140Y-114843750D02*
X348812500Y-115047390D01*
X339384313Y-113203063D02*
X339429902Y-113203063D01*
%TO.N,ROW_4*%
X339950000Y-113768750D02*
X340800000Y-112918750D01*
X340800000Y-112918750D02*
X341698529Y-112918750D01*
X347950000Y-164518750D02*
X347518750Y-164950000D01*
X342465686Y-113968750D02*
X344281372Y-113968750D01*
X344281372Y-113968750D02*
X344812500Y-114499878D01*
X342050000Y-113553064D02*
X342465686Y-113968750D01*
X341698529Y-112918750D02*
X342050000Y-113270221D01*
X344812500Y-114499878D02*
X344812500Y-115581250D01*
X342050000Y-113270221D02*
X342050000Y-113553064D01*
X347518750Y-164950000D02*
X344950000Y-164950000D01*
X90950000Y-164950000D02*
X344950000Y-164950000D01*
%TO.N,3v3*%
X349250000Y-131218750D02*
X349250000Y-136264790D01*
X341605619Y-117763131D02*
X341861238Y-118018750D01*
X346812500Y-114156250D02*
X346812500Y-115581250D01*
X351450000Y-118618750D02*
X351450000Y-118858750D01*
X352590000Y-119998750D02*
X352590000Y-125618750D01*
X346812500Y-122456250D02*
X346812500Y-123164093D01*
X352590000Y-122018750D02*
X351770000Y-122018750D01*
X341850000Y-121618750D02*
X341350000Y-122118750D01*
X350850000Y-118018750D02*
X350050000Y-118018750D01*
X351450000Y-122018750D02*
X351050000Y-121618750D01*
X349800000Y-138168750D02*
X352450000Y-135518750D01*
X344350000Y-141768750D02*
X343700000Y-141118750D01*
X351450000Y-122338750D02*
X351450000Y-122018750D01*
X351450000Y-118618750D02*
X350850000Y-118018750D01*
X336950000Y-99618750D02*
X336950000Y-105918750D01*
X352500000Y-135518750D02*
X352500000Y-135468750D01*
X352450000Y-135518750D02*
X352500000Y-135518750D01*
X349212500Y-122456250D02*
X350050000Y-121618750D01*
X350050000Y-127418750D02*
X349850000Y-127618750D01*
X349450000Y-131018750D02*
X349250000Y-131218750D01*
X342700000Y-136868750D02*
X342345000Y-136513750D01*
X347212500Y-123846936D02*
X347212500Y-123564093D01*
X347200000Y-113768750D02*
X346812500Y-114156250D01*
X349450000Y-131018750D02*
X350050000Y-130418750D01*
X348334314Y-138168750D02*
X349800000Y-138168750D01*
X351050000Y-121618750D02*
X350050000Y-121618750D01*
X347446815Y-124081250D02*
X347212500Y-123846936D01*
X340818750Y-107400000D02*
X337331250Y-107400000D01*
X341861238Y-118018750D02*
X343175000Y-118018750D01*
X347984314Y-138518750D02*
X348334314Y-138168750D01*
X350050000Y-127418750D02*
X347446815Y-124815565D01*
X351450000Y-118858750D02*
X352590000Y-119998750D01*
X349850000Y-127618750D02*
X349650000Y-127618750D01*
X347212500Y-122456250D02*
X347212500Y-123564093D01*
X344720000Y-141768750D02*
X344350000Y-141768750D01*
X343700000Y-141118750D02*
X343850000Y-141118750D01*
X331850000Y-105018750D02*
X332750000Y-105918750D01*
X343175000Y-121618750D02*
X341850000Y-121618750D01*
X346450000Y-138518750D02*
X347984314Y-138518750D01*
X347446815Y-124815565D02*
X347446815Y-124081250D01*
X336950000Y-107018750D02*
X336950000Y-105918750D01*
X351770000Y-122018750D02*
X351450000Y-122338750D01*
X350050000Y-130418750D02*
X350050000Y-127418750D01*
X346200000Y-138768750D02*
X346450000Y-138518750D01*
X342345000Y-136513750D02*
X342345000Y-134368750D01*
X344925000Y-138518750D02*
X345950000Y-138518750D01*
X341200000Y-107018750D02*
X340818750Y-107400000D01*
X345950000Y-138518750D02*
X346200000Y-138768750D01*
X352500000Y-135468750D02*
X352450000Y-135518750D01*
X349250000Y-136264790D02*
X348646040Y-136868750D01*
X351450000Y-120418750D02*
X351450000Y-118618750D01*
X337331250Y-107400000D02*
X336950000Y-107018750D01*
X348646040Y-136868750D02*
X342700000Y-136868750D01*
X332750000Y-105918750D02*
X336950000Y-105918750D01*
X349212500Y-122456250D02*
X348812500Y-122456250D01*
X343850000Y-141118750D02*
X346200000Y-138768750D01*
X346812500Y-123164093D02*
X347212500Y-123564093D01*
X331850000Y-103498750D02*
X331850000Y-105018750D01*
%TO.N,Net-(D30-A)*%
X361873750Y-119326250D02*
X357650000Y-123550000D01*
X368127500Y-119326250D02*
X361873750Y-119326250D01*
%TO.N,ROW_2*%
X357318750Y-126850000D02*
X357650000Y-126850000D01*
X354800000Y-116418750D02*
X350050000Y-116418750D01*
X353650000Y-130518750D02*
X353650000Y-132430476D01*
X355450000Y-128718750D02*
X353650000Y-130518750D01*
X340850000Y-130618750D02*
X340050000Y-129818750D01*
X341900000Y-137268750D02*
X340850000Y-136218750D01*
X355450000Y-128718750D02*
X357318750Y-126850000D01*
X353650000Y-132430476D02*
X348811726Y-137268750D01*
X73487500Y-126850000D02*
X330662500Y-126850000D01*
X340850000Y-136218750D02*
X340850000Y-130618750D01*
X340050000Y-129818750D02*
X333631250Y-129818750D01*
X355200000Y-116018750D02*
X354800000Y-116418750D01*
X348811726Y-137268750D02*
X341900000Y-137268750D01*
X333631250Y-129818750D02*
X330662500Y-126850000D01*
%TD*%
M02*
