%TF.GenerationSoftware,KiCad,Pcbnew,8.0.2*%
%TF.CreationDate,2024-06-04T18:26:38-07:00*%
%TF.ProjectId,keyboard_pcb,6b657962-6f61-4726-945f-7063622e6b69,1.0*%
%TF.SameCoordinates,Original*%
%TF.FileFunction,Copper,L1,Top*%
%TF.FilePolarity,Positive*%
%FSLAX46Y46*%
G04 Gerber Fmt 4.6, Leading zero omitted, Abs format (unit mm)*
G04 Created by KiCad (PCBNEW 8.0.2) date 2024-06-04 18:26:38*
%MOMM*%
%LPD*%
G01*
G04 APERTURE LIST*
%TA.AperFunction,ComponentPad*%
%ADD10C,2.300000*%
%TD*%
%TA.AperFunction,ComponentPad*%
%ADD11C,4.000000*%
%TD*%
%TA.AperFunction,ComponentPad*%
%ADD12C,0.600000*%
%TD*%
%TA.AperFunction,ComponentPad*%
%ADD13C,2.000000*%
%TD*%
%TA.AperFunction,ComponentPad*%
%ADD14O,1.000000X1.600000*%
%TD*%
%TA.AperFunction,ComponentPad*%
%ADD15O,1.000000X2.100000*%
%TD*%
%TA.AperFunction,ViaPad*%
%ADD16C,0.600000*%
%TD*%
%TA.AperFunction,Conductor*%
%ADD17C,0.200000*%
%TD*%
G04 APERTURE END LIST*
D10*
%TO.P,MX11,1,1*%
%TO.N,COL_11*%
X247477500Y-102816250D03*
%TO.P,MX11,2,2*%
%TO.N,Net-(D11-A)*%
X253827500Y-100276250D03*
%TD*%
%TO.P,MX18,1,1*%
%TO.N,COL_3*%
X104602500Y-121866250D03*
%TO.P,MX18,2,2*%
%TO.N,Net-(D18-A)*%
X110952500Y-119326250D03*
%TD*%
%TO.P,MX8,1,1*%
%TO.N,COL_8*%
X190327500Y-102816250D03*
%TO.P,MX8,2,2*%
%TO.N,Net-(D8-A)*%
X196677500Y-100276250D03*
%TD*%
%TO.P,MX65,1,1*%
%TO.N,COL_14*%
X333202500Y-179016250D03*
%TO.P,MX65,2,2*%
%TO.N,Net-(D65-A)*%
X339552500Y-176476250D03*
%TD*%
%TO.P,MX29,1,1*%
%TO.N,COL_14*%
X318915000Y-121866250D03*
%TO.P,MX29,2,2*%
%TO.N,Net-(D29-A)*%
X325265000Y-119326250D03*
%TD*%
%TO.P,MX14,1,1*%
%TO.N,COL_14*%
X314152500Y-102816250D03*
%TO.P,MX14,2,2*%
%TO.N,Net-(D14-A)*%
X320502500Y-100276250D03*
%TD*%
%TO.P,MX43,1,1*%
%TO.N,COL_13*%
X311771250Y-140916250D03*
%TO.P,MX43,2,2*%
%TO.N,Net-(D43-A)*%
X318121250Y-138376250D03*
%TD*%
%TO.P,MX48,1,1*%
%TO.N,COL_5*%
X156990000Y-159966250D03*
%TO.P,MX48,2,2*%
%TO.N,Net-(D48-A)*%
X163340000Y-157426250D03*
%TD*%
%TO.P,MX15,1,1*%
%TO.N,COL_15*%
X361777500Y-102816250D03*
%TO.P,MX15,2,2*%
%TO.N,Net-(D15-A)*%
X368127500Y-100276250D03*
%TD*%
%TO.P,MX49,1,1*%
%TO.N,COL_6*%
X176040000Y-159966250D03*
%TO.P,MX49,2,2*%
%TO.N,Net-(D49-A)*%
X182390000Y-157426250D03*
%TD*%
%TO.P,MX59,1,1*%
%TO.N,COL_3*%
X102221250Y-179016250D03*
%TO.P,MX59,2,2*%
%TO.N,Net-(D59-A)*%
X108571250Y-176476250D03*
%TD*%
%TO.P,MX3,1,1*%
%TO.N,COL_3*%
X95077500Y-102816250D03*
%TO.P,MX3,2,2*%
%TO.N,Net-(D3-A)*%
X101427500Y-100276250D03*
%TD*%
D11*
%TO.P,S5,*%
%TO.N,*%
X127462500Y-174571250D03*
X227475000Y-174571250D03*
%TD*%
D10*
%TO.P,MX55,1,1*%
%TO.N,COL_12*%
X302246250Y-159966250D03*
%TO.P,MX55,2,2*%
%TO.N,Net-(D55-A)*%
X308596250Y-157426250D03*
%TD*%
%TO.P,MX27,1,1*%
%TO.N,COL_12*%
X276052500Y-121866250D03*
%TO.P,MX27,2,2*%
%TO.N,Net-(D27-A)*%
X282402500Y-119326250D03*
%TD*%
%TO.P,MX50,1,1*%
%TO.N,COL_7*%
X195090000Y-159966250D03*
%TO.P,MX50,2,2*%
%TO.N,Net-(D50-A)*%
X201440000Y-157426250D03*
%TD*%
%TO.P,MX25,1,1*%
%TO.N,COL_10*%
X237952500Y-121866250D03*
%TO.P,MX25,2,2*%
%TO.N,Net-(D25-A)*%
X244302500Y-119326250D03*
%TD*%
%TO.P,MX7,1,1*%
%TO.N,COL_7*%
X171277500Y-102816250D03*
%TO.P,MX7,2,2*%
%TO.N,Net-(D7-A)*%
X177627500Y-100276250D03*
%TD*%
%TO.P,MX61,1,1*%
%TO.N,COL_9*%
X245096250Y-179016250D03*
%TO.P,MX61,2,2*%
%TO.N,Net-(D61-A)*%
X251446250Y-176476250D03*
%TD*%
%TO.P,MX36,1,1*%
%TO.N,COL_6*%
X166515000Y-140916250D03*
%TO.P,MX36,2,2*%
%TO.N,Net-(D36-A)*%
X172865000Y-138376250D03*
%TD*%
%TO.P,MX1,1,1*%
%TO.N,COL_1*%
X56977500Y-102816250D03*
%TO.P,MX1,2,2*%
%TO.N,Net-(D1-A)*%
X63327500Y-100276250D03*
%TD*%
%TO.P,MX35,1,1*%
%TO.N,COL_5*%
X147465000Y-140916250D03*
%TO.P,MX35,2,2*%
%TO.N,Net-(D35-A)*%
X153815000Y-138376250D03*
%TD*%
%TO.P,MX52,1,1*%
%TO.N,COL_9*%
X233190000Y-159966250D03*
%TO.P,MX52,2,2*%
%TO.N,Net-(D52-A)*%
X239540000Y-157426250D03*
%TD*%
%TO.P,MX20,1,1*%
%TO.N,COL_5*%
X142702500Y-121866250D03*
%TO.P,MX20,2,2*%
%TO.N,Net-(D20-A)*%
X149052500Y-119326250D03*
%TD*%
%TO.P,MX31,1,1*%
%TO.N,COL_1*%
X64121250Y-140916250D03*
%TO.P,MX31,2,2*%
%TO.N,Net-(D31-A)*%
X70471250Y-138376250D03*
%TD*%
%TO.P,MX4,1,1*%
%TO.N,COL_4*%
X114127500Y-102816250D03*
%TO.P,MX4,2,2*%
%TO.N,Net-(D4-A)*%
X120477500Y-100276250D03*
%TD*%
%TO.P,MX19,1,1*%
%TO.N,COL_4*%
X123652500Y-121866250D03*
%TO.P,MX19,2,2*%
%TO.N,Net-(D19-A)*%
X130002500Y-119326250D03*
%TD*%
%TO.P,MX34,1,1*%
%TO.N,COL_4*%
X128415000Y-140916250D03*
%TO.P,MX34,2,2*%
%TO.N,Net-(D34-A)*%
X134765000Y-138376250D03*
%TD*%
%TO.P,MX46,1,1*%
%TO.N,COL_3*%
X118890000Y-159966250D03*
%TO.P,MX46,2,2*%
%TO.N,Net-(D46-A)*%
X125240000Y-157426250D03*
%TD*%
%TO.P,MX53,1,1*%
%TO.N,COL_10*%
X252240000Y-159966250D03*
%TO.P,MX53,2,2*%
%TO.N,Net-(D53-A)*%
X258590000Y-157426250D03*
%TD*%
%TO.P,MX16,1,1*%
%TO.N,COL_1*%
X61740000Y-121866250D03*
%TO.P,MX16,2,2*%
%TO.N,Net-(D16-A)*%
X68090000Y-119326250D03*
%TD*%
%TO.P,MX38,1,1*%
%TO.N,COL_8*%
X204615000Y-140916250D03*
%TO.P,MX38,2,2*%
%TO.N,Net-(D38-A)*%
X210965000Y-138376250D03*
%TD*%
%TO.P,MX64,1,1*%
%TO.N,COL_12*%
X314152500Y-179016250D03*
%TO.P,MX64,2,2*%
%TO.N,Net-(D64-A)*%
X320502500Y-176476250D03*
%TD*%
%TO.P,MX41,1,1*%
%TO.N,COL_11*%
X261765000Y-140916250D03*
%TO.P,MX41,2,2*%
%TO.N,Net-(D41-A)*%
X268115000Y-138376250D03*
%TD*%
%TO.P,MX21,1,1*%
%TO.N,COL_6*%
X161752500Y-121866250D03*
%TO.P,MX21,2,2*%
%TO.N,Net-(D21-A)*%
X168102500Y-119326250D03*
%TD*%
%TO.P,MX56,1,1*%
%TO.N,COL_14*%
X333202500Y-159966250D03*
%TO.P,MX56,2,2*%
%TO.N,Net-(D56-A)*%
X339552500Y-157426250D03*
%TD*%
%TO.P,MX23,1,1*%
%TO.N,COL_8*%
X199852500Y-121866250D03*
%TO.P,MX23,2,2*%
%TO.N,Net-(D23-A)*%
X206202500Y-119326250D03*
%TD*%
%TO.P,MX51,1,1*%
%TO.N,COL_8*%
X214140000Y-159966250D03*
%TO.P,MX51,2,2*%
%TO.N,Net-(D51-A)*%
X220490000Y-157426250D03*
%TD*%
%TO.P,MX58,1,1*%
%TO.N,COL_2*%
X80790000Y-179016250D03*
%TO.P,MX58,2,2*%
%TO.N,Net-(D58-A)*%
X87140000Y-176476250D03*
%TD*%
%TO.P,MX40,1,1*%
%TO.N,COL_10*%
X242715000Y-140916250D03*
%TO.P,MX40,2,2*%
%TO.N,Net-(D40-A)*%
X249065000Y-138376250D03*
%TD*%
%TO.P,MX32,1,1*%
%TO.N,COL_2*%
X90315000Y-140916250D03*
%TO.P,MX32,2,2*%
%TO.N,Net-(D32-A)*%
X96665000Y-138376250D03*
%TD*%
%TO.P,MX5,1,1*%
%TO.N,COL_5*%
X133177500Y-102816250D03*
%TO.P,MX5,2,2*%
%TO.N,Net-(D5-A)*%
X139527500Y-100276250D03*
%TD*%
%TO.P,MX10,1,1*%
%TO.N,COL_10*%
X228427500Y-102816250D03*
%TO.P,MX10,2,2*%
%TO.N,Net-(D10-A)*%
X234777500Y-100276250D03*
%TD*%
%TO.P,MX66,1,1*%
%TO.N,COL_15*%
X352252500Y-179016250D03*
%TO.P,MX66,2,2*%
%TO.N,Net-(D66-A)*%
X358602500Y-176476250D03*
%TD*%
%TO.P,MX33,1,1*%
%TO.N,COL_3*%
X109365000Y-140916250D03*
%TO.P,MX33,2,2*%
%TO.N,Net-(D33-A)*%
X115715000Y-138376250D03*
%TD*%
%TO.P,MX44,1,1*%
%TO.N,COL_1*%
X68883750Y-159966250D03*
%TO.P,MX44,2,2*%
%TO.N,Net-(D44-A)*%
X75233750Y-157426250D03*
%TD*%
%TO.P,MX30,1,1*%
%TO.N,COL_15*%
X361777500Y-121866250D03*
%TO.P,MX30,2,2*%
%TO.N,Net-(D30-A)*%
X368127500Y-119326250D03*
%TD*%
%TO.P,MX12,1,1*%
%TO.N,COL_12*%
X266527500Y-102816250D03*
%TO.P,MX12,2,2*%
%TO.N,Net-(D12-A)*%
X272877500Y-100276250D03*
%TD*%
%TO.P,MX63,1,1*%
%TO.N,COL_11*%
X292721250Y-179016250D03*
%TO.P,MX63,2,2*%
%TO.N,Net-(D63-A)*%
X299071250Y-176476250D03*
%TD*%
%TO.P,MX6,1,1*%
%TO.N,COL_6*%
X152227500Y-102816250D03*
%TO.P,MX6,2,2*%
%TO.N,Net-(D6-A)*%
X158577500Y-100276250D03*
%TD*%
%TO.P,MX17,1,1*%
%TO.N,COL_2*%
X85552500Y-121866250D03*
%TO.P,MX17,2,2*%
%TO.N,Net-(D17-A)*%
X91902500Y-119326250D03*
%TD*%
%TO.P,MX54,1,1*%
%TO.N,COL_11*%
X271290000Y-159966250D03*
%TO.P,MX54,2,2*%
%TO.N,Net-(D54-A)*%
X277640000Y-157426250D03*
%TD*%
%TO.P,MX26,1,1*%
%TO.N,COL_11*%
X257002500Y-121866250D03*
%TO.P,MX26,2,2*%
%TO.N,Net-(D26-A)*%
X263352500Y-119326250D03*
%TD*%
%TO.P,MX22,1,1*%
%TO.N,COL_7*%
X180802500Y-121866250D03*
%TO.P,MX22,2,2*%
%TO.N,Net-(D22-A)*%
X187152500Y-119326250D03*
%TD*%
%TO.P,MX47,1,1*%
%TO.N,COL_4*%
X137940000Y-159966250D03*
%TO.P,MX47,2,2*%
%TO.N,Net-(D47-A)*%
X144290000Y-157426250D03*
%TD*%
%TO.P,MX13,1,1*%
%TO.N,COL_13*%
X285577500Y-102816250D03*
%TO.P,MX13,2,2*%
%TO.N,Net-(D13-A)*%
X291927500Y-100276250D03*
%TD*%
%TO.P,MX62,1,1*%
%TO.N,COL_10*%
X268908750Y-179016250D03*
%TO.P,MX62,2,2*%
%TO.N,Net-(D62-A)*%
X275258750Y-176476250D03*
%TD*%
%TO.P,MX60,1,1*%
%TO.N,COL_4*%
X173658750Y-179016250D03*
%TO.P,MX60,2,2*%
%TO.N,Net-(D60-A)*%
X180008750Y-176476250D03*
%TD*%
%TO.P,MX28,1,1*%
%TO.N,COL_13*%
X295102500Y-121866250D03*
%TO.P,MX28,2,2*%
%TO.N,Net-(D28-A)*%
X301452500Y-119326250D03*
%TD*%
%TO.P,MX45,1,1*%
%TO.N,COL_2*%
X99840000Y-159966250D03*
%TO.P,MX45,2,2*%
%TO.N,Net-(D45-A)*%
X106190000Y-157426250D03*
%TD*%
%TO.P,MX2,1,1*%
%TO.N,COL_2*%
X76027500Y-102816250D03*
%TO.P,MX2,2,2*%
%TO.N,Net-(D2-A)*%
X82377500Y-100276250D03*
%TD*%
%TO.P,MX24,1,1*%
%TO.N,COL_9*%
X218902500Y-121866250D03*
%TO.P,MX24,2,2*%
%TO.N,Net-(D24-A)*%
X225252500Y-119326250D03*
%TD*%
%TO.P,MX9,1,1*%
%TO.N,COL_9*%
X209377500Y-102816250D03*
%TO.P,MX9,2,2*%
%TO.N,Net-(D9-A)*%
X215727500Y-100276250D03*
%TD*%
%TO.P,MX57,1,1*%
%TO.N,COL_1*%
X59358750Y-179016250D03*
%TO.P,MX57,2,2*%
%TO.N,Net-(D57-A)*%
X65708750Y-176476250D03*
%TD*%
%TO.P,MX42,1,1*%
%TO.N,COL_12*%
X280815000Y-140916250D03*
%TO.P,MX42,2,2*%
%TO.N,Net-(D42-A)*%
X287165000Y-138376250D03*
%TD*%
%TO.P,MX37,1,1*%
%TO.N,COL_7*%
X185565000Y-140916250D03*
%TO.P,MX37,2,2*%
%TO.N,Net-(D37-A)*%
X191915000Y-138376250D03*
%TD*%
%TO.P,MX39,1,1*%
%TO.N,COL_9*%
X223665000Y-140916250D03*
%TO.P,MX39,2,2*%
%TO.N,Net-(D39-A)*%
X230015000Y-138376250D03*
%TD*%
D12*
%TO.P,U3,57,GND*%
%TO.N,GND*%
X345337500Y-117743750D03*
X345337500Y-119018750D03*
X345337500Y-120293750D03*
X346612500Y-117743750D03*
X346612500Y-119018750D03*
X346612500Y-120293750D03*
X347887500Y-117743750D03*
X347887500Y-119018750D03*
X347887500Y-120293750D03*
%TD*%
D13*
%TO.P,SW2,1,1*%
%TO.N,GND*%
X368450000Y-140468750D03*
X361950000Y-140468750D03*
%TO.P,SW2,2,2*%
%TO.N,Net-(U3-RUN)*%
X368450000Y-144968750D03*
X361950000Y-144968750D03*
%TD*%
%TO.P,SW1,1,1*%
%TO.N,GND*%
X354450000Y-140518750D03*
X347950000Y-140518750D03*
%TO.P,SW1,2,2*%
%TO.N,Net-(R4-Pad1)*%
X354450000Y-145018750D03*
X347950000Y-145018750D03*
%TD*%
D14*
%TO.P,J1,S1,SHIELD*%
%TO.N,GND*%
X342568750Y-98212500D03*
D15*
X342568750Y-102392500D03*
D14*
X351208750Y-98212500D03*
D15*
X351208750Y-102392500D03*
%TD*%
D16*
%TO.N,GND*%
X344950000Y-98268750D03*
X344200000Y-104768750D03*
X344950000Y-110018750D03*
X352450000Y-117518750D03*
X351450000Y-138518750D03*
X347650000Y-129618750D03*
X350749289Y-110004030D03*
X349200000Y-107268750D03*
X344250000Y-112868750D03*
X344700000Y-107018750D03*
%TO.N,Net-(U1-VI)*%
X345700000Y-101018750D03*
X348450000Y-101018750D03*
%TO.N,Net-(U3-VREG_VOUT)*%
X352450000Y-127518750D03*
X351158795Y-112709955D03*
X346700000Y-124268750D03*
%TO.N,ROW_1*%
X357200000Y-116268750D03*
X357650000Y-109418750D03*
%TO.N,COL_1*%
X57200000Y-113018750D03*
%TO.N,COL_2*%
X76325000Y-113643750D03*
%TO.N,COL_3*%
X96200000Y-114018750D03*
%TO.N,COL_4*%
X115450000Y-114518750D03*
%TO.N,COL_5*%
X133950000Y-115018750D03*
%TO.N,COL_6*%
X155700000Y-115268750D03*
%TO.N,COL_7*%
X174950000Y-115668750D03*
%TO.N,COL_8*%
X193493750Y-109475000D03*
X340950000Y-109568750D03*
X342050000Y-112268750D03*
%TO.N,COL_9*%
X340700000Y-110518750D03*
X210450000Y-110118750D03*
X341450000Y-113518750D03*
%TO.N,COL_10*%
X334450000Y-115268750D03*
X239200000Y-133018750D03*
X333700000Y-133018750D03*
%TO.N,COL_11*%
X334450000Y-133518750D03*
X334950000Y-117018750D03*
X258200000Y-133618750D03*
%TO.N,COL_12*%
X335950000Y-117268750D03*
X277200000Y-134018750D03*
X335450000Y-133768750D03*
%TO.N,COL_13*%
X332950000Y-132519670D03*
X305818750Y-132418750D03*
X334700000Y-112768750D03*
%TO.N,COL_14*%
X332200000Y-116018750D03*
X332350000Y-131953463D03*
X323200000Y-132018750D03*
%TO.N,COL_15*%
X340850000Y-137418750D03*
X339250000Y-117818750D03*
%TO.N,Net-(U3-USB_DP)*%
X347450000Y-106668750D03*
X354950000Y-128094053D03*
%TO.N,Net-(U2-~{CS})*%
X341050000Y-127218750D03*
X341925000Y-143518750D03*
%TO.N,Net-(U3-USB_DM)*%
X354150000Y-128018750D03*
X345958060Y-106660690D03*
%TO.N,Net-(U3-RUN)*%
X343450000Y-139218750D03*
X343950000Y-148268750D03*
X348351471Y-114367279D03*
X343950000Y-143268750D03*
%TO.N,ROW_5*%
X338350000Y-118018750D03*
X347950000Y-183768750D03*
%TO.N,ROW_3*%
X339384313Y-113203063D03*
X338200000Y-145518750D03*
%TO.N,ROW_4*%
X339950000Y-113768750D03*
X347950000Y-164518750D03*
%TO.N,3v3*%
X341350000Y-122118750D03*
X349450000Y-131018750D03*
X352500000Y-135518750D03*
X347200000Y-113768750D03*
X341605619Y-117763131D03*
X341200000Y-107018750D03*
X351450000Y-120418750D03*
X349634506Y-127611246D03*
%TO.N,ROW_2*%
X355450000Y-128718750D03*
X355200000Y-116018750D03*
%TD*%
D17*
%TO.N,GND*%
X344200000Y-104768750D02*
X345100000Y-103868750D01*
X344250000Y-112868750D02*
X344250000Y-110718750D01*
X344700000Y-109768750D02*
X344700000Y-107018750D01*
X348801471Y-113218750D02*
X349450000Y-113218750D01*
X347650000Y-129618750D02*
X348850000Y-130818750D01*
X347650000Y-128118750D02*
X345337500Y-125806250D01*
X349450000Y-113218750D02*
X352450000Y-116218750D01*
X348850000Y-130818750D02*
X348850000Y-135918750D01*
X344250000Y-110718750D02*
X344950000Y-110018750D01*
X348451471Y-112868750D02*
X348801471Y-113218750D01*
X350749289Y-108818039D02*
X349200000Y-107268750D01*
X348850000Y-135918750D02*
X351450000Y-138518750D01*
X350749289Y-110004030D02*
X350749289Y-108818039D01*
X345100000Y-103868750D02*
X345100000Y-98418750D01*
X352450000Y-116218750D02*
X352450000Y-117518750D01*
X345100000Y-98418750D02*
X344950000Y-98268750D01*
X344250000Y-112868750D02*
X348451471Y-112868750D01*
X347650000Y-129618750D02*
X347650000Y-128118750D01*
X345337500Y-125806250D02*
X345337500Y-120293750D01*
X344950000Y-110018750D02*
X344700000Y-109768750D01*
%TO.N,Net-(U1-VI)*%
X345700000Y-101018750D02*
X348450000Y-101018750D01*
%TO.N,Net-(U3-VREG_VOUT)*%
X355650000Y-118448651D02*
X355650000Y-122687378D01*
X352150000Y-127518750D02*
X348650000Y-124018750D01*
X354084314Y-126584436D02*
X353150000Y-127518750D01*
X348650000Y-124018750D02*
X346950000Y-124018750D01*
X351158795Y-113957446D02*
X355650000Y-118448651D01*
X354084314Y-124253064D02*
X354084314Y-126584436D01*
X355650000Y-122687378D02*
X354084314Y-124253064D01*
X351158795Y-112709955D02*
X351158795Y-113957446D01*
X353150000Y-127518750D02*
X352450000Y-127518750D01*
X352450000Y-127518750D02*
X352150000Y-127518750D01*
X346950000Y-124018750D02*
X346700000Y-124268750D01*
%TO.N,ROW_1*%
X357650000Y-109418750D02*
X357650000Y-115818750D01*
X357650000Y-115818750D02*
X357200000Y-116268750D01*
%TO.N,COL_1*%
X61740000Y-138535000D02*
X64121250Y-140916250D01*
X57200000Y-113018750D02*
X56977500Y-113241250D01*
X61740000Y-121866250D02*
X61740000Y-138535000D01*
X56977500Y-113241250D02*
X56977500Y-117103750D01*
X56977500Y-102816250D02*
X56977500Y-112796250D01*
X68883750Y-159966250D02*
X69518750Y-160601250D01*
X69518750Y-168856250D02*
X59358750Y-179016250D01*
X64121250Y-140916250D02*
X64121250Y-155203750D01*
X56977500Y-117103750D02*
X61740000Y-121866250D01*
X64121250Y-155203750D02*
X68883750Y-159966250D01*
X69518750Y-160601250D02*
X69518750Y-168856250D01*
X56977500Y-112796250D02*
X57200000Y-113018750D01*
%TO.N,COL_2*%
X100475000Y-163300000D02*
X99681250Y-164093750D01*
X85552500Y-136153750D02*
X90315000Y-140916250D01*
X80790000Y-178900000D02*
X80790000Y-179016250D01*
X90315000Y-140916250D02*
X90315000Y-150441250D01*
X99681250Y-164093750D02*
X95596250Y-164093750D01*
X75950000Y-114018750D02*
X83797500Y-121866250D01*
X76027500Y-113346250D02*
X76027500Y-102816250D01*
X90315000Y-150441250D02*
X99840000Y-159966250D01*
X95596250Y-164093750D02*
X80790000Y-178900000D01*
X76325000Y-113643750D02*
X76027500Y-113346250D01*
X76325000Y-113643750D02*
X75950000Y-114018750D01*
X83797500Y-121866250D02*
X85552500Y-121866250D01*
X85552500Y-121866250D02*
X85552500Y-136153750D01*
X100475000Y-160601250D02*
X100475000Y-163300000D01*
X99840000Y-159966250D02*
X100475000Y-160601250D01*
%TO.N,COL_3*%
X109365000Y-140916250D02*
X109365000Y-142027500D01*
X110000000Y-151076250D02*
X118890000Y-159966250D01*
X95700000Y-114518750D02*
X103047500Y-121866250D01*
X96200000Y-114018750D02*
X95700000Y-114518750D01*
X104602500Y-121866250D02*
X104602500Y-122183750D01*
X95712500Y-112976250D02*
X95712500Y-113531250D01*
X109365000Y-142027500D02*
X110000000Y-142662500D01*
X102221250Y-175008655D02*
X102221250Y-179016250D01*
X117263655Y-159966250D02*
X102221250Y-175008655D01*
X105237500Y-136788750D02*
X109365000Y-140916250D01*
X105237500Y-122818750D02*
X105237500Y-136788750D01*
X95712500Y-113531250D02*
X96200000Y-114018750D01*
X110000000Y-142662500D02*
X110000000Y-151076250D01*
X103047500Y-121866250D02*
X104602500Y-121866250D01*
X95077500Y-102816250D02*
X95712500Y-103451250D01*
X104602500Y-122183750D02*
X105237500Y-122818750D01*
X95712500Y-103451250D02*
X95712500Y-112976250D01*
X118890000Y-159966250D02*
X117263655Y-159966250D01*
%TO.N,COL_4*%
X123652500Y-122183750D02*
X124287500Y-122818750D01*
X173658750Y-173777500D02*
X173658750Y-179016250D01*
X115450000Y-114518750D02*
X114700000Y-115268750D01*
X140956250Y-166475000D02*
X166356250Y-166475000D01*
X121297500Y-121866250D02*
X123652500Y-121866250D01*
X123652500Y-121866250D02*
X123652500Y-122183750D01*
X114127500Y-102816250D02*
X114762500Y-103451250D01*
X129050000Y-141551250D02*
X129050000Y-151076250D01*
X129050000Y-151076250D02*
X137940000Y-159966250D01*
X124287500Y-136788750D02*
X128415000Y-140916250D01*
X114762500Y-113831250D02*
X115450000Y-114518750D01*
X124287500Y-122818750D02*
X124287500Y-136788750D01*
X114762500Y-103451250D02*
X114762500Y-113831250D01*
X128415000Y-140916250D02*
X129050000Y-141551250D01*
X166356250Y-166475000D02*
X173658750Y-173777500D01*
X138575000Y-160601250D02*
X138575000Y-164093750D01*
X114700000Y-115268750D02*
X121297500Y-121866250D01*
X138575000Y-164093750D02*
X140956250Y-166475000D01*
X137940000Y-159966250D02*
X138575000Y-160601250D01*
%TO.N,COL_5*%
X147465000Y-141233750D02*
X148100000Y-141868750D01*
X133700000Y-115268750D02*
X133700000Y-115518750D01*
X133950000Y-115018750D02*
X133700000Y-115268750D01*
X133700000Y-114768750D02*
X133950000Y-115018750D01*
X133700000Y-115518750D02*
X140047500Y-121866250D01*
X147465000Y-140916250D02*
X147465000Y-141233750D01*
X140047500Y-121866250D02*
X142702500Y-121866250D01*
X143337500Y-122818750D02*
X143337500Y-136788750D01*
X142702500Y-122183750D02*
X143337500Y-122818750D01*
X133177500Y-102816250D02*
X133812500Y-103451250D01*
X133177500Y-102816250D02*
X133700000Y-103338750D01*
X148100000Y-141868750D02*
X148100000Y-151076250D01*
X143337500Y-136788750D02*
X147465000Y-140916250D01*
X133700000Y-103338750D02*
X133700000Y-114768750D01*
X148100000Y-151076250D02*
X156990000Y-159966250D01*
X142702500Y-121866250D02*
X142702500Y-122183750D01*
%TO.N,COL_6*%
X167150000Y-151076250D02*
X176040000Y-159966250D01*
X152862500Y-103451250D02*
X152227500Y-102816250D01*
X162387500Y-136788750D02*
X166515000Y-140916250D01*
X161752500Y-121866250D02*
X162387500Y-122501250D01*
X166515000Y-140916250D02*
X167150000Y-141551250D01*
X167150000Y-141551250D02*
X167150000Y-151076250D01*
X155155000Y-115268750D02*
X152862500Y-112976250D01*
X162387500Y-122501250D02*
X162387500Y-136788750D01*
X155700000Y-115813750D02*
X161752500Y-121866250D01*
X155700000Y-115268750D02*
X155700000Y-115813750D01*
X155700000Y-115268750D02*
X155155000Y-115268750D01*
X152862500Y-112976250D02*
X152862500Y-103451250D01*
%TO.N,COL_7*%
X186200000Y-141551250D02*
X186200000Y-151076250D01*
X181437500Y-136788750D02*
X185565000Y-140916250D01*
X185565000Y-140916250D02*
X186200000Y-141551250D01*
X186200000Y-151076250D02*
X195090000Y-159966250D01*
X174950000Y-116013750D02*
X180802500Y-121866250D01*
X181437500Y-122501250D02*
X181437500Y-136788750D01*
X174950000Y-115668750D02*
X174950000Y-116013750D01*
X180802500Y-121866250D02*
X181437500Y-122501250D01*
X174950000Y-115668750D02*
X174605000Y-115668750D01*
X171912500Y-103451250D02*
X171277500Y-102816250D01*
X171912500Y-112976250D02*
X171912500Y-103451250D01*
X174605000Y-115668750D02*
X171912500Y-112976250D01*
%TO.N,COL_8*%
X200487500Y-136788750D02*
X204615000Y-140916250D01*
X193493750Y-109475000D02*
X193493750Y-109812500D01*
X205250000Y-141551250D02*
X205250000Y-144250000D01*
X193493750Y-109812500D02*
X199852500Y-116171250D01*
X200487500Y-122501250D02*
X200487500Y-136788750D01*
X205250000Y-144250000D02*
X206043750Y-145043750D01*
X342050000Y-112268750D02*
X342050000Y-110668750D01*
X199852500Y-121866250D02*
X200487500Y-122501250D01*
X193493750Y-109475000D02*
X190962500Y-106943750D01*
X199852500Y-116171250D02*
X199852500Y-121866250D01*
X206043750Y-151870000D02*
X214140000Y-159966250D01*
X206043750Y-145043750D02*
X206043750Y-151870000D01*
X190962500Y-106943750D02*
X190962500Y-103451250D01*
X204615000Y-140916250D02*
X205250000Y-141551250D01*
X190962500Y-103451250D02*
X190327500Y-102816250D01*
X342050000Y-110668750D02*
X340950000Y-109568750D01*
%TO.N,COL_9*%
X341450000Y-111018750D02*
X340950000Y-110518750D01*
X224300000Y-151076250D02*
X233190000Y-159966250D01*
X223665000Y-140916250D02*
X224300000Y-141551250D01*
X219537500Y-122501250D02*
X219537500Y-136788750D01*
X218902500Y-121866250D02*
X219537500Y-122501250D01*
X233190000Y-159966250D02*
X233825000Y-160601250D01*
X210450000Y-110118750D02*
X210012500Y-109681250D01*
X219537500Y-136788750D02*
X223665000Y-140916250D01*
X245096250Y-174571250D02*
X245096250Y-179016250D01*
X210012500Y-103451250D02*
X209377500Y-102816250D01*
X233825000Y-160601250D02*
X233825000Y-163300000D01*
X210450000Y-110118750D02*
X209950000Y-110618750D01*
X209950000Y-112913750D02*
X218902500Y-121866250D01*
X341450000Y-113518750D02*
X341450000Y-111018750D01*
X233825000Y-163300000D02*
X245096250Y-174571250D01*
X210012500Y-109681250D02*
X210012500Y-103451250D01*
X209950000Y-110618750D02*
X209950000Y-112913750D01*
X340950000Y-110518750D02*
X340700000Y-110518750D01*
X224300000Y-141551250D02*
X224300000Y-151076250D01*
%TO.N,COL_10*%
X239200000Y-133018750D02*
X238587500Y-132406250D01*
X252240000Y-159966250D02*
X252875000Y-160601250D01*
X238587500Y-133631250D02*
X238587500Y-136788750D01*
X243350000Y-141551250D02*
X243350000Y-151076250D01*
X238587500Y-132406250D02*
X238587500Y-122501250D01*
X229062500Y-103451250D02*
X229062500Y-112976250D01*
X242715000Y-140916250D02*
X243350000Y-141551250D01*
X252875000Y-160601250D02*
X252875000Y-164887500D01*
X238587500Y-122501250D02*
X237952500Y-121866250D01*
X238587500Y-136788750D02*
X242715000Y-140916250D01*
X253668750Y-165681250D02*
X255573750Y-165681250D01*
X229062500Y-112976250D02*
X237952500Y-121866250D01*
X255573750Y-165681250D02*
X268908750Y-179016250D01*
X243350000Y-151076250D02*
X252240000Y-159966250D01*
X333700000Y-116018750D02*
X334450000Y-115268750D01*
X239200000Y-133018750D02*
X238587500Y-133631250D01*
X228427500Y-102816250D02*
X229062500Y-103451250D01*
X333700000Y-133018750D02*
X333700000Y-116018750D01*
X252875000Y-164887500D02*
X253668750Y-165681250D01*
%TO.N,COL_11*%
X271290000Y-159966250D02*
X271925000Y-160601250D01*
X248112500Y-112976250D02*
X257002500Y-121866250D01*
X257637500Y-122501250D02*
X257002500Y-121866250D01*
X262400000Y-141551250D02*
X262400000Y-151076250D01*
X258200000Y-133618750D02*
X257637500Y-134181250D01*
X271925000Y-160601250D02*
X271925000Y-164093750D01*
X334450000Y-117518750D02*
X334950000Y-117018750D01*
X258200000Y-133618750D02*
X257637500Y-133056250D01*
X286847500Y-179016250D02*
X292721250Y-179016250D01*
X247477500Y-102816250D02*
X248112500Y-103451250D01*
X257637500Y-133056250D02*
X257637500Y-122501250D01*
X334450000Y-133518750D02*
X334450000Y-117518750D01*
X248112500Y-103451250D02*
X248112500Y-112976250D01*
X261765000Y-140916250D02*
X262400000Y-141551250D01*
X262400000Y-151076250D02*
X271290000Y-159966250D01*
X271925000Y-164093750D02*
X286847500Y-179016250D01*
X257637500Y-134181250D02*
X257637500Y-136788750D01*
X257637500Y-136788750D02*
X261765000Y-140916250D01*
%TO.N,COL_12*%
X302246250Y-159966250D02*
X302881250Y-160601250D01*
X302881250Y-167745000D02*
X314152500Y-179016250D01*
X291768750Y-158537500D02*
X300817500Y-158537500D01*
X266527500Y-102816250D02*
X267162500Y-103451250D01*
X276687500Y-133506250D02*
X276687500Y-122501250D01*
X277200000Y-134018750D02*
X276687500Y-134531250D01*
X335450000Y-117768750D02*
X335950000Y-117268750D01*
X335450000Y-133768750D02*
X335450000Y-117768750D01*
X302881250Y-160601250D02*
X302881250Y-167745000D01*
X276687500Y-122501250D02*
X276052500Y-121866250D01*
X267162500Y-103451250D02*
X267162500Y-112976250D01*
X267162500Y-112976250D02*
X276052500Y-121866250D01*
X290181250Y-154202736D02*
X290181250Y-156950000D01*
X277200000Y-134018750D02*
X276687500Y-133506250D01*
X276687500Y-134531250D02*
X276687500Y-136788750D01*
X281450000Y-141551250D02*
X281450000Y-145471486D01*
X280815000Y-140916250D02*
X281450000Y-141551250D01*
X290181250Y-156950000D02*
X291768750Y-158537500D01*
X276687500Y-136788750D02*
X280815000Y-140916250D01*
X281450000Y-145471486D02*
X290181250Y-154202736D01*
X300817500Y-158537500D02*
X302246250Y-159966250D01*
%TO.N,COL_13*%
X305818750Y-132418750D02*
X305337500Y-132418750D01*
X285577500Y-102816250D02*
X285577500Y-103133750D01*
X305818750Y-132900000D02*
X311771250Y-138852500D01*
X332950000Y-114170221D02*
X334351471Y-112768750D01*
X286212500Y-112976250D02*
X295102500Y-121866250D01*
X311771250Y-138852500D02*
X311771250Y-140916250D01*
X295737500Y-127581250D02*
X295737500Y-122501250D01*
X301293750Y-128375000D02*
X296531250Y-128375000D01*
X332950000Y-132519670D02*
X332950000Y-114170221D01*
X286212500Y-103768750D02*
X286212500Y-112976250D01*
X285577500Y-103133750D02*
X286212500Y-103768750D01*
X334351471Y-112768750D02*
X334700000Y-112768750D01*
X295737500Y-122501250D02*
X295102500Y-121866250D01*
X305337500Y-132418750D02*
X301293750Y-128375000D01*
X296531250Y-128375000D02*
X295737500Y-127581250D01*
X305818750Y-132418750D02*
X305818750Y-132900000D01*
%TO.N,COL_14*%
X323200000Y-132018750D02*
X322725000Y-131543750D01*
X314152500Y-102816250D02*
X314787500Y-103451250D01*
X319550000Y-123612500D02*
X319550000Y-122501250D01*
X329710000Y-159966250D02*
X333202500Y-159966250D01*
X322725000Y-131543750D02*
X322725000Y-130756250D01*
X333837500Y-160601250D02*
X333837500Y-163300000D01*
X322725000Y-132493750D02*
X322725000Y-152981250D01*
X333837500Y-163300000D02*
X333202500Y-163935000D01*
X332200000Y-116018750D02*
X332550000Y-116368750D01*
X322725000Y-130756250D02*
X319571250Y-127602500D01*
X322725000Y-152981250D02*
X329710000Y-159966250D01*
X314787500Y-117738750D02*
X318915000Y-121866250D01*
X314787500Y-103451250D02*
X314787500Y-117738750D01*
X333202500Y-163935000D02*
X333202500Y-179016250D01*
X333202500Y-159966250D02*
X333837500Y-160601250D01*
X323200000Y-132018750D02*
X322725000Y-132493750D01*
X332550000Y-131753463D02*
X332350000Y-131953463D01*
X319550000Y-122501250D02*
X318915000Y-121866250D01*
X319571250Y-127602500D02*
X319571250Y-123633750D01*
X332550000Y-116368750D02*
X332550000Y-131753463D01*
X319571250Y-123633750D02*
X319550000Y-123612500D01*
%TO.N,COL_15*%
X362412500Y-106943750D02*
X361777500Y-107578750D01*
X361777500Y-121866250D02*
X362200000Y-122288750D01*
X359750000Y-171518750D02*
X352252500Y-179016250D01*
X362200000Y-125018750D02*
X359750000Y-127468750D01*
X340450000Y-120318750D02*
X339250000Y-119118750D01*
X340850000Y-137418750D02*
X340450000Y-137018750D01*
X362200000Y-122288750D02*
X362200000Y-125018750D01*
X362412500Y-103451250D02*
X362412500Y-106943750D01*
X359750000Y-127468750D02*
X359750000Y-171518750D01*
X339250000Y-119118750D02*
X339250000Y-117818750D01*
X361777500Y-107578750D02*
X361777500Y-121866250D01*
X361777500Y-102816250D02*
X362412500Y-103451250D01*
X340450000Y-137018750D02*
X340450000Y-120318750D01*
%TO.N,Net-(U3-USB_DP)*%
X356450000Y-123018750D02*
X354950000Y-124518750D01*
X354950000Y-124518750D02*
X354950000Y-128094053D01*
X354600000Y-116267279D02*
X356450000Y-118117279D01*
X356450000Y-118117279D02*
X356450000Y-123018750D01*
X347450000Y-106668750D02*
X350350000Y-106668750D01*
X354600000Y-110918750D02*
X354600000Y-116267279D01*
X350350000Y-106668750D02*
X354600000Y-110918750D01*
%TO.N,Net-(U2-~{CS})*%
X341925000Y-137493750D02*
X341925000Y-143518750D01*
X341050000Y-136618750D02*
X341050000Y-127218750D01*
X341050000Y-136618750D02*
X341925000Y-137493750D01*
%TO.N,Net-(U3-USB_DM)*%
X354484314Y-124418750D02*
X356050000Y-122853064D01*
X354200000Y-116432965D02*
X354200000Y-114902630D01*
X354200000Y-114902630D02*
X345958060Y-106660690D01*
X354484314Y-127684436D02*
X354484314Y-124418750D01*
X356050000Y-118282965D02*
X354200000Y-116432965D01*
X354150000Y-128018750D02*
X354484314Y-127684436D01*
X356050000Y-122853064D02*
X356050000Y-118282965D01*
%TO.N,Net-(U3-RUN)*%
X348350000Y-114368750D02*
X342400000Y-114368750D01*
X342450000Y-138218750D02*
X343450000Y-139218750D01*
X343950000Y-143268750D02*
X343950000Y-148268750D01*
X348351471Y-114367279D02*
X348350000Y-114368750D01*
X342400000Y-114368750D02*
X342150000Y-114618750D01*
X342150000Y-114918750D02*
X342450000Y-115218750D01*
X342450000Y-115218750D02*
X342450000Y-138218750D01*
X342150000Y-114618750D02*
X342150000Y-114918750D01*
%TO.N,ROW_5*%
X338350000Y-119018750D02*
X338350000Y-118018750D01*
X339950000Y-120618750D02*
X338350000Y-119018750D01*
X348950000Y-164518750D02*
X348950000Y-156268750D01*
X347950000Y-183768750D02*
X347950000Y-165518750D01*
X348950000Y-156268750D02*
X339950000Y-147268750D01*
X347950000Y-165518750D02*
X348950000Y-164518750D01*
X339950000Y-147268750D02*
X339950000Y-120618750D01*
%TO.N,ROW_3*%
X338200000Y-145518750D02*
X337350000Y-144668750D01*
X337350000Y-115237376D02*
X339384313Y-113203063D01*
X337350000Y-144668750D02*
X337350000Y-115237376D01*
%TO.N,ROW_4*%
X338448529Y-146118750D02*
X338800000Y-145767279D01*
X347950000Y-164518750D02*
X348450000Y-164018750D01*
X348450000Y-156367279D02*
X338201471Y-146118750D01*
X338201471Y-146118750D02*
X338448529Y-146118750D01*
X348450000Y-164018750D02*
X348450000Y-156367279D01*
X338800000Y-145270221D02*
X337750000Y-144220221D01*
X338800000Y-145767279D02*
X338800000Y-145270221D01*
X337750000Y-115968750D02*
X339950000Y-113768750D01*
X337750000Y-144220221D02*
X337750000Y-115968750D01*
%TO.N,3v3*%
X346012500Y-124429779D02*
X349193967Y-127611246D01*
X347200000Y-113768750D02*
X343851471Y-113768750D01*
X348998529Y-113767279D02*
X347201471Y-113767279D01*
X351450000Y-120418750D02*
X349650000Y-120418750D01*
X349450000Y-131018750D02*
X352500000Y-134068750D01*
X347201471Y-113767279D02*
X347200000Y-113768750D01*
X352500000Y-134068750D02*
X352500000Y-135518750D01*
X343100000Y-113017279D02*
X343100000Y-108918750D01*
X349650000Y-120418750D02*
X346012500Y-124056250D01*
X341605619Y-117763131D02*
X341605619Y-114511660D01*
X346012500Y-124056250D02*
X346012500Y-124429779D01*
X341605619Y-117763131D02*
X341350000Y-118018750D01*
X341350000Y-118018750D02*
X341350000Y-122118750D01*
X351450000Y-116218750D02*
X348998529Y-113767279D01*
X349193967Y-127611246D02*
X349634506Y-127611246D01*
X343100000Y-108918750D02*
X341200000Y-107018750D01*
X351450000Y-120418750D02*
X351450000Y-116218750D01*
X341605619Y-114511660D02*
X343100000Y-113017279D01*
X343851471Y-113768750D02*
X343100000Y-113017279D01*
%TO.N,ROW_2*%
X355450000Y-128718750D02*
X355550000Y-128618750D01*
X356850000Y-117668750D02*
X355200000Y-116018750D01*
X356850000Y-123218750D02*
X356850000Y-117668750D01*
X355550000Y-124518750D02*
X356850000Y-123218750D01*
X355550000Y-128618750D02*
X355550000Y-124518750D01*
%TD*%
M02*
