M48
; DRILL file {KiCad 8.0.2} date 2024-06-13T00:17:38-0700
; FORMAT={-:-/ absolute / inch / decimal}
; #@! TF.CreationDate,2024-06-13T00:17:38-07:00
; #@! TF.GenerationSoftware,Kicad,Pcbnew,8.0.2
; #@! TF.FileFunction,NonPlated,1,2,NPTH
FMAT,2
INCH
; #@! TA.AperFunction,NonPlated,NPTH,ComponentDrill
T1C0.0256
; #@! TA.AperFunction,NonPlated,NPTH,ComponentDrill
T2C0.0689
; #@! TA.AperFunction,NonPlated,NPTH,ComponentDrill
T3C0.1200
; #@! TA.AperFunction,NonPlated,NPTH,ComponentDrill
T4C0.1570
%
G90
G05
T1
X13.4022Y-3.6773
X13.6297Y-3.6773
T2
X2.0521Y-3.8149
X2.1459Y-6.8149
X2.2396Y-4.5649
X2.3334Y-5.3149
X2.4521Y-3.8149
X2.5209Y-6.0649
X2.5459Y-6.8149
X2.6396Y-4.5649
X2.7334Y-5.3149
X2.8021Y-3.8149
X2.9209Y-6.0649
X2.9896Y-6.8149
X3.1771Y-4.5649
X3.2021Y-3.8149
X3.3646Y-5.3149
X3.3896Y-6.8149
X3.5521Y-3.8149
X3.5771Y-4.5649
X3.7396Y-6.0649
X3.7646Y-5.3149
X3.8334Y-6.8149
X3.9271Y-4.5649
X3.9521Y-3.8149
X4.1146Y-5.3149
X4.1396Y-6.0649
X4.2334Y-6.8149
X4.3021Y-3.8149
X4.3271Y-4.5649
X4.4896Y-6.0649
X4.5146Y-5.3149
X4.6771Y-4.5649
X4.7021Y-3.8149
X4.8646Y-5.3149
X4.8896Y-6.0649
X5.0521Y-3.8149
X5.0771Y-4.5649
X5.2396Y-6.0649
X5.2646Y-5.3149
X5.4271Y-4.5649
X5.4521Y-3.8149
X5.6146Y-5.3149
X5.6396Y-6.0649
X5.8021Y-3.8149
X5.8271Y-4.5649
X5.9896Y-6.0649
X6.0146Y-5.3149
X6.1771Y-4.5649
X6.2021Y-3.8149
X6.3646Y-5.3149
X6.3896Y-6.0649
X6.5521Y-3.8149
X6.5771Y-4.5649
X6.6459Y-6.8149
X6.7396Y-6.0649
X6.7646Y-5.3149
X6.9271Y-4.5649
X6.9521Y-3.8149
X7.0459Y-6.8149
X7.1146Y-5.3149
X7.1396Y-6.0649
X7.3021Y-3.8149
X7.3271Y-4.5649
X7.4896Y-6.0649
X7.5146Y-5.3149
X7.6771Y-4.5649
X7.7021Y-3.8149
X7.8646Y-5.3149
X7.8896Y-6.0649
X8.0521Y-3.8149
X8.0771Y-4.5649
X8.2396Y-6.0649
X8.2646Y-5.3149
X8.4271Y-4.5649
X8.4521Y-3.8149
X8.6146Y-5.3149
X8.6396Y-6.0649
X8.8021Y-3.8149
X8.8271Y-4.5649
X8.9896Y-6.0649
X9.0146Y-5.3149
X9.1771Y-4.5649
X9.2021Y-3.8149
X9.3646Y-5.3149
X9.3896Y-6.0649
X9.4584Y-6.8149
X9.5521Y-3.8149
X9.5771Y-4.5649
X9.7396Y-6.0649
X9.7646Y-5.3149
X9.8584Y-6.8149
X9.9271Y-4.5649
X9.9521Y-3.8149
X10.1146Y-5.3149
X10.1396Y-6.0649
X10.3021Y-3.8149
X10.3271Y-4.5649
X10.3959Y-6.8149
X10.4896Y-6.0649
X10.5146Y-5.3149
X10.6771Y-4.5649
X10.7021Y-3.8149
X10.7959Y-6.8149
X10.8646Y-5.3149
X10.8896Y-6.0649
X11.0521Y-3.8149
X11.0771Y-4.5649
X11.2646Y-5.3149
X11.3334Y-6.8149
X11.4271Y-4.5649
X11.4521Y-3.8149
X11.7084Y-6.0649
X11.7334Y-6.8149
X11.8271Y-4.5649
X12.0834Y-5.3149
X12.1084Y-6.0649
X12.1771Y-3.8149
X12.1771Y-6.8149
X12.3646Y-4.5649
X12.4834Y-5.3149
X12.5771Y-3.8149
X12.5771Y-6.8149
X12.7646Y-4.5649
X12.9271Y-6.0649
X12.9271Y-6.8149
X13.3271Y-6.0649
X13.3271Y-6.8149
X13.6771Y-6.8149
X14.0521Y-3.8149
X14.0521Y-4.5649
X14.0771Y-6.8149
X14.4521Y-3.8149
X14.4521Y-4.5649
T3
X2.2521Y-5.7899
X3.1896Y-5.7899
X11.4396Y-5.7899
X11.8146Y-5.0399
X11.9084Y-3.5399
X12.3771Y-5.7899
X12.7521Y-5.0399
X12.8459Y-3.5399
T4
X2.2521Y-3.8149
X2.2521Y-6.3899
X2.3459Y-6.8149
X2.4396Y-4.5649
X2.5334Y-5.3149
X2.7209Y-6.0649
X3.0021Y-3.8149
X3.1896Y-6.3899
X3.1896Y-6.8149
X3.3771Y-4.5649
X3.5646Y-5.3149
X3.7521Y-3.8149
X3.9396Y-6.0649
X4.0334Y-6.8149
X4.1271Y-4.5649
X4.3146Y-5.3149
X4.5021Y-3.8149
X4.6896Y-6.0649
X4.8771Y-4.5649
X4.8771Y-7.1399
X5.0646Y-5.3149
X5.2521Y-3.8149
X5.4396Y-6.0649
X5.6271Y-4.5649
X5.8146Y-5.3149
X6.0021Y-3.8149
X6.1896Y-6.0649
X6.3771Y-4.5649
X6.5646Y-5.3149
X6.7521Y-3.8149
X6.8459Y-6.8149
X6.9396Y-6.0649
X7.1271Y-4.5649
X7.3146Y-5.3149
X7.5021Y-3.8149
X7.6896Y-6.0649
X7.8771Y-4.5649
X8.0646Y-5.3149
X8.2521Y-3.8149
X8.4396Y-6.0649
X8.6271Y-4.5649
X8.8146Y-5.3149
X8.8146Y-7.1399
X9.0021Y-3.8149
X9.1896Y-6.0649
X9.3771Y-4.5649
X9.5646Y-5.3149
X9.6584Y-6.8149
X9.7521Y-3.8149
X9.9396Y-6.0649
X10.1271Y-4.5649
X10.3146Y-5.3149
X10.5021Y-3.8149
X10.5959Y-6.8149
X10.6896Y-6.0649
X10.8771Y-4.5649
X11.0646Y-5.3149
X11.2521Y-3.8149
X11.4396Y-6.3899
X11.5334Y-6.8149
X11.6271Y-4.5649
X11.8146Y-5.6399
X11.9084Y-4.1399
X11.9084Y-6.0649
X12.2834Y-5.3149
X12.3771Y-3.8149
X12.3771Y-6.3899
X12.3771Y-6.8149
X12.5646Y-4.5649
X12.7521Y-5.6399
X12.8459Y-4.1399
X13.1271Y-6.0649
X13.1271Y-6.8149
X13.8771Y-6.8149
X14.2521Y-3.8149
X14.2521Y-4.5649
M30
