%TF.GenerationSoftware,KiCad,Pcbnew,8.0.2*%
%TF.CreationDate,2024-06-20T11:33:06-07:00*%
%TF.ProjectId,keyboard_pcb,6b657962-6f61-4726-945f-7063622e6b69,1.0*%
%TF.SameCoordinates,Original*%
%TF.FileFunction,Soldermask,Bot*%
%TF.FilePolarity,Negative*%
%FSLAX46Y46*%
G04 Gerber Fmt 4.6, Leading zero omitted, Abs format (unit mm)*
G04 Created by KiCad (PCBNEW 8.0.2) date 2024-06-20 11:33:06*
%MOMM*%
%LPD*%
G01*
G04 APERTURE LIST*
G04 Aperture macros list*
%AMRoundRect*
0 Rectangle with rounded corners*
0 $1 Rounding radius*
0 $2 $3 $4 $5 $6 $7 $8 $9 X,Y pos of 4 corners*
0 Add a 4 corners polygon primitive as box body*
4,1,4,$2,$3,$4,$5,$6,$7,$8,$9,$2,$3,0*
0 Add four circle primitives for the rounded corners*
1,1,$1+$1,$2,$3*
1,1,$1+$1,$4,$5*
1,1,$1+$1,$6,$7*
1,1,$1+$1,$8,$9*
0 Add four rect primitives between the rounded corners*
20,1,$1+$1,$2,$3,$4,$5,0*
20,1,$1+$1,$4,$5,$6,$7,0*
20,1,$1+$1,$6,$7,$8,$9,0*
20,1,$1+$1,$8,$9,$2,$3,0*%
G04 Aperture macros list end*
%ADD10RoundRect,0.135000X0.135000X0.185000X-0.135000X0.185000X-0.135000X-0.185000X0.135000X-0.185000X0*%
%ADD11RoundRect,0.135000X0.185000X-0.135000X0.185000X0.135000X-0.185000X0.135000X-0.185000X-0.135000X0*%
%ADD12RoundRect,0.135000X-0.135000X-0.185000X0.135000X-0.185000X0.135000X0.185000X-0.135000X0.185000X0*%
%ADD13C,1.750000*%
%ADD14C,3.987800*%
%ADD15C,2.300000*%
%ADD16C,3.048000*%
%ADD17C,4.000000*%
%ADD18RoundRect,0.140000X0.140000X0.170000X-0.140000X0.170000X-0.140000X-0.170000X0.140000X-0.170000X0*%
%ADD19RoundRect,0.225000X0.375000X-0.225000X0.375000X0.225000X-0.375000X0.225000X-0.375000X-0.225000X0*%
%ADD20RoundRect,0.140000X-0.140000X-0.170000X0.140000X-0.170000X0.140000X0.170000X-0.140000X0.170000X0*%
%ADD21R,1.400000X1.200000*%
%ADD22C,2.000000*%
%ADD23RoundRect,0.140000X0.170000X-0.140000X0.170000X0.140000X-0.170000X0.140000X-0.170000X-0.140000X0*%
%ADD24RoundRect,0.050000X-0.387500X-0.050000X0.387500X-0.050000X0.387500X0.050000X-0.387500X0.050000X0*%
%ADD25RoundRect,0.050000X-0.050000X-0.387500X0.050000X-0.387500X0.050000X0.387500X-0.050000X0.387500X0*%
%ADD26RoundRect,0.144000X-1.456000X-1.456000X1.456000X-1.456000X1.456000X1.456000X-1.456000X1.456000X0*%
%ADD27RoundRect,0.140000X-0.170000X0.140000X-0.170000X-0.140000X0.170000X-0.140000X0.170000X0.140000X0*%
%ADD28RoundRect,0.375000X-0.375000X0.625000X-0.375000X-0.625000X0.375000X-0.625000X0.375000X0.625000X0*%
%ADD29RoundRect,0.500000X-1.400000X0.500000X-1.400000X-0.500000X1.400000X-0.500000X1.400000X0.500000X0*%
%ADD30RoundRect,0.150000X-0.150000X0.650000X-0.150000X-0.650000X0.150000X-0.650000X0.150000X0.650000X0*%
%ADD31C,0.650000*%
%ADD32R,0.600000X1.450000*%
%ADD33R,0.300000X1.450000*%
%ADD34O,1.000000X1.600000*%
%ADD35O,1.000000X2.100000*%
G04 APERTURE END LIST*
D10*
%TO.C,R8*%
X339910000Y-132600000D03*
X338890000Y-132600000D03*
%TD*%
%TO.C,R7*%
X343310000Y-104775000D03*
X342290000Y-104775000D03*
%TD*%
%TO.C,R6*%
X341601465Y-130060366D03*
X340581465Y-130060366D03*
%TD*%
D11*
%TO.C,R5*%
X343116465Y-97704690D03*
X343116465Y-96684690D03*
%TD*%
D10*
%TO.C,R4*%
X354537179Y-139010366D03*
X353517179Y-139010366D03*
%TD*%
D11*
%TO.C,R3*%
X344366465Y-97701317D03*
X344366465Y-96681317D03*
%TD*%
D12*
%TO.C,R2*%
X345490000Y-97060366D03*
X346510000Y-97060366D03*
%TD*%
D10*
%TO.C,R1*%
X341310000Y-97310366D03*
X340290000Y-97310366D03*
%TD*%
D13*
%TO.C,MX11*%
X242623965Y-96897866D03*
D14*
X247703965Y-96897866D03*
D13*
X252783965Y-96897866D03*
D15*
X243893965Y-94357866D03*
X250243965Y-91817866D03*
%TD*%
D13*
%TO.C,MX18*%
X99748965Y-115947866D03*
D14*
X104828965Y-115947866D03*
D13*
X109908965Y-115947866D03*
D15*
X101018965Y-113407866D03*
X107368965Y-110867866D03*
%TD*%
D13*
%TO.C,MX8*%
X185473965Y-96897866D03*
D14*
X190553965Y-96897866D03*
D13*
X195633965Y-96897866D03*
D15*
X186743965Y-94357866D03*
X193093965Y-91817866D03*
%TD*%
D13*
%TO.C,MX65*%
X328348965Y-173097866D03*
D14*
X333428965Y-173097866D03*
D13*
X338508965Y-173097866D03*
D15*
X329618965Y-170557866D03*
X335968965Y-168017866D03*
%TD*%
D16*
%TO.C,S1*%
X302472715Y-89912866D03*
D14*
X302472715Y-105152866D03*
D16*
X326285215Y-89912866D03*
D14*
X326285215Y-105152866D03*
%TD*%
D13*
%TO.C,MX29*%
X314061465Y-115947866D03*
D14*
X319141465Y-115947866D03*
D13*
X324221465Y-115947866D03*
D15*
X315331465Y-113407866D03*
X321681465Y-110867866D03*
%TD*%
D13*
%TO.C,MX14*%
X309298965Y-96897866D03*
D14*
X314378965Y-96897866D03*
D13*
X319458965Y-96897866D03*
D15*
X310568965Y-94357866D03*
X316918965Y-91817866D03*
%TD*%
D13*
%TO.C,MX43*%
X306917715Y-134997866D03*
D14*
X311997715Y-134997866D03*
D13*
X317077715Y-134997866D03*
D15*
X308187715Y-132457866D03*
X314537715Y-129917866D03*
%TD*%
D13*
%TO.C,MX48*%
X152136465Y-154047866D03*
D14*
X157216465Y-154047866D03*
D13*
X162296465Y-154047866D03*
D15*
X153406465Y-151507866D03*
X159756465Y-148967866D03*
%TD*%
D16*
%TO.C,S4*%
X290566465Y-147062866D03*
D14*
X290566465Y-162302866D03*
D16*
X314378965Y-147062866D03*
D14*
X314378965Y-162302866D03*
%TD*%
D13*
%TO.C,MX15*%
X356923965Y-96897866D03*
D14*
X362003965Y-96897866D03*
D13*
X367083965Y-96897866D03*
D15*
X358193965Y-94357866D03*
X364543965Y-91817866D03*
%TD*%
D13*
%TO.C,MX49*%
X171186465Y-154047866D03*
D14*
X176266465Y-154047866D03*
D13*
X181346465Y-154047866D03*
D15*
X172456465Y-151507866D03*
X178806465Y-148967866D03*
%TD*%
D13*
%TO.C,MX59*%
X97367715Y-173097866D03*
D14*
X102447715Y-173097866D03*
D13*
X107527715Y-173097866D03*
D15*
X98637715Y-170557866D03*
X104987715Y-168017866D03*
%TD*%
D13*
%TO.C,MX3*%
X90223965Y-96897866D03*
D14*
X95303965Y-96897866D03*
D13*
X100383965Y-96897866D03*
D15*
X91493965Y-94357866D03*
X97843965Y-91817866D03*
%TD*%
D17*
%TO.C,S5*%
X123878965Y-166112866D03*
D14*
X123878965Y-181352866D03*
D17*
X223891465Y-166112866D03*
D14*
X223891465Y-181352866D03*
%TD*%
D13*
%TO.C,MX55*%
X297392715Y-154047866D03*
D14*
X302472715Y-154047866D03*
D13*
X307552715Y-154047866D03*
D15*
X298662715Y-151507866D03*
X305012715Y-148967866D03*
%TD*%
D13*
%TO.C,MX27*%
X271198965Y-115947866D03*
D14*
X276278965Y-115947866D03*
D13*
X281358965Y-115947866D03*
D15*
X272468965Y-113407866D03*
X278818965Y-110867866D03*
%TD*%
D13*
%TO.C,MX50*%
X190236465Y-154047866D03*
D14*
X195316465Y-154047866D03*
D13*
X200396465Y-154047866D03*
D15*
X191506465Y-151507866D03*
X197856465Y-148967866D03*
%TD*%
D13*
%TO.C,MX25*%
X233098965Y-115947866D03*
D14*
X238178965Y-115947866D03*
D13*
X243258965Y-115947866D03*
D15*
X234368965Y-113407866D03*
X240718965Y-110867866D03*
%TD*%
D13*
%TO.C,MX7*%
X166423965Y-96897866D03*
D14*
X171503965Y-96897866D03*
D13*
X176583965Y-96897866D03*
D15*
X167693965Y-94357866D03*
X174043965Y-91817866D03*
%TD*%
D13*
%TO.C,MX61*%
X240242715Y-173097866D03*
D14*
X245322715Y-173097866D03*
D13*
X250402715Y-173097866D03*
D15*
X241512715Y-170557866D03*
X247862715Y-168017866D03*
%TD*%
D13*
%TO.C,MX36*%
X161661465Y-134997866D03*
D14*
X166741465Y-134997866D03*
D13*
X171821465Y-134997866D03*
D15*
X162931465Y-132457866D03*
X169281465Y-129917866D03*
%TD*%
D13*
%TO.C,MX1*%
X52123965Y-96897866D03*
D14*
X57203965Y-96897866D03*
D13*
X62283965Y-96897866D03*
D15*
X53393965Y-94357866D03*
X59743965Y-91817866D03*
%TD*%
D13*
%TO.C,MX35*%
X142611465Y-134997866D03*
D14*
X147691465Y-134997866D03*
D13*
X152771465Y-134997866D03*
D15*
X143881465Y-132457866D03*
X150231465Y-129917866D03*
%TD*%
D13*
%TO.C,MX52*%
X228336465Y-154047866D03*
D14*
X233416465Y-154047866D03*
D13*
X238496465Y-154047866D03*
D15*
X229606465Y-151507866D03*
X235956465Y-148967866D03*
%TD*%
D16*
%TO.C,S2*%
X300091465Y-128012866D03*
D14*
X300091465Y-143252866D03*
D16*
X323903965Y-128012866D03*
D14*
X323903965Y-143252866D03*
%TD*%
D13*
%TO.C,MX20*%
X137848965Y-115947866D03*
D14*
X142928965Y-115947866D03*
D13*
X148008965Y-115947866D03*
D15*
X139118965Y-113407866D03*
X145468965Y-110867866D03*
%TD*%
D13*
%TO.C,MX31*%
X59267715Y-134997866D03*
D14*
X64347715Y-134997866D03*
D13*
X69427715Y-134997866D03*
D15*
X60537715Y-132457866D03*
X66887715Y-129917866D03*
%TD*%
D13*
%TO.C,MX4*%
X109273965Y-96897866D03*
D14*
X114353965Y-96897866D03*
D13*
X119433965Y-96897866D03*
D15*
X110543965Y-94357866D03*
X116893965Y-91817866D03*
%TD*%
D13*
%TO.C,MX19*%
X118798965Y-115947866D03*
D14*
X123878965Y-115947866D03*
D13*
X128958965Y-115947866D03*
D15*
X120068965Y-113407866D03*
X126418965Y-110867866D03*
%TD*%
D13*
%TO.C,MX34*%
X123561465Y-134997866D03*
D14*
X128641465Y-134997866D03*
D13*
X133721465Y-134997866D03*
D15*
X124831465Y-132457866D03*
X131181465Y-129917866D03*
%TD*%
D13*
%TO.C,MX46*%
X114036465Y-154047866D03*
D14*
X119116465Y-154047866D03*
D13*
X124196465Y-154047866D03*
D15*
X115306465Y-151507866D03*
X121656465Y-148967866D03*
%TD*%
D13*
%TO.C,MX53*%
X247386465Y-154047866D03*
D14*
X252466465Y-154047866D03*
D13*
X257546465Y-154047866D03*
D15*
X248656465Y-151507866D03*
X255006465Y-148967866D03*
%TD*%
D13*
%TO.C,MX16*%
X56886465Y-115947866D03*
D14*
X61966465Y-115947866D03*
D13*
X67046465Y-115947866D03*
D15*
X58156465Y-113407866D03*
X64506465Y-110867866D03*
%TD*%
D13*
%TO.C,MX38*%
X199761465Y-134997866D03*
D14*
X204841465Y-134997866D03*
D13*
X209921465Y-134997866D03*
D15*
X201031465Y-132457866D03*
X207381465Y-129917866D03*
%TD*%
D13*
%TO.C,MX64*%
X309298965Y-173097866D03*
D14*
X314378965Y-173097866D03*
D13*
X319458965Y-173097866D03*
D15*
X310568965Y-170557866D03*
X316918965Y-168017866D03*
%TD*%
D13*
%TO.C,MX41*%
X256911465Y-134997866D03*
D14*
X261991465Y-134997866D03*
D13*
X267071465Y-134997866D03*
D15*
X258181465Y-132457866D03*
X264531465Y-129917866D03*
%TD*%
D13*
%TO.C,MX21*%
X156898965Y-115947866D03*
D14*
X161978965Y-115947866D03*
D13*
X167058965Y-115947866D03*
D15*
X158168965Y-113407866D03*
X164518965Y-110867866D03*
%TD*%
D13*
%TO.C,MX56*%
X328348965Y-154047866D03*
D14*
X333428965Y-154047866D03*
D13*
X338508965Y-154047866D03*
D15*
X329618965Y-151507866D03*
X335968965Y-148967866D03*
%TD*%
D13*
%TO.C,MX23*%
X194998965Y-115947866D03*
D14*
X200078965Y-115947866D03*
D13*
X205158965Y-115947866D03*
D15*
X196268965Y-113407866D03*
X202618965Y-110867866D03*
%TD*%
D13*
%TO.C,MX51*%
X209286465Y-154047866D03*
D14*
X214366465Y-154047866D03*
D13*
X219446465Y-154047866D03*
D15*
X210556465Y-151507866D03*
X216906465Y-148967866D03*
%TD*%
D13*
%TO.C,MX58*%
X75936465Y-173097866D03*
D14*
X81016465Y-173097866D03*
D13*
X86096465Y-173097866D03*
D15*
X77206465Y-170557866D03*
X83556465Y-168017866D03*
%TD*%
D13*
%TO.C,MX40*%
X237861465Y-134997866D03*
D14*
X242941465Y-134997866D03*
D13*
X248021465Y-134997866D03*
D15*
X239131465Y-132457866D03*
X245481465Y-129917866D03*
%TD*%
D13*
%TO.C,MX32*%
X85461465Y-134997866D03*
D14*
X90541465Y-134997866D03*
D13*
X95621465Y-134997866D03*
D15*
X86731465Y-132457866D03*
X93081465Y-129917866D03*
%TD*%
D13*
%TO.C,MX5*%
X128323965Y-96897866D03*
D14*
X133403965Y-96897866D03*
D13*
X138483965Y-96897866D03*
D15*
X129593965Y-94357866D03*
X135943965Y-91817866D03*
%TD*%
D13*
%TO.C,MX10*%
X223573965Y-96897866D03*
D14*
X228653965Y-96897866D03*
D13*
X233733965Y-96897866D03*
D15*
X224843965Y-94357866D03*
X231193965Y-91817866D03*
%TD*%
D13*
%TO.C,MX66*%
X347398965Y-173097866D03*
D14*
X352478965Y-173097866D03*
D13*
X357558965Y-173097866D03*
D15*
X348668965Y-170557866D03*
X355018965Y-168017866D03*
%TD*%
D13*
%TO.C,MX33*%
X104511465Y-134997866D03*
D14*
X109591465Y-134997866D03*
D13*
X114671465Y-134997866D03*
D15*
X105781465Y-132457866D03*
X112131465Y-129917866D03*
%TD*%
D13*
%TO.C,MX44*%
X64030215Y-154047866D03*
D14*
X69110215Y-154047866D03*
D13*
X74190215Y-154047866D03*
D15*
X65300215Y-151507866D03*
X71650215Y-148967866D03*
%TD*%
D13*
%TO.C,MX30*%
X356923965Y-115947866D03*
D14*
X362003965Y-115947866D03*
D13*
X367083965Y-115947866D03*
D15*
X358193965Y-113407866D03*
X364543965Y-110867866D03*
%TD*%
D13*
%TO.C,MX12*%
X261673965Y-96897866D03*
D14*
X266753965Y-96897866D03*
D13*
X271833965Y-96897866D03*
D15*
X262943965Y-94357866D03*
X269293965Y-91817866D03*
%TD*%
D16*
%TO.C,S3*%
X57203965Y-147062866D03*
D14*
X57203965Y-162302866D03*
D16*
X81016465Y-147062866D03*
D14*
X81016465Y-162302866D03*
%TD*%
D13*
%TO.C,MX63*%
X287867715Y-173097866D03*
D14*
X292947715Y-173097866D03*
D13*
X298027715Y-173097866D03*
D15*
X289137715Y-170557866D03*
X295487715Y-168017866D03*
%TD*%
D13*
%TO.C,MX6*%
X147373965Y-96897866D03*
D14*
X152453965Y-96897866D03*
D13*
X157533965Y-96897866D03*
D15*
X148643965Y-94357866D03*
X154993965Y-91817866D03*
%TD*%
D13*
%TO.C,MX17*%
X80698965Y-115947866D03*
D14*
X85778965Y-115947866D03*
D13*
X90858965Y-115947866D03*
D15*
X81968965Y-113407866D03*
X88318965Y-110867866D03*
%TD*%
D13*
%TO.C,MX54*%
X266436465Y-154047866D03*
D14*
X271516465Y-154047866D03*
D13*
X276596465Y-154047866D03*
D15*
X267706465Y-151507866D03*
X274056465Y-148967866D03*
%TD*%
D13*
%TO.C,MX26*%
X252148965Y-115947866D03*
D14*
X257228965Y-115947866D03*
D13*
X262308965Y-115947866D03*
D15*
X253418965Y-113407866D03*
X259768965Y-110867866D03*
%TD*%
D13*
%TO.C,MX22*%
X175948965Y-115947866D03*
D14*
X181028965Y-115947866D03*
D13*
X186108965Y-115947866D03*
D15*
X177218965Y-113407866D03*
X183568965Y-110867866D03*
%TD*%
D13*
%TO.C,MX47*%
X133086465Y-154047866D03*
D14*
X138166465Y-154047866D03*
D13*
X143246465Y-154047866D03*
D15*
X134356465Y-151507866D03*
X140706465Y-148967866D03*
%TD*%
D13*
%TO.C,MX13*%
X280723965Y-96897866D03*
D14*
X285803965Y-96897866D03*
D13*
X290883965Y-96897866D03*
D15*
X281993965Y-94357866D03*
X288343965Y-91817866D03*
%TD*%
D13*
%TO.C,MX62*%
X264055215Y-173097866D03*
D14*
X269135215Y-173097866D03*
D13*
X274215215Y-173097866D03*
D15*
X265325215Y-170557866D03*
X271675215Y-168017866D03*
%TD*%
D13*
%TO.C,MX60*%
X168805215Y-173097866D03*
D14*
X173885215Y-173097866D03*
D13*
X178965215Y-173097866D03*
D15*
X170075215Y-170557866D03*
X176425215Y-168017866D03*
%TD*%
D13*
%TO.C,MX28*%
X290248965Y-115947866D03*
D14*
X295328965Y-115947866D03*
D13*
X300408965Y-115947866D03*
D15*
X291518965Y-113407866D03*
X297868965Y-110867866D03*
%TD*%
D13*
%TO.C,MX45*%
X94986465Y-154047866D03*
D14*
X100066465Y-154047866D03*
D13*
X105146465Y-154047866D03*
D15*
X96256465Y-151507866D03*
X102606465Y-148967866D03*
%TD*%
D13*
%TO.C,MX2*%
X71173965Y-96897866D03*
D14*
X76253965Y-96897866D03*
D13*
X81333965Y-96897866D03*
D15*
X72443965Y-94357866D03*
X78793965Y-91817866D03*
%TD*%
D13*
%TO.C,MX24*%
X214048965Y-115947866D03*
D14*
X219128965Y-115947866D03*
D13*
X224208965Y-115947866D03*
D15*
X215318965Y-113407866D03*
X221668965Y-110867866D03*
%TD*%
D13*
%TO.C,MX9*%
X204523965Y-96897866D03*
D14*
X209603965Y-96897866D03*
D13*
X214683965Y-96897866D03*
D15*
X205793965Y-94357866D03*
X212143965Y-91817866D03*
%TD*%
D13*
%TO.C,MX57*%
X54505215Y-173097866D03*
D14*
X59585215Y-173097866D03*
D13*
X64665215Y-173097866D03*
D15*
X55775215Y-170557866D03*
X62125215Y-168017866D03*
%TD*%
D13*
%TO.C,MX42*%
X275961465Y-134997866D03*
D14*
X281041465Y-134997866D03*
D13*
X286121465Y-134997866D03*
D15*
X277231465Y-132457866D03*
X283581465Y-129917866D03*
%TD*%
D13*
%TO.C,MX37*%
X180711465Y-134997866D03*
D14*
X185791465Y-134997866D03*
D13*
X190871465Y-134997866D03*
D15*
X181981465Y-132457866D03*
X188331465Y-129917866D03*
%TD*%
D13*
%TO.C,MX39*%
X218811465Y-134997866D03*
D14*
X223891465Y-134997866D03*
D13*
X228971465Y-134997866D03*
D15*
X220081465Y-132457866D03*
X226431465Y-129917866D03*
%TD*%
D18*
%TO.C,C3*%
X355000000Y-109750000D03*
X354040000Y-109750000D03*
%TD*%
D19*
%TO.C,D38*%
X212778965Y-137441616D03*
X212778965Y-134141616D03*
%TD*%
D20*
%TO.C,C11*%
X349006465Y-111540366D03*
X349966465Y-111540366D03*
%TD*%
D19*
%TO.C,D48*%
X165153965Y-156491616D03*
X165153965Y-153191616D03*
%TD*%
%TO.C,D52*%
X241353965Y-156491616D03*
X241353965Y-153191616D03*
%TD*%
D20*
%TO.C,C14*%
X341136465Y-133310366D03*
X342096465Y-133310366D03*
%TD*%
D19*
%TO.C,D30*%
X354066465Y-118391616D03*
X354066465Y-115091616D03*
%TD*%
D20*
%TO.C,C5*%
X347866465Y-110160366D03*
X348826465Y-110160366D03*
%TD*%
D19*
%TO.C,D2*%
X83397715Y-99341616D03*
X83397715Y-96041616D03*
%TD*%
%TO.C,D64*%
X322316465Y-175541616D03*
X322316465Y-172241616D03*
%TD*%
%TO.C,D59*%
X110385215Y-175541616D03*
X110385215Y-172241616D03*
%TD*%
%TO.C,D31*%
X72285215Y-137441616D03*
X72285215Y-134141616D03*
%TD*%
%TO.C,D20*%
X150866465Y-118391616D03*
X150866465Y-115091616D03*
%TD*%
%TO.C,D57*%
X67522715Y-175541616D03*
X67522715Y-172241616D03*
%TD*%
%TO.C,D41*%
X269928965Y-137441616D03*
X269928965Y-134141616D03*
%TD*%
%TO.C,D8*%
X198491465Y-99341616D03*
X198491465Y-96041616D03*
%TD*%
%TO.C,D16*%
X69903965Y-118391616D03*
X69903965Y-115091616D03*
%TD*%
%TO.C,D14*%
X322316465Y-99341616D03*
X322316465Y-96041616D03*
%TD*%
%TO.C,D6*%
X160391465Y-99341616D03*
X160391465Y-96041616D03*
%TD*%
D20*
%TO.C,C7*%
X349006465Y-114760366D03*
X349966465Y-114760366D03*
%TD*%
D19*
%TO.C,D1*%
X65141465Y-99341616D03*
X65141465Y-96041616D03*
%TD*%
%TO.C,D4*%
X122291465Y-99341616D03*
X122291465Y-96041616D03*
%TD*%
%TO.C,D39*%
X232622715Y-137441616D03*
X232622715Y-134141616D03*
%TD*%
%TO.C,D35*%
X155628965Y-137441616D03*
X155628965Y-134141616D03*
%TD*%
D21*
%TO.C,Y1*%
X345466465Y-103160366D03*
X343266465Y-103160366D03*
X343266465Y-101460366D03*
X345466465Y-101460366D03*
%TD*%
D20*
%TO.C,C12*%
X345770000Y-115500000D03*
X346730000Y-115500000D03*
%TD*%
D19*
%TO.C,D17*%
X93716465Y-118391616D03*
X93716465Y-115091616D03*
%TD*%
%TO.C,D37*%
X193728965Y-137441616D03*
X193728965Y-134141616D03*
%TD*%
%TO.C,D22*%
X188966465Y-118391616D03*
X188966465Y-115091616D03*
%TD*%
%TO.C,D43*%
X330253965Y-137441616D03*
X330253965Y-134141616D03*
%TD*%
D20*
%TO.C,C8*%
X349006465Y-115960366D03*
X349966465Y-115960366D03*
%TD*%
D19*
%TO.C,D29*%
X327078965Y-118391616D03*
X327078965Y-115091616D03*
%TD*%
%TO.C,D63*%
X300885215Y-175541616D03*
X300885215Y-172241616D03*
%TD*%
%TO.C,D60*%
X181822715Y-175541616D03*
X181822715Y-172241616D03*
%TD*%
%TO.C,D51*%
X222303965Y-156491616D03*
X222303965Y-153191616D03*
%TD*%
%TO.C,D3*%
X103241465Y-99341616D03*
X103241465Y-96041616D03*
%TD*%
%TO.C,D44*%
X87366465Y-156491616D03*
X87366465Y-153191616D03*
%TD*%
%TO.C,D47*%
X146103965Y-156491616D03*
X146103965Y-153191616D03*
%TD*%
D18*
%TO.C,C4*%
X355000000Y-112410366D03*
X354040000Y-112410366D03*
%TD*%
D19*
%TO.C,D40*%
X250878965Y-137441616D03*
X250878965Y-134141616D03*
%TD*%
%TO.C,D56*%
X341366465Y-156491616D03*
X341366465Y-153191616D03*
%TD*%
D18*
%TO.C,C15*%
X341616465Y-102560366D03*
X340656465Y-102560366D03*
%TD*%
D20*
%TO.C,C9*%
X349006465Y-117160366D03*
X349966465Y-117160366D03*
%TD*%
D19*
%TO.C,D54*%
X279453965Y-156491616D03*
X279453965Y-153191616D03*
%TD*%
D22*
%TO.C,SW1*%
X350837500Y-131893750D03*
X344337500Y-131893750D03*
X350837500Y-136393750D03*
X344337500Y-136393750D03*
%TD*%
D19*
%TO.C,D49*%
X184203965Y-156491616D03*
X184203965Y-153191616D03*
%TD*%
%TO.C,D25*%
X246116465Y-118391616D03*
X246116465Y-115091616D03*
%TD*%
%TO.C,D21*%
X169916465Y-118391616D03*
X169916465Y-115091616D03*
%TD*%
D18*
%TO.C,C1*%
X335346465Y-89060366D03*
X334386465Y-89060366D03*
%TD*%
D20*
%TO.C,C10*%
X349006465Y-112640366D03*
X349966465Y-112640366D03*
%TD*%
D19*
%TO.C,D28*%
X303266465Y-118391616D03*
X303266465Y-115091616D03*
%TD*%
%TO.C,D24*%
X227066465Y-118391616D03*
X227066465Y-115091616D03*
%TD*%
D23*
%TO.C,C2*%
X328266465Y-95040366D03*
X328266465Y-94080366D03*
%TD*%
D24*
%TO.C,U3*%
X339591465Y-113160366D03*
X339591465Y-112760366D03*
X339591465Y-112360366D03*
X339591465Y-111960366D03*
X339591465Y-111560366D03*
X339591465Y-111160366D03*
X339591465Y-110760366D03*
X339591465Y-110360366D03*
X339591465Y-109960366D03*
X339591465Y-109560366D03*
X339591465Y-109160366D03*
X339591465Y-108760366D03*
X339591465Y-108360366D03*
X339591465Y-107960366D03*
D25*
X340428965Y-107122866D03*
X340828965Y-107122866D03*
X341228965Y-107122866D03*
X341628965Y-107122866D03*
X342028965Y-107122866D03*
X342428965Y-107122866D03*
X342828965Y-107122866D03*
X343228965Y-107122866D03*
X343628965Y-107122866D03*
X344028965Y-107122866D03*
X344428965Y-107122866D03*
X344828965Y-107122866D03*
X345228965Y-107122866D03*
X345628965Y-107122866D03*
D24*
X346466465Y-107960366D03*
X346466465Y-108360366D03*
X346466465Y-108760366D03*
X346466465Y-109160366D03*
X346466465Y-109560366D03*
X346466465Y-109960366D03*
X346466465Y-110360366D03*
X346466465Y-110760366D03*
X346466465Y-111160366D03*
X346466465Y-111560366D03*
X346466465Y-111960366D03*
X346466465Y-112360366D03*
X346466465Y-112760366D03*
X346466465Y-113160366D03*
D25*
X345628965Y-113997866D03*
X345228965Y-113997866D03*
X344828965Y-113997866D03*
X344428965Y-113997866D03*
X344028965Y-113997866D03*
X343628965Y-113997866D03*
X343228965Y-113997866D03*
X342828965Y-113997866D03*
X342428965Y-113997866D03*
X342028965Y-113997866D03*
X341628965Y-113997866D03*
X341228965Y-113997866D03*
X340828965Y-113997866D03*
X340428965Y-113997866D03*
D26*
X343028965Y-110560366D03*
%TD*%
D19*
%TO.C,D53*%
X260403965Y-156491616D03*
X260403965Y-153191616D03*
%TD*%
%TO.C,D26*%
X265166465Y-118391616D03*
X265166465Y-115091616D03*
%TD*%
%TO.C,D45*%
X108003965Y-156491616D03*
X108003965Y-153191616D03*
%TD*%
%TO.C,D55*%
X320728965Y-156491616D03*
X320728965Y-153191616D03*
%TD*%
%TO.C,D33*%
X117528965Y-137441616D03*
X117528965Y-134141616D03*
%TD*%
D22*
%TO.C,SW2*%
X364866465Y-132010366D03*
X358366465Y-132010366D03*
X364866465Y-136510366D03*
X358366465Y-136510366D03*
%TD*%
D27*
%TO.C,C13*%
X347866465Y-113880366D03*
X347866465Y-114840366D03*
%TD*%
D19*
%TO.C,D9*%
X217541465Y-99341616D03*
X217541465Y-96041616D03*
%TD*%
%TO.C,D65*%
X341366465Y-175541616D03*
X341366465Y-172241616D03*
%TD*%
%TO.C,D32*%
X98478965Y-137441616D03*
X98478965Y-134141616D03*
%TD*%
%TO.C,D50*%
X203253965Y-156491616D03*
X203253965Y-153191616D03*
%TD*%
%TO.C,D66*%
X360416465Y-175541616D03*
X360416465Y-172241616D03*
%TD*%
%TO.C,D15*%
X354066465Y-99341616D03*
X354066465Y-96041616D03*
%TD*%
%TO.C,D27*%
X284216465Y-118391616D03*
X284216465Y-115091616D03*
%TD*%
%TO.C,D7*%
X179441465Y-99341616D03*
X179441465Y-96041616D03*
%TD*%
%TO.C,D10*%
X236591465Y-99341616D03*
X236591465Y-96041616D03*
%TD*%
D27*
%TO.C,C16*%
X348466465Y-102480366D03*
X348466465Y-103440366D03*
%TD*%
D19*
%TO.C,D18*%
X112766465Y-118391616D03*
X112766465Y-115091616D03*
%TD*%
%TO.C,D61*%
X253260215Y-175541616D03*
X253260215Y-172241616D03*
%TD*%
%TO.C,D34*%
X136578965Y-137441616D03*
X136578965Y-134141616D03*
%TD*%
D28*
%TO.C,U1*%
X331066465Y-91160366D03*
X333366465Y-91160366D03*
D29*
X333366465Y-97460366D03*
D28*
X335666465Y-91160366D03*
%TD*%
D19*
%TO.C,D23*%
X208016465Y-118391616D03*
X208016465Y-115091616D03*
%TD*%
%TO.C,D58*%
X88953965Y-175541616D03*
X88953965Y-172241616D03*
%TD*%
%TO.C,D36*%
X174678965Y-137441616D03*
X174678965Y-134141616D03*
%TD*%
%TO.C,D62*%
X277072715Y-175541616D03*
X277072715Y-172241616D03*
%TD*%
%TO.C,D46*%
X127053965Y-156491616D03*
X127053965Y-153191616D03*
%TD*%
D30*
%TO.C,U2*%
X338761465Y-118710366D03*
X340031465Y-118710366D03*
X341301465Y-118710366D03*
X342571465Y-118710366D03*
X342571465Y-125910366D03*
X341301465Y-125910366D03*
X340031465Y-125910366D03*
X338761465Y-125910366D03*
%TD*%
D19*
%TO.C,D11*%
X255641465Y-99341616D03*
X255641465Y-96041616D03*
%TD*%
%TO.C,D19*%
X131816465Y-118391616D03*
X131816465Y-115091616D03*
%TD*%
%TO.C,D5*%
X141341465Y-99341616D03*
X141341465Y-96041616D03*
%TD*%
%TO.C,D13*%
X293741465Y-99341616D03*
X293741465Y-96041616D03*
%TD*%
%TO.C,D42*%
X288978965Y-137441616D03*
X288978965Y-134141616D03*
%TD*%
D31*
%TO.C,J1*%
X340415215Y-93404116D03*
X346195215Y-93404116D03*
D32*
X340055215Y-94849116D03*
X340855215Y-94849116D03*
D33*
X342055215Y-94849116D03*
X343055215Y-94849116D03*
X343555215Y-94849116D03*
X344555215Y-94849116D03*
D32*
X345755215Y-94849116D03*
X346555215Y-94849116D03*
X346555215Y-94849116D03*
X345755215Y-94849116D03*
D33*
X345055215Y-94849116D03*
X344055215Y-94849116D03*
X342555215Y-94849116D03*
X341555215Y-94849116D03*
D32*
X340855215Y-94849116D03*
X340055215Y-94849116D03*
D34*
X338985215Y-89754116D03*
D35*
X338985215Y-93934116D03*
D34*
X347625215Y-89754116D03*
D35*
X347625215Y-93934116D03*
%TD*%
D19*
%TO.C,D12*%
X274691465Y-99341616D03*
X274691465Y-96041616D03*
%TD*%
D20*
%TO.C,C6*%
X349006465Y-113560366D03*
X349966465Y-113560366D03*
%TD*%
M02*
