%TF.GenerationSoftware,KiCad,Pcbnew,8.0.2*%
%TF.CreationDate,2024-06-13T00:17:42-07:00*%
%TF.ProjectId,keyboard_pcb,6b657962-6f61-4726-945f-7063622e6b69,1.0*%
%TF.SameCoordinates,Original*%
%TF.FileFunction,Paste,Bot*%
%TF.FilePolarity,Positive*%
%FSLAX46Y46*%
G04 Gerber Fmt 4.6, Leading zero omitted, Abs format (unit mm)*
G04 Created by KiCad (PCBNEW 8.0.2) date 2024-06-13 00:17:42*
%MOMM*%
%LPD*%
G01*
G04 APERTURE LIST*
G04 Aperture macros list*
%AMRoundRect*
0 Rectangle with rounded corners*
0 $1 Rounding radius*
0 $2 $3 $4 $5 $6 $7 $8 $9 X,Y pos of 4 corners*
0 Add a 4 corners polygon primitive as box body*
4,1,4,$2,$3,$4,$5,$6,$7,$8,$9,$2,$3,0*
0 Add four circle primitives for the rounded corners*
1,1,$1+$1,$2,$3*
1,1,$1+$1,$4,$5*
1,1,$1+$1,$6,$7*
1,1,$1+$1,$8,$9*
0 Add four rect primitives between the rounded corners*
20,1,$1+$1,$2,$3,$4,$5,0*
20,1,$1+$1,$4,$5,$6,$7,0*
20,1,$1+$1,$6,$7,$8,$9,0*
20,1,$1+$1,$8,$9,$2,$3,0*%
G04 Aperture macros list end*
%ADD10RoundRect,0.140000X0.140000X0.170000X-0.140000X0.170000X-0.140000X-0.170000X0.140000X-0.170000X0*%
%ADD11RoundRect,0.225000X0.375000X-0.225000X0.375000X0.225000X-0.375000X0.225000X-0.375000X-0.225000X0*%
%ADD12RoundRect,0.140000X-0.140000X-0.170000X0.140000X-0.170000X0.140000X0.170000X-0.140000X0.170000X0*%
%ADD13RoundRect,0.067500X0.067500X0.067500X-0.067500X0.067500X-0.067500X-0.067500X0.067500X-0.067500X0*%
%ADD14RoundRect,0.067500X0.067500X-0.067500X0.067500X0.067500X-0.067500X0.067500X-0.067500X-0.067500X0*%
%ADD15R,1.400000X1.200000*%
%ADD16RoundRect,0.140000X0.170000X-0.140000X0.170000X0.140000X-0.170000X0.140000X-0.170000X-0.140000X0*%
%ADD17RoundRect,0.250000X-0.292217X-0.292217X0.292217X-0.292217X0.292217X0.292217X-0.292217X0.292217X0*%
%ADD18RoundRect,0.050000X-0.387500X-0.050000X0.387500X-0.050000X0.387500X0.050000X-0.387500X0.050000X0*%
%ADD19RoundRect,0.050000X-0.050000X-0.387500X0.050000X-0.387500X0.050000X0.387500X-0.050000X0.387500X0*%
%ADD20RoundRect,0.067500X-0.067500X-0.067500X0.067500X-0.067500X0.067500X0.067500X-0.067500X0.067500X0*%
%ADD21RoundRect,0.140000X-0.170000X0.140000X-0.170000X-0.140000X0.170000X-0.140000X0.170000X0.140000X0*%
%ADD22RoundRect,0.375000X-0.375000X0.625000X-0.375000X-0.625000X0.375000X-0.625000X0.375000X0.625000X0*%
%ADD23RoundRect,0.500000X-1.400000X0.500000X-1.400000X-0.500000X1.400000X-0.500000X1.400000X0.500000X0*%
%ADD24RoundRect,0.150000X-0.150000X0.650000X-0.150000X-0.650000X0.150000X-0.650000X0.150000X0.650000X0*%
%ADD25R,0.600000X1.450000*%
%ADD26R,0.300000X1.450000*%
G04 APERTURE END LIST*
D10*
%TO.C,C3*%
X355000000Y-109750000D03*
X354040000Y-109750000D03*
%TD*%
D11*
%TO.C,D38*%
X212778965Y-137441616D03*
X212778965Y-134141616D03*
%TD*%
D12*
%TO.C,C11*%
X349006465Y-111540366D03*
X349966465Y-111540366D03*
%TD*%
D11*
%TO.C,D48*%
X165153965Y-156491616D03*
X165153965Y-153191616D03*
%TD*%
D13*
%TO.C,R4*%
X354302179Y-139010366D03*
X353752179Y-139010366D03*
%TD*%
D11*
%TO.C,D52*%
X241353965Y-156491616D03*
X241353965Y-153191616D03*
%TD*%
D12*
%TO.C,C14*%
X341136465Y-133310366D03*
X342096465Y-133310366D03*
%TD*%
D11*
%TO.C,D30*%
X354066465Y-118391616D03*
X354066465Y-115091616D03*
%TD*%
D12*
%TO.C,C5*%
X347866465Y-110160366D03*
X348826465Y-110160366D03*
%TD*%
D11*
%TO.C,D2*%
X83397715Y-99341616D03*
X83397715Y-96041616D03*
%TD*%
%TO.C,D64*%
X322316465Y-175541616D03*
X322316465Y-172241616D03*
%TD*%
%TO.C,D59*%
X110385215Y-175541616D03*
X110385215Y-172241616D03*
%TD*%
%TO.C,D31*%
X72285215Y-137441616D03*
X72285215Y-134141616D03*
%TD*%
%TO.C,D20*%
X150866465Y-118391616D03*
X150866465Y-115091616D03*
%TD*%
%TO.C,D57*%
X67522715Y-175541616D03*
X67522715Y-172241616D03*
%TD*%
D14*
%TO.C,R3*%
X344366465Y-97466317D03*
X344366465Y-96916317D03*
%TD*%
D11*
%TO.C,D41*%
X269928965Y-137441616D03*
X269928965Y-134141616D03*
%TD*%
%TO.C,D8*%
X198491465Y-99341616D03*
X198491465Y-96041616D03*
%TD*%
%TO.C,D16*%
X69903965Y-118391616D03*
X69903965Y-115091616D03*
%TD*%
%TO.C,D14*%
X322316465Y-99341616D03*
X322316465Y-96041616D03*
%TD*%
%TO.C,D6*%
X160391465Y-99341616D03*
X160391465Y-96041616D03*
%TD*%
D12*
%TO.C,C7*%
X349006465Y-114760366D03*
X349966465Y-114760366D03*
%TD*%
D11*
%TO.C,D1*%
X65141465Y-99341616D03*
X65141465Y-96041616D03*
%TD*%
%TO.C,D4*%
X122291465Y-99341616D03*
X122291465Y-96041616D03*
%TD*%
%TO.C,D39*%
X232622715Y-137441616D03*
X232622715Y-134141616D03*
%TD*%
%TO.C,D35*%
X155628965Y-137441616D03*
X155628965Y-134141616D03*
%TD*%
D15*
%TO.C,Y1*%
X345466465Y-103160366D03*
X343266465Y-103160366D03*
X343266465Y-101460366D03*
X345466465Y-101460366D03*
%TD*%
D12*
%TO.C,C12*%
X345770000Y-115500000D03*
X346730000Y-115500000D03*
%TD*%
D11*
%TO.C,D17*%
X93716465Y-118391616D03*
X93716465Y-115091616D03*
%TD*%
%TO.C,D37*%
X193728965Y-137441616D03*
X193728965Y-134141616D03*
%TD*%
%TO.C,D22*%
X188966465Y-118391616D03*
X188966465Y-115091616D03*
%TD*%
%TO.C,D43*%
X330253965Y-137441616D03*
X330253965Y-134141616D03*
%TD*%
D12*
%TO.C,C8*%
X349006465Y-115960366D03*
X349966465Y-115960366D03*
%TD*%
D11*
%TO.C,D29*%
X327078965Y-118391616D03*
X327078965Y-115091616D03*
%TD*%
%TO.C,D63*%
X300885215Y-175541616D03*
X300885215Y-172241616D03*
%TD*%
D13*
%TO.C,R1*%
X341391465Y-97310366D03*
X340841465Y-97310366D03*
%TD*%
D11*
%TO.C,D60*%
X181822715Y-175541616D03*
X181822715Y-172241616D03*
%TD*%
%TO.C,D51*%
X222303965Y-156491616D03*
X222303965Y-153191616D03*
%TD*%
%TO.C,D3*%
X103241465Y-99341616D03*
X103241465Y-96041616D03*
%TD*%
%TO.C,D44*%
X87366465Y-156491616D03*
X87366465Y-153191616D03*
%TD*%
%TO.C,D47*%
X146103965Y-156491616D03*
X146103965Y-153191616D03*
%TD*%
D10*
%TO.C,C4*%
X355000000Y-112410366D03*
X354040000Y-112410366D03*
%TD*%
D11*
%TO.C,D40*%
X250878965Y-137441616D03*
X250878965Y-134141616D03*
%TD*%
%TO.C,D56*%
X341366465Y-156491616D03*
X341366465Y-153191616D03*
%TD*%
D10*
%TO.C,C15*%
X341616465Y-102560366D03*
X340656465Y-102560366D03*
%TD*%
D12*
%TO.C,C9*%
X349006465Y-117160366D03*
X349966465Y-117160366D03*
%TD*%
D11*
%TO.C,D54*%
X279453965Y-156491616D03*
X279453965Y-153191616D03*
%TD*%
%TO.C,D49*%
X184203965Y-156491616D03*
X184203965Y-153191616D03*
%TD*%
%TO.C,D25*%
X246116465Y-118391616D03*
X246116465Y-115091616D03*
%TD*%
%TO.C,D21*%
X169916465Y-118391616D03*
X169916465Y-115091616D03*
%TD*%
D10*
%TO.C,C1*%
X335346465Y-89060366D03*
X334386465Y-89060366D03*
%TD*%
D12*
%TO.C,C10*%
X349006465Y-112640366D03*
X349966465Y-112640366D03*
%TD*%
D11*
%TO.C,D28*%
X303266465Y-118391616D03*
X303266465Y-115091616D03*
%TD*%
%TO.C,D24*%
X227066465Y-118391616D03*
X227066465Y-115091616D03*
%TD*%
D16*
%TO.C,C2*%
X328266465Y-95040366D03*
X328266465Y-94080366D03*
%TD*%
D17*
%TO.C,U3*%
X342391465Y-109922866D03*
X342391465Y-111197866D03*
X343666465Y-109922866D03*
X343666465Y-111197866D03*
D18*
X339591465Y-113160366D03*
X339591465Y-112760366D03*
X339591465Y-112360366D03*
X339591465Y-111960366D03*
X339591465Y-111560366D03*
X339591465Y-111160366D03*
X339591465Y-110760366D03*
X339591465Y-110360366D03*
X339591465Y-109960366D03*
X339591465Y-109560366D03*
X339591465Y-109160366D03*
X339591465Y-108760366D03*
X339591465Y-108360366D03*
X339591465Y-107960366D03*
D19*
X340428965Y-107122866D03*
X340828965Y-107122866D03*
X341228965Y-107122866D03*
X341628965Y-107122866D03*
X342028965Y-107122866D03*
X342428965Y-107122866D03*
X342828965Y-107122866D03*
X343228965Y-107122866D03*
X343628965Y-107122866D03*
X344028965Y-107122866D03*
X344428965Y-107122866D03*
X344828965Y-107122866D03*
X345228965Y-107122866D03*
X345628965Y-107122866D03*
D18*
X346466465Y-107960366D03*
X346466465Y-108360366D03*
X346466465Y-108760366D03*
X346466465Y-109160366D03*
X346466465Y-109560366D03*
X346466465Y-109960366D03*
X346466465Y-110360366D03*
X346466465Y-110760366D03*
X346466465Y-111160366D03*
X346466465Y-111560366D03*
X346466465Y-111960366D03*
X346466465Y-112360366D03*
X346466465Y-112760366D03*
X346466465Y-113160366D03*
D19*
X345628965Y-113997866D03*
X345228965Y-113997866D03*
X344828965Y-113997866D03*
X344428965Y-113997866D03*
X344028965Y-113997866D03*
X343628965Y-113997866D03*
X343228965Y-113997866D03*
X342828965Y-113997866D03*
X342428965Y-113997866D03*
X342028965Y-113997866D03*
X341628965Y-113997866D03*
X341228965Y-113997866D03*
X340828965Y-113997866D03*
X340428965Y-113997866D03*
%TD*%
D11*
%TO.C,D53*%
X260403965Y-156491616D03*
X260403965Y-153191616D03*
%TD*%
D14*
%TO.C,R5*%
X343116465Y-97469690D03*
X343116465Y-96919690D03*
%TD*%
D20*
%TO.C,R2*%
X345591465Y-97060366D03*
X346141465Y-97060366D03*
%TD*%
D11*
%TO.C,D26*%
X265166465Y-118391616D03*
X265166465Y-115091616D03*
%TD*%
%TO.C,D45*%
X108003965Y-156491616D03*
X108003965Y-153191616D03*
%TD*%
%TO.C,D55*%
X320728965Y-156491616D03*
X320728965Y-153191616D03*
%TD*%
%TO.C,D33*%
X117528965Y-137441616D03*
X117528965Y-134141616D03*
%TD*%
D21*
%TO.C,C13*%
X347866465Y-113880366D03*
X347866465Y-114840366D03*
%TD*%
D11*
%TO.C,D9*%
X217541465Y-99341616D03*
X217541465Y-96041616D03*
%TD*%
D13*
%TO.C,R8*%
X340141465Y-132660366D03*
X339591465Y-132660366D03*
%TD*%
D11*
%TO.C,D65*%
X341366465Y-175541616D03*
X341366465Y-172241616D03*
%TD*%
%TO.C,D32*%
X98478965Y-137441616D03*
X98478965Y-134141616D03*
%TD*%
%TO.C,D50*%
X203253965Y-156491616D03*
X203253965Y-153191616D03*
%TD*%
%TO.C,D66*%
X360416465Y-175541616D03*
X360416465Y-172241616D03*
%TD*%
%TO.C,D15*%
X354066465Y-99341616D03*
X354066465Y-96041616D03*
%TD*%
%TO.C,D27*%
X284216465Y-118391616D03*
X284216465Y-115091616D03*
%TD*%
%TO.C,D7*%
X179441465Y-99341616D03*
X179441465Y-96041616D03*
%TD*%
%TO.C,D10*%
X236591465Y-99341616D03*
X236591465Y-96041616D03*
%TD*%
D21*
%TO.C,C16*%
X348466465Y-102480366D03*
X348466465Y-103440366D03*
%TD*%
D11*
%TO.C,D18*%
X112766465Y-118391616D03*
X112766465Y-115091616D03*
%TD*%
%TO.C,D61*%
X253260215Y-175541616D03*
X253260215Y-172241616D03*
%TD*%
%TO.C,D34*%
X136578965Y-137441616D03*
X136578965Y-134141616D03*
%TD*%
D22*
%TO.C,U1*%
X331066465Y-91160366D03*
X333366465Y-91160366D03*
D23*
X333366465Y-97460366D03*
D22*
X335666465Y-91160366D03*
%TD*%
D11*
%TO.C,D23*%
X208016465Y-118391616D03*
X208016465Y-115091616D03*
%TD*%
%TO.C,D58*%
X88953965Y-175541616D03*
X88953965Y-172241616D03*
%TD*%
%TO.C,D36*%
X174678965Y-137441616D03*
X174678965Y-134141616D03*
%TD*%
%TO.C,D62*%
X277072715Y-175541616D03*
X277072715Y-172241616D03*
%TD*%
%TO.C,D46*%
X127053965Y-156491616D03*
X127053965Y-153191616D03*
%TD*%
D24*
%TO.C,U2*%
X338761465Y-118710366D03*
X340031465Y-118710366D03*
X341301465Y-118710366D03*
X342571465Y-118710366D03*
X342571465Y-125910366D03*
X341301465Y-125910366D03*
X340031465Y-125910366D03*
X338761465Y-125910366D03*
%TD*%
D11*
%TO.C,D11*%
X255641465Y-99341616D03*
X255641465Y-96041616D03*
%TD*%
%TO.C,D19*%
X131816465Y-118391616D03*
X131816465Y-115091616D03*
%TD*%
%TO.C,D5*%
X141341465Y-99341616D03*
X141341465Y-96041616D03*
%TD*%
D13*
%TO.C,R6*%
X341366465Y-130060366D03*
X340816465Y-130060366D03*
%TD*%
D11*
%TO.C,D13*%
X293741465Y-99341616D03*
X293741465Y-96041616D03*
%TD*%
D13*
%TO.C,R7*%
X343391465Y-104560366D03*
X342841465Y-104560366D03*
%TD*%
D11*
%TO.C,D42*%
X288978965Y-137441616D03*
X288978965Y-134141616D03*
%TD*%
D25*
%TO.C,J1*%
X340055215Y-94849116D03*
X340855215Y-94849116D03*
D26*
X342055215Y-94849116D03*
X343055215Y-94849116D03*
X343555215Y-94849116D03*
X344555215Y-94849116D03*
D25*
X345755215Y-94849116D03*
X346555215Y-94849116D03*
X346555215Y-94849116D03*
X345755215Y-94849116D03*
D26*
X345055215Y-94849116D03*
X344055215Y-94849116D03*
X342555215Y-94849116D03*
X341555215Y-94849116D03*
D25*
X340855215Y-94849116D03*
X340055215Y-94849116D03*
%TD*%
D11*
%TO.C,D12*%
X274691465Y-99341616D03*
X274691465Y-96041616D03*
%TD*%
D12*
%TO.C,C6*%
X349006465Y-113560366D03*
X349966465Y-113560366D03*
%TD*%
M02*
