%TF.GenerationSoftware,KiCad,Pcbnew,8.0.2*%
%TF.CreationDate,2024-06-13T00:17:42-07:00*%
%TF.ProjectId,keyboard_pcb,6b657962-6f61-4726-945f-7063622e6b69,1.0*%
%TF.SameCoordinates,Original*%
%TF.FileFunction,Copper,L1,Top*%
%TF.FilePolarity,Positive*%
%FSLAX46Y46*%
G04 Gerber Fmt 4.6, Leading zero omitted, Abs format (unit mm)*
G04 Created by KiCad (PCBNEW 8.0.2) date 2024-06-13 00:17:42*
%MOMM*%
%LPD*%
G01*
G04 APERTURE LIST*
%TA.AperFunction,ComponentPad*%
%ADD10C,2.300000*%
%TD*%
%TA.AperFunction,ComponentPad*%
%ADD11C,4.000000*%
%TD*%
%TA.AperFunction,ComponentPad*%
%ADD12C,0.600000*%
%TD*%
%TA.AperFunction,ComponentPad*%
%ADD13C,2.000000*%
%TD*%
%TA.AperFunction,ComponentPad*%
%ADD14O,1.000000X1.600000*%
%TD*%
%TA.AperFunction,ComponentPad*%
%ADD15O,1.000000X2.100000*%
%TD*%
%TA.AperFunction,ViaPad*%
%ADD16C,0.600000*%
%TD*%
%TA.AperFunction,Conductor*%
%ADD17C,0.200000*%
%TD*%
G04 APERTURE END LIST*
D10*
%TO.P,MX11,1,1*%
%TO.N,COL_11*%
X243893965Y-94357866D03*
%TO.P,MX11,2,2*%
%TO.N,Net-(D11-A)*%
X250243965Y-91817866D03*
%TD*%
%TO.P,MX18,1,1*%
%TO.N,COL_3*%
X101018965Y-113407866D03*
%TO.P,MX18,2,2*%
%TO.N,Net-(D18-A)*%
X107368965Y-110867866D03*
%TD*%
%TO.P,MX8,1,1*%
%TO.N,COL_8*%
X186743965Y-94357866D03*
%TO.P,MX8,2,2*%
%TO.N,Net-(D8-A)*%
X193093965Y-91817866D03*
%TD*%
%TO.P,MX65,1,1*%
%TO.N,COL_14*%
X329618965Y-170557866D03*
%TO.P,MX65,2,2*%
%TO.N,Net-(D65-A)*%
X335968965Y-168017866D03*
%TD*%
%TO.P,MX29,1,1*%
%TO.N,COL_14*%
X315331465Y-113407866D03*
%TO.P,MX29,2,2*%
%TO.N,Net-(D29-A)*%
X321681465Y-110867866D03*
%TD*%
%TO.P,MX14,1,1*%
%TO.N,COL_14*%
X310568965Y-94357866D03*
%TO.P,MX14,2,2*%
%TO.N,Net-(D14-A)*%
X316918965Y-91817866D03*
%TD*%
%TO.P,MX43,1,1*%
%TO.N,COL_13*%
X308187715Y-132457866D03*
%TO.P,MX43,2,2*%
%TO.N,Net-(D43-A)*%
X314537715Y-129917866D03*
%TD*%
%TO.P,MX48,1,1*%
%TO.N,COL_5*%
X153406465Y-151507866D03*
%TO.P,MX48,2,2*%
%TO.N,Net-(D48-A)*%
X159756465Y-148967866D03*
%TD*%
%TO.P,MX15,1,1*%
%TO.N,COL_15*%
X358193965Y-94357866D03*
%TO.P,MX15,2,2*%
%TO.N,Net-(D15-A)*%
X364543965Y-91817866D03*
%TD*%
%TO.P,MX49,1,1*%
%TO.N,COL_6*%
X172456465Y-151507866D03*
%TO.P,MX49,2,2*%
%TO.N,Net-(D49-A)*%
X178806465Y-148967866D03*
%TD*%
%TO.P,MX59,1,1*%
%TO.N,COL_3*%
X98637715Y-170557866D03*
%TO.P,MX59,2,2*%
%TO.N,Net-(D59-A)*%
X104987715Y-168017866D03*
%TD*%
%TO.P,MX3,1,1*%
%TO.N,COL_3*%
X91493965Y-94357866D03*
%TO.P,MX3,2,2*%
%TO.N,Net-(D3-A)*%
X97843965Y-91817866D03*
%TD*%
D11*
%TO.P,S5,*%
%TO.N,*%
X123878965Y-166112866D03*
X223891465Y-166112866D03*
%TD*%
D10*
%TO.P,MX55,1,1*%
%TO.N,COL_12*%
X298662715Y-151507866D03*
%TO.P,MX55,2,2*%
%TO.N,Net-(D55-A)*%
X305012715Y-148967866D03*
%TD*%
%TO.P,MX27,1,1*%
%TO.N,COL_12*%
X272468965Y-113407866D03*
%TO.P,MX27,2,2*%
%TO.N,Net-(D27-A)*%
X278818965Y-110867866D03*
%TD*%
%TO.P,MX50,1,1*%
%TO.N,COL_7*%
X191506465Y-151507866D03*
%TO.P,MX50,2,2*%
%TO.N,Net-(D50-A)*%
X197856465Y-148967866D03*
%TD*%
%TO.P,MX25,1,1*%
%TO.N,COL_10*%
X234368965Y-113407866D03*
%TO.P,MX25,2,2*%
%TO.N,Net-(D25-A)*%
X240718965Y-110867866D03*
%TD*%
%TO.P,MX7,1,1*%
%TO.N,COL_7*%
X167693965Y-94357866D03*
%TO.P,MX7,2,2*%
%TO.N,Net-(D7-A)*%
X174043965Y-91817866D03*
%TD*%
%TO.P,MX61,1,1*%
%TO.N,COL_9*%
X241512715Y-170557866D03*
%TO.P,MX61,2,2*%
%TO.N,Net-(D61-A)*%
X247862715Y-168017866D03*
%TD*%
%TO.P,MX36,1,1*%
%TO.N,COL_6*%
X162931465Y-132457866D03*
%TO.P,MX36,2,2*%
%TO.N,Net-(D36-A)*%
X169281465Y-129917866D03*
%TD*%
%TO.P,MX1,1,1*%
%TO.N,COL_1*%
X53393965Y-94357866D03*
%TO.P,MX1,2,2*%
%TO.N,Net-(D1-A)*%
X59743965Y-91817866D03*
%TD*%
%TO.P,MX35,1,1*%
%TO.N,COL_5*%
X143881465Y-132457866D03*
%TO.P,MX35,2,2*%
%TO.N,Net-(D35-A)*%
X150231465Y-129917866D03*
%TD*%
%TO.P,MX52,1,1*%
%TO.N,COL_9*%
X229606465Y-151507866D03*
%TO.P,MX52,2,2*%
%TO.N,Net-(D52-A)*%
X235956465Y-148967866D03*
%TD*%
%TO.P,MX20,1,1*%
%TO.N,COL_5*%
X139118965Y-113407866D03*
%TO.P,MX20,2,2*%
%TO.N,Net-(D20-A)*%
X145468965Y-110867866D03*
%TD*%
%TO.P,MX31,1,1*%
%TO.N,COL_1*%
X60537715Y-132457866D03*
%TO.P,MX31,2,2*%
%TO.N,Net-(D31-A)*%
X66887715Y-129917866D03*
%TD*%
%TO.P,MX4,1,1*%
%TO.N,COL_4*%
X110543965Y-94357866D03*
%TO.P,MX4,2,2*%
%TO.N,Net-(D4-A)*%
X116893965Y-91817866D03*
%TD*%
%TO.P,MX19,1,1*%
%TO.N,COL_4*%
X120068965Y-113407866D03*
%TO.P,MX19,2,2*%
%TO.N,Net-(D19-A)*%
X126418965Y-110867866D03*
%TD*%
%TO.P,MX34,1,1*%
%TO.N,COL_4*%
X124831465Y-132457866D03*
%TO.P,MX34,2,2*%
%TO.N,Net-(D34-A)*%
X131181465Y-129917866D03*
%TD*%
%TO.P,MX46,1,1*%
%TO.N,COL_3*%
X115306465Y-151507866D03*
%TO.P,MX46,2,2*%
%TO.N,Net-(D46-A)*%
X121656465Y-148967866D03*
%TD*%
%TO.P,MX53,1,1*%
%TO.N,COL_10*%
X248656465Y-151507866D03*
%TO.P,MX53,2,2*%
%TO.N,Net-(D53-A)*%
X255006465Y-148967866D03*
%TD*%
%TO.P,MX16,1,1*%
%TO.N,COL_1*%
X58156465Y-113407866D03*
%TO.P,MX16,2,2*%
%TO.N,Net-(D16-A)*%
X64506465Y-110867866D03*
%TD*%
%TO.P,MX38,1,1*%
%TO.N,COL_8*%
X201031465Y-132457866D03*
%TO.P,MX38,2,2*%
%TO.N,Net-(D38-A)*%
X207381465Y-129917866D03*
%TD*%
%TO.P,MX64,1,1*%
%TO.N,COL_12*%
X310568965Y-170557866D03*
%TO.P,MX64,2,2*%
%TO.N,Net-(D64-A)*%
X316918965Y-168017866D03*
%TD*%
%TO.P,MX41,1,1*%
%TO.N,COL_11*%
X258181465Y-132457866D03*
%TO.P,MX41,2,2*%
%TO.N,Net-(D41-A)*%
X264531465Y-129917866D03*
%TD*%
%TO.P,MX21,1,1*%
%TO.N,COL_6*%
X158168965Y-113407866D03*
%TO.P,MX21,2,2*%
%TO.N,Net-(D21-A)*%
X164518965Y-110867866D03*
%TD*%
%TO.P,MX56,1,1*%
%TO.N,COL_14*%
X329618965Y-151507866D03*
%TO.P,MX56,2,2*%
%TO.N,Net-(D56-A)*%
X335968965Y-148967866D03*
%TD*%
%TO.P,MX23,1,1*%
%TO.N,COL_8*%
X196268965Y-113407866D03*
%TO.P,MX23,2,2*%
%TO.N,Net-(D23-A)*%
X202618965Y-110867866D03*
%TD*%
%TO.P,MX51,1,1*%
%TO.N,COL_8*%
X210556465Y-151507866D03*
%TO.P,MX51,2,2*%
%TO.N,Net-(D51-A)*%
X216906465Y-148967866D03*
%TD*%
%TO.P,MX58,1,1*%
%TO.N,COL_2*%
X77206465Y-170557866D03*
%TO.P,MX58,2,2*%
%TO.N,Net-(D58-A)*%
X83556465Y-168017866D03*
%TD*%
%TO.P,MX40,1,1*%
%TO.N,COL_10*%
X239131465Y-132457866D03*
%TO.P,MX40,2,2*%
%TO.N,Net-(D40-A)*%
X245481465Y-129917866D03*
%TD*%
%TO.P,MX32,1,1*%
%TO.N,COL_2*%
X86731465Y-132457866D03*
%TO.P,MX32,2,2*%
%TO.N,Net-(D32-A)*%
X93081465Y-129917866D03*
%TD*%
%TO.P,MX5,1,1*%
%TO.N,COL_5*%
X129593965Y-94357866D03*
%TO.P,MX5,2,2*%
%TO.N,Net-(D5-A)*%
X135943965Y-91817866D03*
%TD*%
%TO.P,MX10,1,1*%
%TO.N,COL_10*%
X224843965Y-94357866D03*
%TO.P,MX10,2,2*%
%TO.N,Net-(D10-A)*%
X231193965Y-91817866D03*
%TD*%
%TO.P,MX66,1,1*%
%TO.N,COL_15*%
X348668965Y-170557866D03*
%TO.P,MX66,2,2*%
%TO.N,Net-(D66-A)*%
X355018965Y-168017866D03*
%TD*%
%TO.P,MX33,1,1*%
%TO.N,COL_3*%
X105781465Y-132457866D03*
%TO.P,MX33,2,2*%
%TO.N,Net-(D33-A)*%
X112131465Y-129917866D03*
%TD*%
%TO.P,MX44,1,1*%
%TO.N,COL_1*%
X65300215Y-151507866D03*
%TO.P,MX44,2,2*%
%TO.N,Net-(D44-A)*%
X71650215Y-148967866D03*
%TD*%
%TO.P,MX30,1,1*%
%TO.N,COL_15*%
X358193965Y-113407866D03*
%TO.P,MX30,2,2*%
%TO.N,Net-(D30-A)*%
X364543965Y-110867866D03*
%TD*%
%TO.P,MX12,1,1*%
%TO.N,COL_12*%
X262943965Y-94357866D03*
%TO.P,MX12,2,2*%
%TO.N,Net-(D12-A)*%
X269293965Y-91817866D03*
%TD*%
%TO.P,MX63,1,1*%
%TO.N,COL_11*%
X289137715Y-170557866D03*
%TO.P,MX63,2,2*%
%TO.N,Net-(D63-A)*%
X295487715Y-168017866D03*
%TD*%
%TO.P,MX6,1,1*%
%TO.N,COL_6*%
X148643965Y-94357866D03*
%TO.P,MX6,2,2*%
%TO.N,Net-(D6-A)*%
X154993965Y-91817866D03*
%TD*%
%TO.P,MX17,1,1*%
%TO.N,COL_2*%
X81968965Y-113407866D03*
%TO.P,MX17,2,2*%
%TO.N,Net-(D17-A)*%
X88318965Y-110867866D03*
%TD*%
%TO.P,MX54,1,1*%
%TO.N,COL_11*%
X267706465Y-151507866D03*
%TO.P,MX54,2,2*%
%TO.N,Net-(D54-A)*%
X274056465Y-148967866D03*
%TD*%
%TO.P,MX26,1,1*%
%TO.N,COL_11*%
X253418965Y-113407866D03*
%TO.P,MX26,2,2*%
%TO.N,Net-(D26-A)*%
X259768965Y-110867866D03*
%TD*%
%TO.P,MX22,1,1*%
%TO.N,COL_7*%
X177218965Y-113407866D03*
%TO.P,MX22,2,2*%
%TO.N,Net-(D22-A)*%
X183568965Y-110867866D03*
%TD*%
%TO.P,MX47,1,1*%
%TO.N,COL_4*%
X134356465Y-151507866D03*
%TO.P,MX47,2,2*%
%TO.N,Net-(D47-A)*%
X140706465Y-148967866D03*
%TD*%
%TO.P,MX13,1,1*%
%TO.N,COL_13*%
X281993965Y-94357866D03*
%TO.P,MX13,2,2*%
%TO.N,Net-(D13-A)*%
X288343965Y-91817866D03*
%TD*%
%TO.P,MX62,1,1*%
%TO.N,COL_10*%
X265325215Y-170557866D03*
%TO.P,MX62,2,2*%
%TO.N,Net-(D62-A)*%
X271675215Y-168017866D03*
%TD*%
%TO.P,MX60,1,1*%
%TO.N,COL_4*%
X170075215Y-170557866D03*
%TO.P,MX60,2,2*%
%TO.N,Net-(D60-A)*%
X176425215Y-168017866D03*
%TD*%
%TO.P,MX28,1,1*%
%TO.N,COL_13*%
X291518965Y-113407866D03*
%TO.P,MX28,2,2*%
%TO.N,Net-(D28-A)*%
X297868965Y-110867866D03*
%TD*%
%TO.P,MX45,1,1*%
%TO.N,COL_2*%
X96256465Y-151507866D03*
%TO.P,MX45,2,2*%
%TO.N,Net-(D45-A)*%
X102606465Y-148967866D03*
%TD*%
%TO.P,MX2,1,1*%
%TO.N,COL_2*%
X72443965Y-94357866D03*
%TO.P,MX2,2,2*%
%TO.N,Net-(D2-A)*%
X78793965Y-91817866D03*
%TD*%
%TO.P,MX24,1,1*%
%TO.N,COL_9*%
X215318965Y-113407866D03*
%TO.P,MX24,2,2*%
%TO.N,Net-(D24-A)*%
X221668965Y-110867866D03*
%TD*%
%TO.P,MX9,1,1*%
%TO.N,COL_9*%
X205793965Y-94357866D03*
%TO.P,MX9,2,2*%
%TO.N,Net-(D9-A)*%
X212143965Y-91817866D03*
%TD*%
%TO.P,MX57,1,1*%
%TO.N,COL_1*%
X55775215Y-170557866D03*
%TO.P,MX57,2,2*%
%TO.N,Net-(D57-A)*%
X62125215Y-168017866D03*
%TD*%
%TO.P,MX42,1,1*%
%TO.N,COL_12*%
X277231465Y-132457866D03*
%TO.P,MX42,2,2*%
%TO.N,Net-(D42-A)*%
X283581465Y-129917866D03*
%TD*%
%TO.P,MX37,1,1*%
%TO.N,COL_7*%
X181981465Y-132457866D03*
%TO.P,MX37,2,2*%
%TO.N,Net-(D37-A)*%
X188331465Y-129917866D03*
%TD*%
%TO.P,MX39,1,1*%
%TO.N,COL_9*%
X220081465Y-132457866D03*
%TO.P,MX39,2,2*%
%TO.N,Net-(D39-A)*%
X226431465Y-129917866D03*
%TD*%
D12*
%TO.P,U3,57,GND*%
%TO.N,GND*%
X341753965Y-109285366D03*
X341753965Y-110560366D03*
X341753965Y-111835366D03*
X343028965Y-109285366D03*
X343028965Y-110560366D03*
X343028965Y-111835366D03*
X344303965Y-109285366D03*
X344303965Y-110560366D03*
X344303965Y-111835366D03*
%TD*%
D13*
%TO.P,SW2,1,1*%
%TO.N,GND*%
X364866465Y-132010366D03*
X358366465Y-132010366D03*
%TO.P,SW2,2,2*%
%TO.N,Net-(U3-RUN)*%
X364866465Y-136510366D03*
X358366465Y-136510366D03*
%TD*%
%TO.P,SW1,1,1*%
%TO.N,GND*%
X350866465Y-132060366D03*
X344366465Y-132060366D03*
%TO.P,SW1,2,2*%
%TO.N,Net-(R4-Pad1)*%
X350866465Y-136560366D03*
X344366465Y-136560366D03*
%TD*%
D14*
%TO.P,J1,S1,SHIELD*%
%TO.N,GND*%
X338985215Y-89754116D03*
D15*
X338985215Y-93934116D03*
D14*
X347625215Y-89754116D03*
D15*
X347625215Y-93934116D03*
%TD*%
D16*
%TO.N,GND*%
X341366465Y-89810366D03*
X340616465Y-96310366D03*
X341366465Y-101560366D03*
X351000000Y-109750000D03*
X347866465Y-130060366D03*
X344066465Y-121160366D03*
X347414127Y-101794019D03*
X346384029Y-98910366D03*
X340666465Y-104410366D03*
X341116465Y-98560366D03*
%TO.N,Net-(U1-VI)*%
X342116465Y-92560366D03*
X344866465Y-92560366D03*
%TO.N,Net-(U3-VREG_VOUT)*%
X348866465Y-119060366D03*
X347575260Y-104251571D03*
X343116465Y-115810366D03*
%TO.N,ROW_1*%
X353616465Y-107810366D03*
X354066465Y-100960366D03*
%TO.N,COL_1*%
X53616465Y-104560366D03*
%TO.N,COL_2*%
X72741465Y-105185366D03*
%TO.N,COL_3*%
X92616465Y-105560366D03*
%TO.N,COL_4*%
X111866465Y-106060366D03*
%TO.N,COL_5*%
X130366465Y-106560366D03*
%TO.N,COL_6*%
X152116465Y-106810366D03*
%TO.N,COL_7*%
X171366465Y-107210366D03*
%TO.N,COL_8*%
X189910215Y-101016616D03*
X337366465Y-101110366D03*
X338466465Y-103810366D03*
%TO.N,COL_9*%
X337116465Y-102060366D03*
X206866465Y-101660366D03*
X337866465Y-105060366D03*
%TO.N,COL_10*%
X330866465Y-106810366D03*
X235616465Y-124560366D03*
X330116465Y-124560366D03*
%TO.N,COL_11*%
X330866465Y-125060366D03*
X331366465Y-108560366D03*
X254616465Y-125160366D03*
%TO.N,COL_12*%
X332366465Y-108810366D03*
X273616465Y-125560366D03*
X331866465Y-125310366D03*
%TO.N,COL_13*%
X329366465Y-124061286D03*
X302235215Y-123960366D03*
X331116465Y-104310366D03*
%TO.N,COL_14*%
X328616465Y-107560366D03*
X328766465Y-123495079D03*
X319616465Y-123560366D03*
%TO.N,COL_15*%
X337266465Y-128960366D03*
X335666465Y-109360366D03*
%TO.N,Net-(U3-USB_DP)*%
X343866465Y-98210366D03*
X351366465Y-119635669D03*
%TO.N,Net-(U2-~{CS})*%
X337466465Y-118760366D03*
X338341465Y-135060366D03*
%TO.N,Net-(U3-USB_DM)*%
X350566465Y-119560366D03*
X342374525Y-98202306D03*
%TO.N,Net-(U3-RUN)*%
X339866465Y-130760366D03*
X340366465Y-139810366D03*
X344767936Y-105908895D03*
X340366465Y-134810366D03*
%TO.N,ROW_5*%
X334766465Y-109560366D03*
X344366465Y-175310366D03*
%TO.N,ROW_3*%
X335800778Y-104744679D03*
X334616465Y-137060366D03*
%TO.N,ROW_4*%
X336366465Y-105310366D03*
X344366465Y-156060366D03*
%TO.N,3v3*%
X337766465Y-113660366D03*
X345866465Y-122560366D03*
X348916465Y-127060366D03*
X343616465Y-105310366D03*
X338022084Y-109304747D03*
X337616465Y-98560366D03*
X347866465Y-111960366D03*
X346050971Y-119152862D03*
%TO.N,ROW_2*%
X351866465Y-120260366D03*
X351616465Y-107560366D03*
%TD*%
D17*
%TO.N,GND*%
X340616465Y-96310366D02*
X341516465Y-95410366D01*
X340666465Y-104410366D02*
X340666465Y-102260366D01*
X341116465Y-101310366D02*
X341116465Y-98560366D01*
X344066465Y-121160366D02*
X345266465Y-122360366D01*
X344867936Y-104410366D02*
X340666465Y-104410366D01*
X344066465Y-119660366D02*
X341753965Y-117347866D01*
X345266465Y-122360366D02*
X345266465Y-127460366D01*
X340666465Y-102260366D02*
X341366465Y-101560366D01*
X345266465Y-127460366D02*
X347866465Y-130060366D01*
X347414127Y-101794019D02*
X347414127Y-99940464D01*
X350856099Y-109750000D02*
X345866465Y-104760366D01*
X341516465Y-95410366D02*
X341516465Y-89960366D01*
X341516465Y-89960366D02*
X341366465Y-89810366D01*
X345866465Y-104760366D02*
X345217936Y-104760366D01*
X351000000Y-109750000D02*
X350856099Y-109750000D01*
X345217936Y-104760366D02*
X344867936Y-104410366D01*
X347414127Y-99940464D02*
X346384029Y-98910366D01*
X344066465Y-121160366D02*
X344066465Y-119660366D01*
X341753965Y-117347866D02*
X341753965Y-111835366D01*
X341366465Y-101560366D02*
X341116465Y-101310366D01*
%TO.N,Net-(U1-VI)*%
X342116465Y-92560366D02*
X344866465Y-92560366D01*
%TO.N,Net-(U3-VREG_VOUT)*%
X352066465Y-109990267D02*
X352066465Y-114228994D01*
X348566465Y-119060366D02*
X345066465Y-115560366D01*
X350500779Y-118126052D02*
X349566465Y-119060366D01*
X345066465Y-115560366D02*
X343366465Y-115560366D01*
X347575260Y-105499062D02*
X352066465Y-109990267D01*
X350500779Y-115794680D02*
X350500779Y-118126052D01*
X352066465Y-114228994D02*
X350500779Y-115794680D01*
X347575260Y-104251571D02*
X347575260Y-105499062D01*
X349566465Y-119060366D02*
X348866465Y-119060366D01*
X348866465Y-119060366D02*
X348566465Y-119060366D01*
X343366465Y-115560366D02*
X343116465Y-115810366D01*
%TO.N,ROW_1*%
X354066465Y-100960366D02*
X354066465Y-107360366D01*
X354066465Y-107360366D02*
X353616465Y-107810366D01*
%TO.N,COL_1*%
X58156465Y-130076616D02*
X60537715Y-132457866D01*
X53616465Y-104560366D02*
X53393965Y-104782866D01*
X58156465Y-113407866D02*
X58156465Y-130076616D01*
X53393965Y-104782866D02*
X53393965Y-108645366D01*
X53393965Y-94357866D02*
X53393965Y-104337866D01*
X65300215Y-151507866D02*
X65935215Y-152142866D01*
X65935215Y-160397866D02*
X55775215Y-170557866D01*
X60537715Y-132457866D02*
X60537715Y-146745366D01*
X53393965Y-108645366D02*
X58156465Y-113407866D01*
X60537715Y-146745366D02*
X65300215Y-151507866D01*
X65935215Y-152142866D02*
X65935215Y-160397866D01*
X53393965Y-104337866D02*
X53616465Y-104560366D01*
%TO.N,COL_2*%
X96891465Y-154841616D02*
X96097715Y-155635366D01*
X81968965Y-127695366D02*
X86731465Y-132457866D01*
X77206465Y-170441616D02*
X77206465Y-170557866D01*
X86731465Y-132457866D02*
X86731465Y-141982866D01*
X96097715Y-155635366D02*
X92012715Y-155635366D01*
X72366465Y-105560366D02*
X80213965Y-113407866D01*
X72443965Y-104887866D02*
X72443965Y-94357866D01*
X86731465Y-141982866D02*
X96256465Y-151507866D01*
X92012715Y-155635366D02*
X77206465Y-170441616D01*
X72741465Y-105185366D02*
X72443965Y-104887866D01*
X72741465Y-105185366D02*
X72366465Y-105560366D01*
X80213965Y-113407866D02*
X81968965Y-113407866D01*
X81968965Y-113407866D02*
X81968965Y-127695366D01*
X96891465Y-152142866D02*
X96891465Y-154841616D01*
X96256465Y-151507866D02*
X96891465Y-152142866D01*
%TO.N,COL_3*%
X105781465Y-132457866D02*
X105781465Y-133569116D01*
X106416465Y-142617866D02*
X115306465Y-151507866D01*
X92116465Y-106060366D02*
X99463965Y-113407866D01*
X92616465Y-105560366D02*
X92116465Y-106060366D01*
X101018965Y-113407866D02*
X101018965Y-113725366D01*
X92128965Y-104517866D02*
X92128965Y-105072866D01*
X105781465Y-133569116D02*
X106416465Y-134204116D01*
X98637715Y-166550271D02*
X98637715Y-170557866D01*
X113680120Y-151507866D02*
X98637715Y-166550271D01*
X101653965Y-128330366D02*
X105781465Y-132457866D01*
X101653965Y-114360366D02*
X101653965Y-128330366D01*
X92128965Y-105072866D02*
X92616465Y-105560366D01*
X106416465Y-134204116D02*
X106416465Y-142617866D01*
X99463965Y-113407866D02*
X101018965Y-113407866D01*
X91493965Y-94357866D02*
X92128965Y-94992866D01*
X101018965Y-113725366D02*
X101653965Y-114360366D01*
X92128965Y-94992866D02*
X92128965Y-104517866D01*
X115306465Y-151507866D02*
X113680120Y-151507866D01*
%TO.N,COL_4*%
X120068965Y-113725366D02*
X120703965Y-114360366D01*
X170075215Y-165319116D02*
X170075215Y-170557866D01*
X111866465Y-106060366D02*
X111116465Y-106810366D01*
X137372715Y-158016616D02*
X162772715Y-158016616D01*
X117713965Y-113407866D02*
X120068965Y-113407866D01*
X120068965Y-113407866D02*
X120068965Y-113725366D01*
X110543965Y-94357866D02*
X111178965Y-94992866D01*
X125466465Y-133092866D02*
X125466465Y-142617866D01*
X125466465Y-142617866D02*
X134356465Y-151507866D01*
X120703965Y-128330366D02*
X124831465Y-132457866D01*
X111178965Y-105372866D02*
X111866465Y-106060366D01*
X120703965Y-114360366D02*
X120703965Y-128330366D01*
X111178965Y-94992866D02*
X111178965Y-105372866D01*
X124831465Y-132457866D02*
X125466465Y-133092866D01*
X162772715Y-158016616D02*
X170075215Y-165319116D01*
X134991465Y-152142866D02*
X134991465Y-155635366D01*
X111116465Y-106810366D02*
X117713965Y-113407866D01*
X134991465Y-155635366D02*
X137372715Y-158016616D01*
X134356465Y-151507866D02*
X134991465Y-152142866D01*
%TO.N,COL_5*%
X143881465Y-132775366D02*
X144516465Y-133410366D01*
X130116465Y-106810366D02*
X130116465Y-107060366D01*
X130366465Y-106560366D02*
X130116465Y-106810366D01*
X130116465Y-106310366D02*
X130366465Y-106560366D01*
X130116465Y-107060366D02*
X136463965Y-113407866D01*
X143881465Y-132457866D02*
X143881465Y-132775366D01*
X136463965Y-113407866D02*
X139118965Y-113407866D01*
X139753965Y-114360366D02*
X139753965Y-128330366D01*
X139118965Y-113725366D02*
X139753965Y-114360366D01*
X129593965Y-94357866D02*
X130228965Y-94992866D01*
X129593965Y-94357866D02*
X130116465Y-94880366D01*
X144516465Y-133410366D02*
X144516465Y-142617866D01*
X139753965Y-128330366D02*
X143881465Y-132457866D01*
X130116465Y-94880366D02*
X130116465Y-106310366D01*
X144516465Y-142617866D02*
X153406465Y-151507866D01*
X139118965Y-113407866D02*
X139118965Y-113725366D01*
%TO.N,COL_6*%
X163566465Y-142617866D02*
X172456465Y-151507866D01*
X149278965Y-94992866D02*
X148643965Y-94357866D01*
X158803965Y-128330366D02*
X162931465Y-132457866D01*
X158168965Y-113407866D02*
X158803965Y-114042866D01*
X162931465Y-132457866D02*
X163566465Y-133092866D01*
X163566465Y-133092866D02*
X163566465Y-142617866D01*
X151571465Y-106810366D02*
X149278965Y-104517866D01*
X158803965Y-114042866D02*
X158803965Y-128330366D01*
X152116465Y-107355366D02*
X158168965Y-113407866D01*
X152116465Y-106810366D02*
X152116465Y-107355366D01*
X152116465Y-106810366D02*
X151571465Y-106810366D01*
X149278965Y-104517866D02*
X149278965Y-94992866D01*
%TO.N,COL_7*%
X182616465Y-133092866D02*
X182616465Y-142617866D01*
X177853965Y-128330366D02*
X181981465Y-132457866D01*
X181981465Y-132457866D02*
X182616465Y-133092866D01*
X182616465Y-142617866D02*
X191506465Y-151507866D01*
X171366465Y-107555366D02*
X177218965Y-113407866D01*
X177853965Y-114042866D02*
X177853965Y-128330366D01*
X171366465Y-107210366D02*
X171366465Y-107555366D01*
X177218965Y-113407866D02*
X177853965Y-114042866D01*
X171366465Y-107210366D02*
X171021465Y-107210366D01*
X168328965Y-94992866D02*
X167693965Y-94357866D01*
X168328965Y-104517866D02*
X168328965Y-94992866D01*
X171021465Y-107210366D02*
X168328965Y-104517866D01*
%TO.N,COL_8*%
X196903965Y-128330366D02*
X201031465Y-132457866D01*
X189910215Y-101016616D02*
X189910215Y-101354116D01*
X201666465Y-133092866D02*
X201666465Y-135791616D01*
X189910215Y-101354116D02*
X196268965Y-107712866D01*
X196903965Y-114042866D02*
X196903965Y-128330366D01*
X201666465Y-135791616D02*
X202460215Y-136585366D01*
X338466465Y-103810366D02*
X338466465Y-102210366D01*
X196268965Y-113407866D02*
X196903965Y-114042866D01*
X189910215Y-101016616D02*
X187378965Y-98485366D01*
X196268965Y-107712866D02*
X196268965Y-113407866D01*
X202460215Y-143411616D02*
X210556465Y-151507866D01*
X202460215Y-136585366D02*
X202460215Y-143411616D01*
X187378965Y-98485366D02*
X187378965Y-94992866D01*
X201031465Y-132457866D02*
X201666465Y-133092866D01*
X187378965Y-94992866D02*
X186743965Y-94357866D01*
X338466465Y-102210366D02*
X337366465Y-101110366D01*
%TO.N,COL_9*%
X337866465Y-102560366D02*
X337366465Y-102060366D01*
X220716465Y-142617866D02*
X229606465Y-151507866D01*
X220081465Y-132457866D02*
X220716465Y-133092866D01*
X215953965Y-114042866D02*
X215953965Y-128330366D01*
X215318965Y-113407866D02*
X215953965Y-114042866D01*
X229606465Y-151507866D02*
X230241465Y-152142866D01*
X206866465Y-101660366D02*
X206428965Y-101222866D01*
X215953965Y-128330366D02*
X220081465Y-132457866D01*
X241512715Y-166112866D02*
X241512715Y-170557866D01*
X206428965Y-94992866D02*
X205793965Y-94357866D01*
X230241465Y-152142866D02*
X230241465Y-154841616D01*
X206866465Y-101660366D02*
X206366465Y-102160366D01*
X206366465Y-104455366D02*
X215318965Y-113407866D01*
X337866465Y-105060366D02*
X337866465Y-102560366D01*
X230241465Y-154841616D02*
X241512715Y-166112866D01*
X206428965Y-101222866D02*
X206428965Y-94992866D01*
X206366465Y-102160366D02*
X206366465Y-104455366D01*
X337366465Y-102060366D02*
X337116465Y-102060366D01*
X220716465Y-133092866D02*
X220716465Y-142617866D01*
%TO.N,COL_10*%
X235616465Y-124560366D02*
X235003965Y-123947866D01*
X248656465Y-151507866D02*
X249291465Y-152142866D01*
X235003965Y-125172866D02*
X235003965Y-128330366D01*
X239766465Y-133092866D02*
X239766465Y-142617866D01*
X235003965Y-123947866D02*
X235003965Y-114042866D01*
X225478965Y-94992866D02*
X225478965Y-104517866D01*
X239131465Y-132457866D02*
X239766465Y-133092866D01*
X249291465Y-152142866D02*
X249291465Y-156429116D01*
X235003965Y-114042866D02*
X234368965Y-113407866D01*
X235003965Y-128330366D02*
X239131465Y-132457866D01*
X250085215Y-157222866D02*
X251990215Y-157222866D01*
X225478965Y-104517866D02*
X234368965Y-113407866D01*
X251990215Y-157222866D02*
X265325215Y-170557866D01*
X239766465Y-142617866D02*
X248656465Y-151507866D01*
X330116465Y-107560366D02*
X330866465Y-106810366D01*
X235616465Y-124560366D02*
X235003965Y-125172866D01*
X224843965Y-94357866D02*
X225478965Y-94992866D01*
X330116465Y-124560366D02*
X330116465Y-107560366D01*
X249291465Y-156429116D02*
X250085215Y-157222866D01*
%TO.N,COL_11*%
X267706465Y-151507866D02*
X268341465Y-152142866D01*
X244528965Y-104517866D02*
X253418965Y-113407866D01*
X254053965Y-114042866D02*
X253418965Y-113407866D01*
X258816465Y-133092866D02*
X258816465Y-142617866D01*
X254616465Y-125160366D02*
X254053965Y-125722866D01*
X268341465Y-152142866D02*
X268341465Y-155635366D01*
X330866465Y-109060366D02*
X331366465Y-108560366D01*
X254616465Y-125160366D02*
X254053965Y-124597866D01*
X283263965Y-170557866D02*
X289137715Y-170557866D01*
X243893965Y-94357866D02*
X244528965Y-94992866D01*
X254053965Y-124597866D02*
X254053965Y-114042866D01*
X330866465Y-125060366D02*
X330866465Y-109060366D01*
X244528965Y-94992866D02*
X244528965Y-104517866D01*
X258181465Y-132457866D02*
X258816465Y-133092866D01*
X258816465Y-142617866D02*
X267706465Y-151507866D01*
X268341465Y-155635366D02*
X283263965Y-170557866D01*
X254053965Y-125722866D02*
X254053965Y-128330366D01*
X254053965Y-128330366D02*
X258181465Y-132457866D01*
%TO.N,COL_12*%
X298662715Y-151507866D02*
X299297715Y-152142866D01*
X299297715Y-159286616D02*
X310568965Y-170557866D01*
X288185215Y-150079116D02*
X297233965Y-150079116D01*
X262943965Y-94357866D02*
X263578965Y-94992866D01*
X273103965Y-125047866D02*
X273103965Y-114042866D01*
X273616465Y-125560366D02*
X273103965Y-126072866D01*
X331866465Y-109310366D02*
X332366465Y-108810366D01*
X331866465Y-125310366D02*
X331866465Y-109310366D01*
X299297715Y-152142866D02*
X299297715Y-159286616D01*
X273103965Y-114042866D02*
X272468965Y-113407866D01*
X263578965Y-94992866D02*
X263578965Y-104517866D01*
X263578965Y-104517866D02*
X272468965Y-113407866D01*
X286597715Y-145744352D02*
X286597715Y-148491616D01*
X273616465Y-125560366D02*
X273103965Y-125047866D01*
X273103965Y-126072866D02*
X273103965Y-128330366D01*
X277866465Y-133092866D02*
X277866465Y-137013102D01*
X277231465Y-132457866D02*
X277866465Y-133092866D01*
X286597715Y-148491616D02*
X288185215Y-150079116D01*
X273103965Y-128330366D02*
X277231465Y-132457866D01*
X277866465Y-137013102D02*
X286597715Y-145744352D01*
X297233965Y-150079116D02*
X298662715Y-151507866D01*
%TO.N,COL_13*%
X302235215Y-123960366D02*
X301753965Y-123960366D01*
X281993965Y-94357866D02*
X281993965Y-94675366D01*
X302235215Y-124441616D02*
X308187715Y-130394116D01*
X329366465Y-105711837D02*
X330767936Y-104310366D01*
X282628965Y-104517866D02*
X291518965Y-113407866D01*
X308187715Y-130394116D02*
X308187715Y-132457866D01*
X292153965Y-119122866D02*
X292153965Y-114042866D01*
X297710215Y-119916616D02*
X292947715Y-119916616D01*
X329366465Y-124061286D02*
X329366465Y-105711837D01*
X282628965Y-95310366D02*
X282628965Y-104517866D01*
X281993965Y-94675366D02*
X282628965Y-95310366D01*
X330767936Y-104310366D02*
X331116465Y-104310366D01*
X292153965Y-114042866D02*
X291518965Y-113407866D01*
X301753965Y-123960366D02*
X297710215Y-119916616D01*
X292947715Y-119916616D02*
X292153965Y-119122866D01*
X302235215Y-123960366D02*
X302235215Y-124441616D01*
%TO.N,COL_14*%
X319616465Y-123560366D02*
X319141465Y-123085366D01*
X310568965Y-94357866D02*
X311203965Y-94992866D01*
X315966465Y-115154116D02*
X315966465Y-114042866D01*
X326126465Y-151507866D02*
X329618965Y-151507866D01*
X319141465Y-123085366D02*
X319141465Y-122297866D01*
X330253965Y-152142866D02*
X330253965Y-154841616D01*
X319141465Y-124035366D02*
X319141465Y-144522866D01*
X330253965Y-154841616D02*
X329618965Y-155476616D01*
X328616465Y-107560366D02*
X328966465Y-107910366D01*
X319141465Y-122297866D02*
X315987715Y-119144116D01*
X319141465Y-144522866D02*
X326126465Y-151507866D01*
X311203965Y-109280366D02*
X315331465Y-113407866D01*
X311203965Y-94992866D02*
X311203965Y-109280366D01*
X329618965Y-155476616D02*
X329618965Y-170557866D01*
X329618965Y-151507866D02*
X330253965Y-152142866D01*
X319616465Y-123560366D02*
X319141465Y-124035366D01*
X328966465Y-123295079D02*
X328766465Y-123495079D01*
X315966465Y-114042866D02*
X315331465Y-113407866D01*
X315987715Y-119144116D02*
X315987715Y-115175366D01*
X328966465Y-107910366D02*
X328966465Y-123295079D01*
X315987715Y-115175366D02*
X315966465Y-115154116D01*
%TO.N,COL_15*%
X358828965Y-98485366D02*
X358193965Y-99120366D01*
X358193965Y-113407866D02*
X358616465Y-113830366D01*
X356166465Y-163060366D02*
X348668965Y-170557866D01*
X358616465Y-116560366D02*
X356166465Y-119010366D01*
X336866465Y-111860366D02*
X335666465Y-110660366D01*
X337266465Y-128960366D02*
X336866465Y-128560366D01*
X358616465Y-113830366D02*
X358616465Y-116560366D01*
X358828965Y-94992866D02*
X358828965Y-98485366D01*
X356166465Y-119010366D02*
X356166465Y-163060366D01*
X335666465Y-110660366D02*
X335666465Y-109360366D01*
X358193965Y-99120366D02*
X358193965Y-113407866D01*
X358193965Y-94357866D02*
X358828965Y-94992866D01*
X336866465Y-128560366D02*
X336866465Y-111860366D01*
%TO.N,Net-(U3-USB_DP)*%
X352866465Y-114560366D02*
X351366465Y-116060366D01*
X351366465Y-116060366D02*
X351366465Y-119635669D01*
X351016465Y-107808895D02*
X352866465Y-109658895D01*
X352866465Y-109658895D02*
X352866465Y-114560366D01*
X343866465Y-98210366D02*
X346766465Y-98210366D01*
X351016465Y-102460366D02*
X351016465Y-107808895D01*
X346766465Y-98210366D02*
X351016465Y-102460366D01*
%TO.N,Net-(U2-~{CS})*%
X338341465Y-129035366D02*
X338341465Y-135060366D01*
X337466465Y-128160366D02*
X337466465Y-118760366D01*
X337466465Y-128160366D02*
X338341465Y-129035366D01*
%TO.N,Net-(U3-USB_DM)*%
X352466465Y-109824581D02*
X350616465Y-107974581D01*
X343482585Y-99310366D02*
X342374525Y-98202306D01*
X350566465Y-119560366D02*
X350900779Y-119226052D01*
X350616465Y-107974581D02*
X350616465Y-103760215D01*
X352466465Y-114394680D02*
X352466465Y-109824581D01*
X350616465Y-103760215D02*
X348673216Y-103760215D01*
X346076922Y-99310366D02*
X343482585Y-99310366D01*
X348673216Y-103760215D02*
X346868750Y-101955749D01*
X346868750Y-100102194D02*
X346076922Y-99310366D01*
X350900779Y-119226052D02*
X350900779Y-115960366D01*
X346868750Y-101955749D02*
X346868750Y-100102194D01*
X350900779Y-115960366D02*
X352466465Y-114394680D01*
%TO.N,Net-(U3-RUN)*%
X344766465Y-105910366D02*
X338816465Y-105910366D01*
X338866465Y-129760366D02*
X339866465Y-130760366D01*
X340366465Y-134810366D02*
X340366465Y-139810366D01*
X344767936Y-105908895D02*
X344766465Y-105910366D01*
X338816465Y-105910366D02*
X338566465Y-106160366D01*
X338566465Y-106460366D02*
X338866465Y-106760366D01*
X338866465Y-106760366D02*
X338866465Y-129760366D01*
X338566465Y-106160366D02*
X338566465Y-106460366D01*
%TO.N,ROW_5*%
X334766465Y-110560366D02*
X334766465Y-109560366D01*
X336366465Y-112160366D02*
X334766465Y-110560366D01*
X345366465Y-156060366D02*
X345366465Y-147810366D01*
X344366465Y-175310366D02*
X344366465Y-157060366D01*
X345366465Y-147810366D02*
X336366465Y-138810366D01*
X344366465Y-157060366D02*
X345366465Y-156060366D01*
X336366465Y-138810366D02*
X336366465Y-112160366D01*
%TO.N,ROW_3*%
X334616465Y-137060366D02*
X333766465Y-136210366D01*
X333766465Y-106778992D02*
X335800778Y-104744679D01*
X333766465Y-136210366D02*
X333766465Y-106778992D01*
%TO.N,ROW_4*%
X334864994Y-137660366D02*
X335216465Y-137308895D01*
X344366465Y-156060366D02*
X344866465Y-155560366D01*
X344866465Y-147908895D02*
X334617936Y-137660366D01*
X334617936Y-137660366D02*
X334864994Y-137660366D01*
X344866465Y-155560366D02*
X344866465Y-147908895D01*
X335216465Y-136811837D02*
X334166465Y-135761837D01*
X335216465Y-137308895D02*
X335216465Y-136811837D01*
X334166465Y-107510366D02*
X336366465Y-105310366D01*
X334166465Y-135761837D02*
X334166465Y-107510366D01*
%TO.N,3v3*%
X342428965Y-115971395D02*
X345610432Y-119152862D01*
X343616465Y-105310366D02*
X340267936Y-105310366D01*
X345414994Y-105308895D02*
X343617936Y-105308895D01*
X347866465Y-111960366D02*
X346066465Y-111960366D01*
X345866465Y-122560366D02*
X348916465Y-125610366D01*
X343617936Y-105308895D02*
X343616465Y-105310366D01*
X348916465Y-125610366D02*
X348916465Y-127060366D01*
X339516465Y-104558895D02*
X339516465Y-100460366D01*
X346066465Y-111960366D02*
X342428965Y-115597866D01*
X338022084Y-109304747D02*
X338022084Y-106053276D01*
X342428965Y-115597866D02*
X342428965Y-115971395D01*
X338022084Y-109304747D02*
X337766465Y-109560366D01*
X337766465Y-109560366D02*
X337766465Y-113660366D01*
X347866465Y-107760366D02*
X345414994Y-105308895D01*
X345610432Y-119152862D02*
X346050971Y-119152862D01*
X339516465Y-100460366D02*
X337616465Y-98560366D01*
X347866465Y-111960366D02*
X347866465Y-107760366D01*
X338022084Y-106053276D02*
X339516465Y-104558895D01*
X340267936Y-105310366D02*
X339516465Y-104558895D01*
%TO.N,ROW_2*%
X351866465Y-120260366D02*
X351966465Y-120160366D01*
X353266465Y-109210366D02*
X351616465Y-107560366D01*
X353266465Y-114760366D02*
X353266465Y-109210366D01*
X351966465Y-116060366D02*
X353266465Y-114760366D01*
X351966465Y-120160366D02*
X351966465Y-116060366D01*
%TD*%
M02*
