%TF.GenerationSoftware,KiCad,Pcbnew,8.0.2*%
%TF.CreationDate,2024-06-20T11:33:06-07:00*%
%TF.ProjectId,keyboard_pcb,6b657962-6f61-4726-945f-7063622e6b69,1.0*%
%TF.SameCoordinates,Original*%
%TF.FileFunction,Soldermask,Top*%
%TF.FilePolarity,Negative*%
%FSLAX46Y46*%
G04 Gerber Fmt 4.6, Leading zero omitted, Abs format (unit mm)*
G04 Created by KiCad (PCBNEW 8.0.2) date 2024-06-20 11:33:06*
%MOMM*%
%LPD*%
G01*
G04 APERTURE LIST*
%ADD10C,1.750000*%
%ADD11C,3.987800*%
%ADD12C,3.048000*%
%ADD13C,2.000000*%
%ADD14C,0.650000*%
%ADD15O,1.000000X1.600000*%
%ADD16O,1.000000X2.100000*%
G04 APERTURE END LIST*
D10*
%TO.C,MX11*%
X242623965Y-96897866D03*
D11*
X247703965Y-96897866D03*
D10*
X252783965Y-96897866D03*
%TD*%
%TO.C,MX18*%
X99748965Y-115947866D03*
D11*
X104828965Y-115947866D03*
D10*
X109908965Y-115947866D03*
%TD*%
%TO.C,MX8*%
X185473965Y-96897866D03*
D11*
X190553965Y-96897866D03*
D10*
X195633965Y-96897866D03*
%TD*%
%TO.C,MX65*%
X328348965Y-173097866D03*
D11*
X333428965Y-173097866D03*
D10*
X338508965Y-173097866D03*
%TD*%
D12*
%TO.C,S1*%
X302472715Y-89912866D03*
D11*
X302472715Y-105152866D03*
D12*
X326285215Y-89912866D03*
D11*
X326285215Y-105152866D03*
%TD*%
D10*
%TO.C,MX29*%
X314061465Y-115947866D03*
D11*
X319141465Y-115947866D03*
D10*
X324221465Y-115947866D03*
%TD*%
%TO.C,MX14*%
X309298965Y-96897866D03*
D11*
X314378965Y-96897866D03*
D10*
X319458965Y-96897866D03*
%TD*%
%TO.C,MX43*%
X306917715Y-134997866D03*
D11*
X311997715Y-134997866D03*
D10*
X317077715Y-134997866D03*
%TD*%
%TO.C,MX48*%
X152136465Y-154047866D03*
D11*
X157216465Y-154047866D03*
D10*
X162296465Y-154047866D03*
%TD*%
D12*
%TO.C,S4*%
X290566465Y-147062866D03*
D11*
X290566465Y-162302866D03*
D12*
X314378965Y-147062866D03*
D11*
X314378965Y-162302866D03*
%TD*%
D10*
%TO.C,MX15*%
X356923965Y-96897866D03*
D11*
X362003965Y-96897866D03*
D10*
X367083965Y-96897866D03*
%TD*%
%TO.C,MX49*%
X171186465Y-154047866D03*
D11*
X176266465Y-154047866D03*
D10*
X181346465Y-154047866D03*
%TD*%
%TO.C,MX59*%
X97367715Y-173097866D03*
D11*
X102447715Y-173097866D03*
D10*
X107527715Y-173097866D03*
%TD*%
%TO.C,MX3*%
X90223965Y-96897866D03*
D11*
X95303965Y-96897866D03*
D10*
X100383965Y-96897866D03*
%TD*%
D11*
%TO.C,S5*%
X123878965Y-181352866D03*
X223891465Y-181352866D03*
%TD*%
D10*
%TO.C,MX55*%
X297392715Y-154047866D03*
D11*
X302472715Y-154047866D03*
D10*
X307552715Y-154047866D03*
%TD*%
%TO.C,MX27*%
X271198965Y-115947866D03*
D11*
X276278965Y-115947866D03*
D10*
X281358965Y-115947866D03*
%TD*%
%TO.C,MX50*%
X190236465Y-154047866D03*
D11*
X195316465Y-154047866D03*
D10*
X200396465Y-154047866D03*
%TD*%
%TO.C,MX25*%
X233098965Y-115947866D03*
D11*
X238178965Y-115947866D03*
D10*
X243258965Y-115947866D03*
%TD*%
%TO.C,MX7*%
X166423965Y-96897866D03*
D11*
X171503965Y-96897866D03*
D10*
X176583965Y-96897866D03*
%TD*%
%TO.C,MX61*%
X240242715Y-173097866D03*
D11*
X245322715Y-173097866D03*
D10*
X250402715Y-173097866D03*
%TD*%
%TO.C,MX36*%
X161661465Y-134997866D03*
D11*
X166741465Y-134997866D03*
D10*
X171821465Y-134997866D03*
%TD*%
%TO.C,MX1*%
X52123965Y-96897866D03*
D11*
X57203965Y-96897866D03*
D10*
X62283965Y-96897866D03*
%TD*%
%TO.C,MX35*%
X142611465Y-134997866D03*
D11*
X147691465Y-134997866D03*
D10*
X152771465Y-134997866D03*
%TD*%
%TO.C,MX52*%
X228336465Y-154047866D03*
D11*
X233416465Y-154047866D03*
D10*
X238496465Y-154047866D03*
%TD*%
D12*
%TO.C,S2*%
X300091465Y-128012866D03*
D11*
X300091465Y-143252866D03*
D12*
X323903965Y-128012866D03*
D11*
X323903965Y-143252866D03*
%TD*%
D10*
%TO.C,MX20*%
X137848965Y-115947866D03*
D11*
X142928965Y-115947866D03*
D10*
X148008965Y-115947866D03*
%TD*%
%TO.C,MX31*%
X59267715Y-134997866D03*
D11*
X64347715Y-134997866D03*
D10*
X69427715Y-134997866D03*
%TD*%
%TO.C,MX4*%
X109273965Y-96897866D03*
D11*
X114353965Y-96897866D03*
D10*
X119433965Y-96897866D03*
%TD*%
%TO.C,MX19*%
X118798965Y-115947866D03*
D11*
X123878965Y-115947866D03*
D10*
X128958965Y-115947866D03*
%TD*%
%TO.C,MX34*%
X123561465Y-134997866D03*
D11*
X128641465Y-134997866D03*
D10*
X133721465Y-134997866D03*
%TD*%
%TO.C,MX46*%
X114036465Y-154047866D03*
D11*
X119116465Y-154047866D03*
D10*
X124196465Y-154047866D03*
%TD*%
%TO.C,MX53*%
X247386465Y-154047866D03*
D11*
X252466465Y-154047866D03*
D10*
X257546465Y-154047866D03*
%TD*%
%TO.C,MX16*%
X56886465Y-115947866D03*
D11*
X61966465Y-115947866D03*
D10*
X67046465Y-115947866D03*
%TD*%
%TO.C,MX38*%
X199761465Y-134997866D03*
D11*
X204841465Y-134997866D03*
D10*
X209921465Y-134997866D03*
%TD*%
%TO.C,MX64*%
X309298965Y-173097866D03*
D11*
X314378965Y-173097866D03*
D10*
X319458965Y-173097866D03*
%TD*%
%TO.C,MX41*%
X256911465Y-134997866D03*
D11*
X261991465Y-134997866D03*
D10*
X267071465Y-134997866D03*
%TD*%
%TO.C,MX21*%
X156898965Y-115947866D03*
D11*
X161978965Y-115947866D03*
D10*
X167058965Y-115947866D03*
%TD*%
%TO.C,MX56*%
X328348965Y-154047866D03*
D11*
X333428965Y-154047866D03*
D10*
X338508965Y-154047866D03*
%TD*%
%TO.C,MX23*%
X194998965Y-115947866D03*
D11*
X200078965Y-115947866D03*
D10*
X205158965Y-115947866D03*
%TD*%
%TO.C,MX51*%
X209286465Y-154047866D03*
D11*
X214366465Y-154047866D03*
D10*
X219446465Y-154047866D03*
%TD*%
%TO.C,MX58*%
X75936465Y-173097866D03*
D11*
X81016465Y-173097866D03*
D10*
X86096465Y-173097866D03*
%TD*%
%TO.C,MX40*%
X237861465Y-134997866D03*
D11*
X242941465Y-134997866D03*
D10*
X248021465Y-134997866D03*
%TD*%
%TO.C,MX32*%
X85461465Y-134997866D03*
D11*
X90541465Y-134997866D03*
D10*
X95621465Y-134997866D03*
%TD*%
%TO.C,MX5*%
X128323965Y-96897866D03*
D11*
X133403965Y-96897866D03*
D10*
X138483965Y-96897866D03*
%TD*%
%TO.C,MX10*%
X223573965Y-96897866D03*
D11*
X228653965Y-96897866D03*
D10*
X233733965Y-96897866D03*
%TD*%
%TO.C,MX66*%
X347398965Y-173097866D03*
D11*
X352478965Y-173097866D03*
D10*
X357558965Y-173097866D03*
%TD*%
%TO.C,MX33*%
X104511465Y-134997866D03*
D11*
X109591465Y-134997866D03*
D10*
X114671465Y-134997866D03*
%TD*%
%TO.C,MX44*%
X64030215Y-154047866D03*
D11*
X69110215Y-154047866D03*
D10*
X74190215Y-154047866D03*
%TD*%
%TO.C,MX30*%
X356923965Y-115947866D03*
D11*
X362003965Y-115947866D03*
D10*
X367083965Y-115947866D03*
%TD*%
%TO.C,MX12*%
X261673965Y-96897866D03*
D11*
X266753965Y-96897866D03*
D10*
X271833965Y-96897866D03*
%TD*%
D12*
%TO.C,S3*%
X57203965Y-147062866D03*
D11*
X57203965Y-162302866D03*
D12*
X81016465Y-147062866D03*
D11*
X81016465Y-162302866D03*
%TD*%
D10*
%TO.C,MX63*%
X287867715Y-173097866D03*
D11*
X292947715Y-173097866D03*
D10*
X298027715Y-173097866D03*
%TD*%
%TO.C,MX6*%
X147373965Y-96897866D03*
D11*
X152453965Y-96897866D03*
D10*
X157533965Y-96897866D03*
%TD*%
%TO.C,MX17*%
X80698965Y-115947866D03*
D11*
X85778965Y-115947866D03*
D10*
X90858965Y-115947866D03*
%TD*%
%TO.C,MX54*%
X266436465Y-154047866D03*
D11*
X271516465Y-154047866D03*
D10*
X276596465Y-154047866D03*
%TD*%
%TO.C,MX26*%
X252148965Y-115947866D03*
D11*
X257228965Y-115947866D03*
D10*
X262308965Y-115947866D03*
%TD*%
%TO.C,MX22*%
X175948965Y-115947866D03*
D11*
X181028965Y-115947866D03*
D10*
X186108965Y-115947866D03*
%TD*%
%TO.C,MX47*%
X133086465Y-154047866D03*
D11*
X138166465Y-154047866D03*
D10*
X143246465Y-154047866D03*
%TD*%
%TO.C,MX13*%
X280723965Y-96897866D03*
D11*
X285803965Y-96897866D03*
D10*
X290883965Y-96897866D03*
%TD*%
%TO.C,MX62*%
X264055215Y-173097866D03*
D11*
X269135215Y-173097866D03*
D10*
X274215215Y-173097866D03*
%TD*%
%TO.C,MX60*%
X168805215Y-173097866D03*
D11*
X173885215Y-173097866D03*
D10*
X178965215Y-173097866D03*
%TD*%
%TO.C,MX28*%
X290248965Y-115947866D03*
D11*
X295328965Y-115947866D03*
D10*
X300408965Y-115947866D03*
%TD*%
%TO.C,MX45*%
X94986465Y-154047866D03*
D11*
X100066465Y-154047866D03*
D10*
X105146465Y-154047866D03*
%TD*%
%TO.C,MX2*%
X71173965Y-96897866D03*
D11*
X76253965Y-96897866D03*
D10*
X81333965Y-96897866D03*
%TD*%
%TO.C,MX24*%
X214048965Y-115947866D03*
D11*
X219128965Y-115947866D03*
D10*
X224208965Y-115947866D03*
%TD*%
%TO.C,MX9*%
X204523965Y-96897866D03*
D11*
X209603965Y-96897866D03*
D10*
X214683965Y-96897866D03*
%TD*%
%TO.C,MX57*%
X54505215Y-173097866D03*
D11*
X59585215Y-173097866D03*
D10*
X64665215Y-173097866D03*
%TD*%
%TO.C,MX42*%
X275961465Y-134997866D03*
D11*
X281041465Y-134997866D03*
D10*
X286121465Y-134997866D03*
%TD*%
%TO.C,MX37*%
X180711465Y-134997866D03*
D11*
X185791465Y-134997866D03*
D10*
X190871465Y-134997866D03*
%TD*%
%TO.C,MX39*%
X218811465Y-134997866D03*
D11*
X223891465Y-134997866D03*
D10*
X228971465Y-134997866D03*
%TD*%
D13*
%TO.C,SW1*%
X350837500Y-131893750D03*
X344337500Y-131893750D03*
X350837500Y-136393750D03*
X344337500Y-136393750D03*
%TD*%
%TO.C,SW2*%
X364866465Y-132010366D03*
X358366465Y-132010366D03*
X364866465Y-136510366D03*
X358366465Y-136510366D03*
%TD*%
D14*
%TO.C,J1*%
X340415215Y-93404116D03*
X346195215Y-93404116D03*
D15*
X338985215Y-89754116D03*
D16*
X338985215Y-93934116D03*
D15*
X347625215Y-89754116D03*
D16*
X347625215Y-93934116D03*
%TD*%
M02*
