M48
; DRILL file {KiCad 8.0.2} date 2024-06-13T00:17:38-0700
; FORMAT={-:-/ absolute / inch / decimal}
; #@! TF.CreationDate,2024-06-13T00:17:38-07:00
; #@! TF.GenerationSoftware,Kicad,Pcbnew,8.0.2
; #@! TF.FileFunction,Plated,1,2,PTH
FMAT,2
INCH
; #@! TA.AperFunction,Plated,PTH,ViaDrill
T1C0.0118
; #@! TA.AperFunction,Plated,PTH,ComponentDrill
T2C0.0138
; #@! TA.AperFunction,Plated,PTH,ComponentDrill
T3C0.0236
; #@! TA.AperFunction,Plated,PTH,ComponentDrill
T4C0.0433
; #@! TA.AperFunction,Plated,PTH,ComponentDrill
T5C0.0600
; #@! TA.AperFunction,Plated,PTH,ComponentDrill
T6C0.1200
%
G90
G05
T1
X2.1109Y-4.1165
X2.8638Y-4.1412
X3.6463Y-4.1559
X4.4042Y-4.1756
X5.1325Y-4.1953
X5.9888Y-4.2051
X6.7467Y-4.2209
X7.4768Y-3.977
X8.1443Y-4.0024
X9.2762Y-4.904
X10.0243Y-4.9276
X10.7723Y-4.9433
X11.899Y-4.8803
X12.5833Y-4.8646
X12.9377Y-4.2347
X12.9436Y-4.862
X12.9672Y-4.8843
X12.9967Y-4.904
X13.0262Y-4.2051
X13.0262Y-4.9236
X13.0361Y-4.1067
X13.0459Y-4.274
X13.0656Y-4.9335
X13.0853Y-4.2839
X13.1739Y-5.3961
X13.1798Y-4.3134
X13.2152Y-4.3055
X13.2205Y-4.1238
X13.2428Y-4.1461
X13.2723Y-4.0181
X13.2782Y-5.0772
X13.2821Y-3.9807
X13.2861Y-4.6756
X13.292Y-3.8803
X13.2979Y-4.4748
X13.3018Y-4.1362
X13.308Y-4.3033
X13.3205Y-5.3173
X13.3255Y-4.087
X13.3806Y-5.148
X13.4003Y-5.3075
X13.4003Y-5.5043
X13.4101Y-3.7917
X13.4121Y-4.1106
X13.4298Y-3.8803
X13.4396Y-3.5358
X13.4396Y-3.9984
X13.4692Y-3.6441
X13.4793Y-3.8662
X13.5085Y-4.5595
X13.5282Y-4.1461
X13.538Y-3.8665
X13.5459Y-4.7701
X13.5577Y-6.1441
X13.5577Y-6.902
X13.5735Y-4.1696
X13.5774Y-3.6441
X13.6168Y-4.8252
X13.6241Y-4.6911
X13.6372Y-3.8941
X13.6777Y-4.0076
X13.6841Y-4.1044
X13.6955Y-4.4079
X13.6955Y-5.1205
X13.7349Y-4.6874
X13.7369Y-5.0024
X13.8018Y-4.7071
X13.8189Y-4.3209
X13.8333Y-4.7101
X13.8432Y-4.2347
X13.853Y-4.7347
X13.9219Y-4.2445
X13.9396Y-3.9748
T2
X13.4549Y-4.3026
X13.4549Y-4.3528
X13.4549Y-4.403
X13.5051Y-4.3026
X13.5051Y-4.3528
X13.5051Y-4.403
X13.5553Y-4.3026
X13.5553Y-4.3528
X13.5553Y-4.403
T4
X13.5577Y-5.1992
X13.5577Y-5.3764
X13.8136Y-5.1992
X13.8136Y-5.3764
X14.1089Y-5.1973
X14.1089Y-5.3744
X14.3648Y-5.1973
X14.3648Y-5.3744
T5
X2.1021Y-3.7149
X2.1959Y-6.7149
X2.2896Y-4.4649
X2.3521Y-3.6149
X2.3834Y-5.2149
X2.4459Y-6.6149
X2.5396Y-4.3649
X2.5709Y-5.9649
X2.6334Y-5.1149
X2.8209Y-5.8649
X2.8521Y-3.7149
X3.0396Y-6.7149
X3.1021Y-3.6149
X3.2271Y-4.4649
X3.2896Y-6.6149
X3.4146Y-5.2149
X3.4771Y-4.3649
X3.6021Y-3.7149
X3.6646Y-5.1149
X3.7896Y-5.9649
X3.8521Y-3.6149
X3.8834Y-6.7149
X3.9771Y-4.4649
X4.0396Y-5.8649
X4.1334Y-6.6149
X4.1646Y-5.2149
X4.2271Y-4.3649
X4.3521Y-3.7149
X4.4146Y-5.1149
X4.5396Y-5.9649
X4.6021Y-3.6149
X4.7271Y-4.4649
X4.7896Y-5.8649
X4.9146Y-5.2149
X4.9771Y-4.3649
X5.1021Y-3.7149
X5.1646Y-5.1149
X5.2896Y-5.9649
X5.3521Y-3.6149
X5.4771Y-4.4649
X5.5396Y-5.8649
X5.6646Y-5.2149
X5.7271Y-4.3649
X5.8521Y-3.7149
X5.9146Y-5.1149
X6.0396Y-5.9649
X6.1021Y-3.6149
X6.2271Y-4.4649
X6.2896Y-5.8649
X6.4146Y-5.2149
X6.4771Y-4.3649
X6.6021Y-3.7149
X6.6646Y-5.1149
X6.6959Y-6.7149
X6.7896Y-5.9649
X6.8521Y-3.6149
X6.9459Y-6.6149
X6.9771Y-4.4649
X7.0396Y-5.8649
X7.1646Y-5.2149
X7.2271Y-4.3649
X7.3521Y-3.7149
X7.4146Y-5.1149
X7.5396Y-5.9649
X7.6021Y-3.6149
X7.7271Y-4.4649
X7.7896Y-5.8649
X7.9146Y-5.2149
X7.9771Y-4.3649
X8.1021Y-3.7149
X8.1646Y-5.1149
X8.2896Y-5.9649
X8.3521Y-3.6149
X8.4771Y-4.4649
X8.5396Y-5.8649
X8.6646Y-5.2149
X8.7271Y-4.3649
X8.8521Y-3.7149
X8.9146Y-5.1149
X9.0396Y-5.9649
X9.1021Y-3.6149
X9.2271Y-4.4649
X9.2896Y-5.8649
X9.4146Y-5.2149
X9.4771Y-4.3649
X9.5084Y-6.7149
X9.6021Y-3.7149
X9.6646Y-5.1149
X9.7584Y-6.6149
X9.7896Y-5.9649
X9.8521Y-3.6149
X9.9771Y-4.4649
X10.0396Y-5.8649
X10.1646Y-5.2149
X10.2271Y-4.3649
X10.3521Y-3.7149
X10.4146Y-5.1149
X10.4459Y-6.7149
X10.5396Y-5.9649
X10.6021Y-3.6149
X10.6959Y-6.6149
X10.7271Y-4.4649
X10.7896Y-5.8649
X10.9146Y-5.2149
X10.9771Y-4.3649
X11.1021Y-3.7149
X11.1646Y-5.1149
X11.3521Y-3.6149
X11.3834Y-6.7149
X11.4771Y-4.4649
X11.6334Y-6.6149
X11.7271Y-4.3649
X11.7584Y-5.9649
X12.0084Y-5.8649
X12.1334Y-5.2149
X12.2271Y-3.7149
X12.2271Y-6.7149
X12.3834Y-5.1149
X12.4146Y-4.4649
X12.4771Y-3.6149
X12.4771Y-6.6149
X12.6646Y-4.3649
X12.9771Y-5.9649
X12.9771Y-6.7149
X13.2271Y-5.8649
X13.2271Y-6.6149
X13.7271Y-6.7149
X13.9771Y-6.6149
X14.1021Y-3.7149
X14.1021Y-4.4649
X14.3521Y-3.6149
X14.3521Y-4.3649
T6
X4.8771Y-6.5399
X8.8146Y-6.5399
T3
G00X13.3459Y-3.5218
M15
G01X13.3459Y-3.5454
M16
G05
G00X13.3459Y-3.6765
M15
G01X13.3459Y-3.7198
M16
G05
G00X13.686Y-3.5218
M15
G01X13.686Y-3.5454
M16
G05
G00X13.686Y-3.6765
M15
G01X13.686Y-3.7198
M16
G05
M30
